<svg width="516" height="372" viewBox="0 0 516 372" fill="none" xmlns="http://www.w3.org/2000/svg">
<g clip-path="url(#clip0)">
<path opacity="0.1" d="M299.805 65.603C266.725 64.4528 235.194 53.7682 205.131 42.0806C175.067 30.3931 145.27 17.4413 112.965 11.2482C92.1943 7.26044 68.4402 6.69959 51.7079 17.8405C35.6026 28.5585 30.4005 47.0617 27.6022 64.2294C25.4976 77.148 24.2767 90.7415 30.0299 102.838C34.0348 111.231 41.1421 118.29 46.0591 126.332C63.1621 154.312 51.0713 188.819 32.5336 216.163C23.8396 228.996 13.7536 241.206 7.04547 254.852C0.337321 268.497 -2.76971 284.13 3.1023 298.047C8.92204 311.83 22.7849 322.201 37.807 329.487C68.3167 344.274 104.266 348.504 139.322 350.928C216.922 356.237 294.94 353.937 372.744 351.636C401.539 350.781 430.462 349.92 458.786 345.457C474.516 342.981 490.759 339.055 502.18 329.578C516.675 317.543 520.271 297.172 510.556 282.081C494.26 256.777 449.208 250.488 437.816 223.33C431.55 208.382 437.987 191.728 447.099 177.863C466.639 148.124 499.401 122.03 501.125 88.0323C502.313 64.681 486.564 41.3012 462.211 30.2505C436.69 18.658 401.296 20.122 382.469 39.2811C363.081 59.0202 329.008 66.6154 299.805 65.603Z" fill="#4BF927"/>
<path d="M368.924 173.678C368.924 173.678 385.03 145.136 409.306 136.914C419.5 133.527 428.322 126.924 434.448 118.097C437.321 113.876 439.8 109.401 441.854 104.727" stroke="#535461" stroke-width="2" stroke-miterlimit="10"/>
<path d="M457.095 99.5C454.33 102.181 441.46 104.956 441.46 104.956C441.46 104.956 444.619 92.1709 447.384 89.4855C448.719 88.2354 450.49 87.5596 452.318 87.6036C454.146 87.6476 455.883 88.4078 457.156 89.7206C458.429 91.0335 459.136 92.7939 459.125 94.6229C459.113 96.452 458.384 98.2033 457.095 99.5Z" fill="#4BF927"/>
<path d="M449.817 122.611C446.016 123.362 433.726 118.695 433.726 118.695C433.726 118.695 443.322 109.664 447.099 108.927C448.006 108.726 448.944 108.708 449.858 108.874C450.772 109.041 451.643 109.388 452.421 109.896C453.199 110.404 453.868 111.062 454.388 111.832C454.908 112.602 455.27 113.468 455.451 114.379C455.632 115.291 455.629 116.229 455.442 117.14C455.256 118.05 454.889 118.914 454.365 119.681C453.84 120.448 453.167 121.102 452.386 121.605C451.605 122.108 450.732 122.45 449.817 122.611V122.611Z" fill="#4BF927"/>
<path d="M423.326 147.651C419.687 146.391 411.416 136.144 411.416 136.144C411.416 136.144 424.243 133.207 427.891 134.466C428.768 134.757 429.578 135.219 430.275 135.826C430.971 136.433 431.541 137.172 431.949 138.001C432.358 138.829 432.598 139.731 432.656 140.653C432.714 141.575 432.588 142.5 432.285 143.373C431.983 144.246 431.51 145.05 430.895 145.739C430.279 146.428 429.533 146.988 428.7 147.386C427.866 147.784 426.962 148.012 426.039 148.058C425.117 148.103 424.195 147.965 423.326 147.651V147.651Z" fill="#4BF927"/>
<path d="M398.983 162.08C395.182 161.453 385.319 152.731 385.319 152.731C385.319 152.731 397.477 147.665 401.273 148.292C403.1 148.593 404.732 149.607 405.812 151.112C406.891 152.617 407.329 154.49 407.028 156.317C406.728 158.145 405.714 159.779 404.209 160.859C402.705 161.939 400.833 162.376 399.006 162.076L398.983 162.08Z" fill="#4BF927"/>
<path d="M422.993 108.699C422.989 112.554 429.977 123.737 429.977 123.737C429.977 123.737 436.956 112.568 436.956 108.718C436.98 107.787 436.818 106.86 436.479 105.993C436.139 105.125 435.629 104.334 434.98 103.667C434.33 103 433.553 102.469 432.695 102.107C431.837 101.745 430.915 101.559 429.984 101.559C429.053 101.559 428.131 101.745 427.273 102.107C426.415 102.469 425.639 103 424.989 103.667C424.339 104.334 423.829 105.125 423.49 105.993C423.15 106.86 422.988 107.787 423.012 108.718L422.993 108.699Z" fill="#4BF927"/>
<path d="M394.759 125.933C395.909 129.612 405.905 138.191 405.905 138.191C405.905 138.191 409.23 125.444 408.071 121.765C407.47 120.061 406.231 118.656 404.616 117.847C403 117.038 401.134 116.888 399.41 117.428C397.686 117.969 396.238 119.157 395.373 120.743C394.507 122.33 394.291 124.19 394.769 125.933H394.759Z" fill="#4BF927"/>
<path d="M369.642 146.451C370.155 150.253 378.554 160.41 378.554 160.41C378.554 160.41 383.975 148.409 383.462 144.592C383.36 143.668 383.074 142.773 382.622 141.96C382.169 141.147 381.559 140.433 380.826 139.86C380.094 139.287 379.254 138.866 378.357 138.623C377.459 138.379 376.522 138.317 375.601 138.441C374.679 138.565 373.791 138.872 372.99 139.344C372.189 139.816 371.49 140.444 370.935 141.19C370.38 141.937 369.979 142.787 369.757 143.69C369.535 144.593 369.496 145.532 369.642 146.451V146.451Z" fill="#4BF927"/>
<path d="M457.095 99.5C454.33 102.181 441.46 104.956 441.46 104.956C441.46 104.956 444.619 92.1709 447.384 89.4855C448.719 88.2354 450.49 87.5596 452.318 87.6036C454.146 87.6476 455.883 88.4078 457.156 89.7206C458.429 91.0335 459.136 92.7939 459.125 94.6229C459.113 96.452 458.384 98.2033 457.095 99.5Z" fill="#03987A"/>
<path d="M449.817 122.611C446.016 123.362 433.726 118.695 433.726 118.695C433.726 118.695 443.322 109.664 447.099 108.927C448.006 108.726 448.944 108.708 449.858 108.874C450.772 109.041 451.643 109.388 452.421 109.896C453.199 110.404 453.868 111.062 454.388 111.832C454.908 112.602 455.27 113.468 455.451 114.379C455.632 115.291 455.629 116.229 455.442 117.14C455.256 118.05 454.889 118.914 454.365 119.681C453.84 120.448 453.167 121.102 452.386 121.605C451.605 122.108 450.732 122.45 449.817 122.611V122.611Z" fill="#03987A"/>
<path d="M423.326 147.651C419.687 146.391 411.416 136.144 411.416 136.144C411.416 136.144 424.243 133.207 427.891 134.466C428.768 134.757 429.578 135.219 430.275 135.826C430.971 136.433 431.541 137.172 431.949 138.001C432.358 138.829 432.598 139.731 432.656 140.653C432.714 141.575 432.588 142.5 432.285 143.373C431.983 144.246 431.51 145.05 430.895 145.739C430.279 146.428 429.533 146.988 428.7 147.386C427.866 147.784 426.962 148.012 426.039 148.058C425.117 148.103 424.195 147.965 423.326 147.651V147.651Z" fill="#03987A"/>
<path opacity="0.25" d="M398.983 162.08C395.182 161.453 385.319 152.731 385.319 152.731C385.319 152.731 397.477 147.665 401.273 148.292C403.1 148.593 404.732 149.607 405.812 151.112C406.891 152.617 407.329 154.49 407.028 156.317C406.728 158.145 405.714 159.779 404.209 160.859C402.705 161.939 400.833 162.376 399.006 162.076L398.983 162.08Z" fill="black"/>
<path d="M422.993 108.699C422.989 112.554 429.977 123.737 429.977 123.737C429.977 123.737 436.956 112.568 436.956 108.718C436.98 107.787 436.818 106.86 436.479 105.993C436.139 105.125 435.629 104.334 434.98 103.667C434.33 103 433.553 102.469 432.695 102.107C431.837 101.745 430.915 101.559 429.984 101.559C429.053 101.559 428.131 101.745 427.273 102.107C426.415 102.469 425.639 103 424.989 103.667C424.339 104.334 423.829 105.125 423.49 105.993C423.15 106.86 422.988 107.787 423.012 108.718L422.993 108.699Z" fill="#03987A"/>
<path opacity="0.25" d="M394.759 125.933C395.909 129.612 405.905 138.191 405.905 138.191C405.905 138.191 409.23 125.444 408.071 121.765C407.47 120.061 406.231 118.656 404.616 117.847C403 117.038 401.134 116.888 399.41 117.428C397.686 117.969 396.238 119.157 395.373 120.743C394.507 122.33 394.291 124.19 394.769 125.933H394.759Z" fill="black"/>
<path opacity="0.25" d="M369.642 146.451C370.155 150.253 378.554 160.41 378.554 160.41C378.554 160.41 383.975 148.409 383.462 144.592C383.36 143.668 383.074 142.773 382.622 141.96C382.169 141.147 381.559 140.433 380.826 139.86C380.094 139.287 379.254 138.866 378.357 138.623C377.459 138.379 376.522 138.317 375.601 138.441C374.679 138.565 373.791 138.872 372.99 139.344C372.189 139.816 371.49 140.444 370.935 141.19C370.38 141.937 369.979 142.787 369.757 143.69C369.535 144.593 369.496 145.532 369.642 146.451V146.451Z" fill="black"/>
<path d="M369.851 173.109C369.851 173.109 373.015 140.485 391.857 123.137C399.804 115.907 405.194 106.294 407.221 95.7407C408.143 90.7236 408.602 85.6324 408.594 80.5312" stroke="#535461" stroke-width="2" stroke-miterlimit="10"/>
<path d="M420.404 69.5283C418.979 73.1025 408.318 80.8594 408.318 80.8594C408.318 80.8594 406.028 67.8885 407.468 64.3143C408.161 62.5981 409.507 61.2275 411.21 60.5042C412.913 59.7808 414.833 59.764 416.549 60.4573C418.264 61.1506 419.634 62.4973 420.357 64.2011C421.08 65.9049 421.097 67.8263 420.404 69.5426V69.5283Z" fill="#01D9AD"/>
<path d="M423.117 93.6351C419.967 95.85 406.822 96.5772 406.822 96.5772C406.822 96.5772 411.943 84.4382 415.093 82.2233C415.84 81.664 416.691 81.2603 417.597 81.0361C418.503 80.812 419.444 80.772 420.366 80.9184C421.287 81.0649 422.17 81.3948 422.962 81.8887C423.753 82.3826 424.438 83.0304 424.975 83.7938C425.512 84.5572 425.89 85.4206 426.088 86.3329C426.285 87.2452 426.298 88.1879 426.124 89.1051C425.951 90.0223 425.596 90.8954 425.079 91.6727C424.562 92.45 423.895 93.1157 423.117 93.6304V93.6351Z" fill="#01D9AD"/>
<path d="M409.026 127.273C405.187 127.596 393.472 121.57 393.472 121.57C393.472 121.57 404.018 113.68 407.857 113.357C409.701 113.202 411.53 113.785 412.943 114.98C414.356 116.174 415.237 117.881 415.392 119.726C415.547 121.57 414.963 123.4 413.769 124.814C412.576 126.227 410.869 127.109 409.026 127.264V127.273Z" fill="#01D9AD"/>
<path d="M392.631 150.321C388.902 151.272 376.34 147.341 376.34 147.341C376.34 147.341 385.4 137.783 389.13 136.813C390.92 136.349 392.822 136.615 394.416 137.553C396.01 138.491 397.167 140.024 397.631 141.816C398.095 143.607 397.829 145.509 396.892 147.105C395.954 148.7 394.421 149.857 392.631 150.321V150.321Z" fill="#4BF927"/>
<path d="M392.963 91.7866C394.522 95.3086 405.42 102.718 405.42 102.718C405.42 102.718 407.273 89.6763 405.715 86.1544C404.938 84.5066 403.548 83.228 401.842 82.5917C400.136 81.9555 398.249 82.0121 396.584 82.7494C394.918 83.4867 393.608 84.8463 392.931 86.5377C392.255 88.229 392.266 90.118 392.963 91.8009V91.7866Z" fill="#01D9AD"/>
<path d="M374.131 118.986C376.673 121.881 389.282 125.673 389.282 125.673C389.282 125.673 387.153 112.674 384.612 109.78C384.012 109.076 383.278 108.5 382.453 108.082C381.629 107.665 380.729 107.416 379.808 107.35C378.886 107.284 377.96 107.401 377.084 107.696C376.208 107.99 375.4 108.456 374.705 109.066C374.011 109.676 373.445 110.418 373.039 111.249C372.634 112.08 372.398 112.983 372.344 113.906C372.291 114.829 372.421 115.753 372.728 116.625C373.035 117.498 373.512 118.3 374.131 118.986V118.986Z" fill="#4BF927"/>
<path d="M359.456 147.94C361.47 151.22 373.257 157.09 373.257 157.09C373.257 157.09 373.357 143.919 371.357 140.635C370.361 139.119 368.814 138.05 367.044 137.655C365.274 137.261 363.42 137.572 361.875 138.522C360.33 139.472 359.216 140.987 358.769 142.745C358.321 144.504 358.576 146.367 359.48 147.94H359.456Z" fill="#4BF927"/>
<path d="M345.622 45.3492C346.41 42.4547 347.36 39.5459 348.025 36.6133C347.227 39.5459 346.272 42.4642 345.622 45.3492Z" fill="url(#paint0_linear)"/>
<path d="M238.282 143.04L235.431 144.3C235.431 144.3 216.851 216.516 216.851 222.353C216.851 228.19 256.249 260.667 256.249 260.667L262.397 219.154C262.397 219.154 253.57 123.957 238.282 143.04Z" fill="#E8F5FF"/>
<path d="M324.704 120.07L308.242 111.477C307.32 107.545 305.684 103.815 303.415 100.474C301.007 96.9946 297.805 93.5773 293.814 91.7949C283.728 87.2701 336.476 63.5195 336.476 63.5195C337.307 66.3726 338.286 69.1807 339.408 71.9323C342.125 78.6435 346.633 87.3224 352.444 89.7939C362.321 94.0003 324.704 120.07 324.704 120.07Z" fill="#FFC1C7"/>
<path opacity="0.1" d="M339.407 71.9323C337.154 79.8626 332.467 86.8842 326.009 92.0055C319.55 97.1268 311.647 100.089 303.415 100.474C301.007 96.9947 297.805 93.5773 293.814 91.7949C283.728 87.2701 336.476 63.5195 336.476 63.5195C337.307 66.3726 338.286 69.1807 339.407 71.9323V71.9323Z" fill="black"/>
<path d="M340.89 59.9411C340.891 67.7187 338.588 75.3222 334.27 81.7899C329.952 88.2576 323.814 93.299 316.632 96.2764C309.451 99.2539 301.547 100.034 293.923 98.5171C286.298 97.0006 279.294 93.2559 273.796 87.7566C268.299 82.2573 264.555 75.2505 263.038 67.6224C261.521 59.9942 262.3 52.0874 265.275 44.9019C268.25 37.7164 273.289 31.575 279.753 27.2545C286.217 22.934 293.817 20.6284 301.591 20.6293C306.758 20.6054 311.879 21.6059 316.657 23.573C321.435 25.54 325.777 28.4347 329.431 32.0899C333.085 35.745 335.979 40.0882 337.946 44.8685C339.912 49.6489 340.913 54.7717 340.89 59.9411V59.9411Z" fill="#FFC1C7"/>
<path d="M346.562 115.02L335.845 140.039L326.39 156.646H296.128L287.301 133.941L290.878 110.395H313.991L328.913 109.554L333.954 107.871L337.203 109.715L346.562 115.02Z" fill="#575A89"/>
<path opacity="0.1" d="M342.871 81.6702C342.871 81.6702 349.555 83.096 343.569 88.0059C337.583 92.9157 316.932 108.529 316.932 108.529C316.932 108.529 324.186 114.993 322.685 122.565L346.719 109.161L350.995 87.7159C350.995 87.7159 351.475 81.2709 342.871 81.6702Z" fill="black"/>
<path opacity="0.1" d="M321.658 108.527L306.37 111.051C306.37 111.051 309.525 122.72 307.948 126.032C307.9 126.135 307.86 126.242 307.829 126.351L301.591 143.219L306.266 156.466L322.447 134.388L316.931 126.032C316.931 126.032 322.761 118.304 326.229 115.624C329.697 112.943 321.658 108.527 321.658 108.527Z" fill="black"/>
<path d="M321.658 107.879L306.37 110.398C306.37 110.398 309.525 122.067 307.948 125.379C307.9 125.482 307.86 125.589 307.829 125.698L301.591 142.566L306.266 155.813L322.447 133.721L316.931 125.365C316.931 125.365 322.761 117.637 326.229 114.956C329.697 112.275 321.658 107.879 321.658 107.879Z" fill="#DCE6F2"/>
<path d="M343.512 80.4123C343.512 80.4123 350.197 81.8382 344.206 86.748C338.215 91.6579 316.932 108.531 316.932 108.531C316.932 108.531 324.813 113.735 323.317 121.302L347.351 107.903L351.627 86.4581C351.627 86.4581 352.102 80.0131 343.512 80.4123Z" fill="#575A89"/>
<path opacity="0.1" d="M304.465 101.961C304.465 101.961 305.924 104.689 312.361 109.608C312.361 109.608 301.643 115.312 305.743 123.33L289.348 119.053L286.825 111.167L304.465 101.961Z" fill="black"/>
<path d="M303.833 101.332C303.833 101.332 305.292 104.06 311.729 108.98C311.729 108.98 301.011 114.655 305.111 122.697L288.721 118.419L286.198 110.539L303.833 101.332Z" fill="#575A89"/>
<path opacity="0.1" d="M346.562 115.023L335.845 140.043L326.409 156.649H296.128L287.301 133.945L290.873 110.398H297.301C297.197 115.893 299.202 122.347 299.073 124.748C298.855 128.693 304.955 149.976 304.955 149.976C304.955 149.976 317.72 129.32 322.761 127.481C325.93 126.326 332.643 116.715 337.199 109.719L346.562 115.023Z" fill="black"/>
<path d="M388.783 246.683L387.695 248.052C387.695 248.052 395.576 287.63 393.396 296.617C393.025 298.237 392.814 299.89 392.764 301.551V301.622C392.379 310.767 395.139 322.635 395.139 322.635C395.139 322.635 397.344 357.617 396.09 372.004H248.52C247.655 350.73 246.724 323.167 247.57 320.111C248.995 315.068 251.845 296.774 251.845 296.774L252.159 288.105C252.159 288.105 252.159 279.725 252.415 270.391C252.525 266.194 252.686 261.788 252.919 257.881C253.218 252.966 253.636 248.826 254.211 246.792C254.565 245.25 254.769 243.678 254.819 242.096C254.819 241.949 254.819 241.797 254.848 241.645C254.848 241.169 254.895 240.656 254.914 240.128C254.914 239.981 254.914 239.834 254.914 239.653C255.005 236.592 254.971 232.961 254.872 229.197C254.872 228.992 254.872 228.783 254.872 228.574C254.791 225.751 254.672 222.87 254.539 220.133C254.126 211.577 253.589 204.343 253.589 204.343L235.465 144.266L240.348 132.231L253.903 123.923L278.963 108.785C291.187 98.7326 299.235 99.9399 302.304 101.043C302.602 101.144 302.894 101.263 303.178 101.399C303.273 101.447 303.349 101.485 303.42 101.527C303.518 101.574 303.612 101.628 303.701 101.689V101.689C302.86 102.093 302.13 102.695 301.572 103.443C300.944 104.294 300.496 105.264 300.256 106.295C300.096 106.933 299.983 107.583 299.919 108.239C299.857 108.928 299.833 109.641 299.833 110.358C299.867 111.932 300.002 113.502 300.237 115.059C300.237 115.088 300.237 115.126 300.237 115.164C300.394 116.276 300.589 117.364 300.779 118.386C300.777 118.403 300.777 118.421 300.779 118.438C300.997 119.631 301.216 120.734 301.363 121.685C301.392 121.856 301.415 122.013 301.439 122.16C301.544 122.788 301.593 123.424 301.586 124.061C301.64 125.599 301.847 127.127 302.204 128.624C302.328 129.251 302.47 129.922 302.627 130.62C302.841 131.571 303.073 132.607 303.325 133.662C303.463 134.242 303.61 134.841 303.762 135.435C303.819 135.673 303.881 135.91 303.938 136.153L304.033 136.528C305.045 140.554 306.142 144.561 306.817 146.985C307.216 148.411 307.468 149.29 307.468 149.29C307.468 149.29 314.623 137.716 320.333 131.129C320.419 131.034 320.495 130.943 320.575 130.858C321.141 130.207 321.697 129.613 322.229 129.09C323.393 127.93 324.438 127.103 325.279 126.799C325.458 126.733 325.631 126.652 325.797 126.556C328.134 125.23 331.906 120.416 335.436 115.373C335.783 114.897 336.12 114.379 336.462 113.89C337.246 112.759 338.006 111.623 338.724 110.534C339.275 109.702 339.802 108.894 340.301 108.124C342.676 104.427 344.348 101.67 344.348 101.67L347.646 101.523L348.22 101.494H348.605L363.575 100.8C363.575 100.8 364.221 100.909 365.285 101.123C365.342 101.123 365.399 101.123 365.461 101.161C370.773 102.217 385.529 105.558 386.431 110.192C387.533 115.867 411.335 123.438 411.335 123.438C411.648 127.241 417.478 129.746 417.478 129.746C417.478 129.746 426.305 153.083 423.944 162.227C421.611 171.258 430.015 193.597 430.238 194.224L428.628 196.259L388.783 246.683Z" fill="#E8F5FF"/>
<path opacity="0.1" d="M342.866 80.0119C342.866 80.0119 357.437 75.8769 360.748 84.3894C364.06 92.902 371.466 127.28 371.466 127.28C371.466 127.28 352.235 130.907 347.194 127.28C344.238 125.128 340.578 124.171 336.947 124.599L326.072 132.009L322.861 131.059C322.861 131.059 340.258 105.184 344.04 96.3906C347.821 87.5977 349.099 83.667 342.866 80.0119Z" fill="black"/>
<path d="M342.234 78.1096C342.234 78.1096 356.814 73.9745 360.14 82.4871C363.466 90.9996 370.858 125.378 370.858 125.378C370.858 125.378 351.631 129.004 346.586 125.378C343.631 123.225 339.973 122.268 336.343 122.697L325.459 130.107L322.248 129.156C322.248 129.156 339.645 103.281 343.427 94.4883C347.208 85.6953 348.467 81.7741 342.234 78.1096Z" fill="#E8F5FF"/>
<path opacity="0.1" d="M244.429 215.258C244.429 215.258 255.304 217.938 257.356 224.089C259.409 230.239 249.318 230.396 249.318 230.396C249.318 230.396 243.17 219.516 244.429 215.258Z" fill="black"/>
<path opacity="0.1" d="M284.935 260.668C284.935 260.668 258.302 315.227 264.449 320.432C270.597 325.636 284.935 260.668 284.935 260.668Z" fill="black"/>
<path opacity="0.1" d="M321.658 220.461C321.658 220.461 342.937 273.456 338.681 281.641C334.424 289.826 347.821 281.641 347.821 281.641L321.658 220.461Z" fill="black"/>
<path d="M351.289 272.812C351.289 272.812 279.419 276.282 300.384 298.673C321.35 321.065 364.373 299.624 364.373 299.624L351.289 272.812Z" fill="#FFC1C7"/>
<path opacity="0.1" d="M340.89 59.9409C340.896 65.0979 339.884 70.2054 337.911 74.9697C337.25 75.0458 336.59 75.0933 335.953 75.1218C335.003 73.0353 335.512 70.6255 335.531 68.3299C335.55 66.0342 334.704 63.3345 332.495 62.7166C328.091 61.4761 325.05 69.713 320.708 68.2253C317.383 67.0941 318.252 62.0464 316.337 59.1329C314.822 56.8277 311.786 56.1765 309.425 54.7316C304.403 51.647 304.555 46.7134 302.223 42.046C299.781 37.1552 294.621 38.6001 290.141 41.4851C286.74 43.681 283.804 46.6231 280.165 48.3722C277.015 49.8931 273.476 50.4445 269.984 50.5253C267.834 50.6086 265.683 50.3813 263.599 49.8503C266.051 40.6267 271.773 32.6103 279.697 27.296C287.622 21.9817 297.208 19.7323 306.667 20.9674C316.127 22.2025 324.815 26.8377 331.111 34.0086C337.407 41.1795 340.881 50.3965 340.885 59.9409H340.89Z" fill="black"/>
<path d="M290.156 40.2254C286.75 42.4212 283.818 45.3586 280.179 47.1172C277.029 48.6334 273.49 49.1847 269.998 49.2655C265.722 49.3606 261.119 48.6096 258.197 45.5202C255.513 42.6684 254.872 38.2814 256.007 34.5408C257.142 30.8002 259.865 27.6966 263.062 25.4484C266.259 23.2003 269.97 21.646 272.088 18.4283C273.21 16.7267 273.751 14.721 274.682 12.9101C277.661 7.11624 284.36 3.97928 290.835 3.58954C297.311 3.1998 303.729 5.1295 309.895 7.2208C316.062 9.31211 322.276 11.6125 328.785 12.0451C331.683 12.2257 334.695 12.0451 337.384 13.143C340.999 14.6117 343.37 18.1241 344.985 21.6983C346.795 25.7288 347.921 30.1301 347.731 34.5313C347.332 43.9279 341.127 53.1487 343.854 62.1508C344.576 64.551 345.93 67.0131 345.208 69.4133C344.154 72.9162 339.636 73.7147 335.982 73.8811C335.032 71.7945 335.54 69.38 335.559 67.0891C335.578 64.7982 334.733 62.0937 332.528 61.4759C328.12 60.2448 325.079 68.4675 320.746 66.9845C317.445 65.8486 318.3 60.8057 316.38 57.8921C314.865 55.5822 311.824 54.9358 309.468 53.4909C304.446 50.4062 304.598 45.4726 302.266 40.8052C299.805 35.8907 294.641 37.3356 290.156 40.2254Z" fill="#99607E"/>
<path d="M220.466 221.089L216.841 222.354C216.841 222.354 218.267 243.799 213.516 249.949C208.765 256.1 229.117 271.39 229.117 271.39C229.117 271.39 257.014 271.233 257.803 269.014C258.591 266.794 256.378 229.279 256.378 229.279C256.378 229.279 241.403 223.442 242.662 214.141C242.662 214.141 238.092 236.057 231.317 235.111C224.542 234.165 216.851 228.504 220.466 221.089Z" fill="#E8F5FF"/>
<path opacity="0.1" d="M232.557 241.743C237.839 241.743 242.12 237.825 242.12 232.992C242.12 228.16 237.839 224.242 232.557 224.242C227.275 224.242 222.994 228.16 222.994 232.992C222.994 237.825 227.275 241.743 232.557 241.743Z" fill="black"/>
<path d="M243.014 221.721C243.014 221.721 241.113 163.697 224.571 176.625C208.029 189.553 207.867 205.014 211.017 209.582C214.167 214.15 224.267 237.016 224.267 237.016C225.847 237.932 227.621 238.461 229.445 238.558C231.268 238.656 233.089 238.32 234.757 237.578C236.426 236.836 237.895 235.709 239.045 234.29C240.194 232.87 240.991 231.198 241.37 229.411L243.014 221.721Z" fill="#FFC1C7"/>
<path opacity="0.1" d="M346.206 74.7457C346.129 74.4907 345.98 74.2632 345.778 74.0898C344.961 73.3435 343.203 73.0821 340.552 73.3103L340.662 74.565C344.196 74.2609 344.895 74.9643 344.985 75.0831V75.202L345.094 75.3588C345.535 75.9514 345.847 76.6295 346.011 77.3497C346.174 78.07 346.186 78.8165 346.044 79.5414C345.27 83.4151 340.514 86.4997 340.467 86.533L340.353 86.5996L340.282 86.7089C338.229 89.7555 326.623 98.3536 323.587 100.578L323.321 100.274C321.962 101.453 310.019 111.914 309.373 115.921C308.955 118.435 306.123 119.409 305.097 119.68C304.014 118.858 300.498 116.058 298.669 112.921C296.954 109.97 303.857 104.209 304.465 101.961L303.515 100.987C303.415 101.348 294.55 109.637 297.016 113.872C298.992 117.27 302.603 120.179 303.867 121.139C303.463 124.809 300.95 146.354 297.087 151.458C292.289 157.804 288.255 189.782 288.702 200.946C289.096 210.866 286.507 229.602 277.861 237.649C276.364 239.103 274.558 240.2 272.578 240.858C270.598 241.517 268.495 241.719 266.425 241.451H266.321H266.216C266.093 241.451 253.551 242.734 243.014 233.846C234.391 226.589 229.507 214.744 228.49 198.632H228.281L228.196 193.94C230.534 193.575 232.639 192.318 234.07 190.432C235.501 188.547 236.145 186.18 235.868 183.829C235.591 181.478 234.413 179.326 232.584 177.825C230.754 176.324 228.414 175.591 226.055 175.78C223.696 175.969 221.503 177.066 219.935 178.839C218.367 180.612 217.548 182.924 217.648 185.29C217.749 187.655 218.762 189.889 220.475 191.522C222.187 193.156 224.466 194.062 226.832 194.05H226.937L227.022 198.712L226.604 198.741C227.649 215.376 232.78 227.682 241.807 235.282C248.668 240.969 257.431 243.839 266.326 243.309C266.957 243.379 267.591 243.413 268.226 243.414C272.303 243.435 276.226 241.857 279.153 239.018C288.26 230.533 291.03 211.108 290.598 200.851C290.123 189.021 294.356 158.193 298.603 152.58C302.764 147.071 305.287 125.607 305.729 121.448C307.235 121.025 310.641 119.69 311.221 116.22C311.639 113.71 319.616 105.977 324.523 101.695L324.376 101.524C327.017 99.5942 335.232 93.5104 339.303 89.6034C340.567 88.3914 341.821 87.1794 343.132 86.0244C344.709 84.6271 346.714 82.4074 347.242 79.7838C347.421 78.9178 347.422 78.0241 347.244 77.1577C347.066 76.2913 346.713 75.4705 346.206 74.7457V74.7457Z" fill="black"/>
<path d="M303.705 120.841C303.506 120.703 298.774 117.314 296.403 113.236C293.942 109.001 302.807 100.717 302.902 100.355L303.852 101.33C303.249 103.573 296.346 109.339 298.061 112.285C300.223 116.007 304.774 119.263 304.822 119.296L303.705 120.841Z" fill="#353146"/>
<path d="M322.97 101.499L322.229 100.478C322.381 100.368 337.303 89.5695 339.655 86.076L339.731 85.9715L339.84 85.9002C339.887 85.8669 344.643 82.787 345.417 78.9086C345.56 78.1845 345.549 77.4384 345.386 76.7187C345.222 75.999 344.909 75.3217 344.467 74.7307L344.358 74.5691V74.4551C344.263 74.3315 343.564 73.6328 340.03 73.937L339.921 72.6775C342.576 72.4493 344.329 72.7107 345.146 73.4569C345.35 73.6321 345.5 73.8611 345.579 74.1176C346.092 74.8403 346.453 75.6605 346.637 76.5278C346.822 77.3952 346.827 78.2911 346.652 79.1605C346.125 81.7889 344.125 84.0085 342.543 85.4011C341.237 86.5561 339.978 87.7776 338.719 88.9801C333.944 93.5572 323.492 101.124 322.97 101.499Z" fill="#E8F5FF"/>
<path d="M227.583 192.286L226.324 192.309L226.464 199.964L227.723 199.941L227.583 192.286Z" fill="#E8F5FF"/>
<path d="M226.219 193.445C231.297 193.445 235.412 189.327 235.412 184.248C235.412 179.168 231.297 175.051 226.219 175.051C221.142 175.051 217.027 179.168 217.027 184.248C217.027 189.327 221.142 193.445 226.219 193.445Z" fill="#01D9AD"/>
<path d="M226.22 191.889C230.436 191.889 233.854 188.47 233.854 184.251C233.854 180.033 230.436 176.613 226.22 176.613C222.003 176.613 218.585 180.033 218.585 184.251C218.585 188.47 222.003 191.889 226.22 191.889Z" fill="#E8F5FF"/>
<path d="M267.628 242.799C266.993 242.8 266.358 242.767 265.727 242.699C256.833 243.223 248.072 240.355 241.208 234.671C232.182 227.067 227.06 214.775 226.006 198.126L227.906 198.007C228.923 214.12 233.806 225.969 242.434 233.222C252.971 242.086 265.509 240.826 265.632 240.826H265.737H265.841C267.911 241.093 270.014 240.89 271.995 240.232C273.976 239.574 275.782 238.477 277.281 237.024C285.923 228.977 288.512 210.241 288.118 200.322C287.643 189.148 291.676 157.17 296.479 150.829C300.684 145.273 303.292 120.23 303.32 119.978L303.392 119.265L304.095 119.141C304.138 119.141 308.242 118.362 308.755 115.291C309.42 111.289 321.345 100.828 322.699 99.6445L323.939 101.07C319.012 105.348 311.036 113.086 310.637 115.6C310.057 119.079 306.651 120.41 305.149 120.828C304.674 124.992 302.171 146.452 298.023 151.96C293.776 157.574 289.543 188.401 290.018 200.231C290.427 210.488 287.685 229.918 278.578 238.398C275.646 241.244 271.713 242.824 267.628 242.799Z" fill="#353146"/>
<g opacity="0.1">
<path opacity="0.1" d="M344.938 48.7018C345.717 45.8215 346.657 42.9222 347.313 40.0039C346.529 42.9365 345.584 45.8215 344.938 48.7018Z" fill="black"/>
<path opacity="0.1" d="M336.989 71.3348C336.039 69.2482 336.548 66.8337 336.567 64.5428C336.586 62.2519 335.74 59.5712 333.536 58.9295C329.127 57.6985 326.086 65.9259 321.753 64.4382C318.428 63.3023 319.307 58.2594 317.387 55.3458C315.872 53.0359 312.836 52.3895 310.48 50.9446C305.453 47.8599 305.605 42.9263 303.278 38.2589C300.831 33.3634 295.676 34.8083 291.192 37.6981C287.785 39.8939 284.854 42.836 281.215 44.5899C278.065 46.1061 274.526 46.6574 271.034 46.7382C266.782 46.838 262.155 46.0823 259.233 42.9929C256.981 40.6164 256.169 37.1325 256.634 33.8672C256.553 34.0906 256.482 34.314 256.411 34.5374C255.271 38.2779 255.936 42.6744 258.601 45.5167C261.523 48.6061 266.15 49.3571 270.402 49.262C273.899 49.1812 277.433 48.6299 280.588 47.1137C284.236 45.3551 287.168 42.4178 290.564 40.2219C295.049 37.3321 300.209 35.8872 302.65 40.7827C304.978 45.4502 304.831 50.3837 309.853 53.4684C312.228 54.8943 315.245 55.5597 316.765 57.8696C318.665 60.7927 317.825 65.8261 321.131 66.962C325.459 68.445 328.5 60.2224 332.908 61.4534C335.113 62.0713 335.963 64.7804 335.939 67.0666C335.916 69.3528 335.422 71.772 336.362 73.8586C340.016 73.6922 344.534 72.908 345.593 69.3908C345.739 68.8861 345.806 68.3618 345.793 67.8366C344.249 70.503 340.277 71.1874 336.989 71.3348Z" fill="black"/>
</g>
<path opacity="0.1" d="M422.851 188.452L428.367 194.289C428.367 194.289 432.78 226.452 434.984 229.461C437.189 232.469 442.396 244.437 437.507 253.425C437.507 253.425 435.93 258.316 436.875 260.365C437.821 262.413 429.787 272.665 429.787 272.665C429.787 272.665 419.226 282.124 417.017 283.545C414.808 284.966 403.149 296.316 399.211 296.473C395.272 296.63 393.985 301.52 393.985 301.52L371.761 302.309C371.761 302.309 359.484 301.668 356.815 303.403C356.815 303.403 358.24 284.638 344.524 272.337L362.017 266.03C362.017 266.03 368.639 263.178 370.687 260.198C371.975 258.371 373.802 256.993 375.913 256.258C375.913 256.258 380.797 252.788 380.953 250.897C381.11 249.005 386.925 246.686 386.925 246.686L383.633 218.572L385.367 171.898C385.367 171.898 390.883 132.79 402.546 135C414.209 137.211 422.851 188.452 422.851 188.452Z" fill="black"/>
<path d="M424.751 188.452L430.267 194.289C430.267 194.289 434.68 226.452 436.885 229.461C439.089 232.469 444.296 244.437 439.407 253.425C439.407 253.425 437.835 258.316 438.78 260.365C439.726 262.413 431.687 272.665 431.687 272.665C431.687 272.665 421.126 282.124 418.917 283.545C416.708 284.966 405.05 296.316 401.111 296.473C397.173 296.63 395.885 301.52 395.885 301.52L373.661 302.309C373.661 302.309 361.375 301.668 358.715 303.403C358.715 303.403 360.14 284.638 346.425 272.337L363.917 266.03C363.917 266.03 370.54 263.178 372.587 260.198C373.875 258.371 375.703 256.993 377.813 256.258C377.813 256.258 382.697 252.788 382.854 250.897C383.011 249.005 388.826 246.686 388.826 246.686L385.533 218.572L387.267 171.898C387.267 171.898 392.783 132.79 404.446 135C416.109 137.211 424.751 188.452 424.751 188.452Z" fill="#E8F5FF"/>
<path opacity="0.1" d="M404.247 235.601C404.247 235.601 420.48 231.323 424.737 236.552C428.994 241.78 404.247 235.601 404.247 235.601Z" fill="black"/>
<path opacity="0.1" d="M400.465 242.77C405.981 246.634 423.003 246.791 423.003 246.791L400.465 242.77Z" fill="black"/>
<path opacity="0.1" d="M408.817 262.086C409.292 262.243 420.518 274.23 425.231 270.603C429.944 266.977 408.817 262.086 408.817 262.086Z" fill="black"/>
<path opacity="0.1" d="M257.627 161.484C257.627 161.484 260.924 184.194 259.299 193.443C257.674 202.693 263.603 214.152 263.603 214.152L257.627 161.484Z" fill="black"/>
<g opacity="0.1">
<path opacity="0.1" d="M116.423 165.493C116.447 165.531 116.48 165.565 116.509 165.603C116.651 165.422 116.799 165.241 116.951 165.07C116.789 165.228 116.612 165.369 116.423 165.493V165.493Z" fill="black"/>
</g>
<path d="M120.443 59.1094C101.469 59.1094 87.8457 71.2928 87.8457 99.7207C87.8457 131.939 101.469 140.467 120.443 140.467C139.416 140.467 153.851 131.127 153.851 99.7207C153.851 66.1487 139.416 59.1094 120.443 59.1094ZM120.567 129.773C107.426 129.773 100.56 122.057 100.56 99.7415C100.56 80.0517 107.707 69.6683 120.848 69.6683C133.99 69.6683 141.137 76.4887 141.137 99.7415C141.137 121.494 133.709 129.773 120.567 129.773Z" fill="#2F2E41"/>
<path d="M76.4845 117.997H68.6396V94.8766C68.6396 93.6485 68.1521 92.4708 67.2845 91.6025C66.4169 90.7341 65.2401 90.2463 64.0131 90.2463H62.1749C61.5674 90.2463 60.9658 90.366 60.4045 90.5987C59.8432 90.8314 59.3332 91.1725 58.9035 91.6025C58.4739 92.0324 58.1332 92.5429 57.9007 93.1046C57.6682 93.6664 57.5485 94.2685 57.5485 94.8766V117.997H35.4207C34.9655 117.997 34.518 117.88 34.1216 117.655C33.7253 117.431 33.3935 117.109 33.1586 116.718C32.9236 116.328 32.7934 115.884 32.7806 115.428C32.7678 114.973 32.8728 114.522 33.0855 114.119L56.5053 69.7554C56.7973 69.2023 56.9742 68.5957 57.0255 67.9723C57.0768 67.3488 57.0014 66.7214 56.8037 66.128C56.606 65.5345 56.2903 64.9873 55.8755 64.5194C55.4606 64.0515 54.9554 63.6725 54.3902 63.4054L53.0077 62.752C51.9342 62.2446 50.7069 62.1697 49.5797 62.5427C48.4525 62.9157 47.5118 63.7082 46.9521 64.756L18.3886 118.235C17.9022 119.145 17.6477 120.162 17.6477 121.195V121.195C17.6477 122.019 17.81 122.836 18.1252 123.597C18.4405 124.359 18.9026 125.051 19.4851 125.634C20.0677 126.217 20.7592 126.68 21.5204 126.995C22.2815 127.311 23.0972 127.473 23.9211 127.473H57.5485V142.093C57.5485 142.822 57.6919 143.544 57.9706 144.217C58.2493 144.891 58.6578 145.503 59.1727 146.018C59.6877 146.533 60.299 146.942 60.9718 147.221C61.6447 147.5 62.3658 147.644 63.094 147.644H63.094C63.8223 147.644 64.5434 147.5 65.2162 147.221C65.889 146.942 66.5004 146.533 67.0153 146.018C67.5303 145.503 67.9387 144.891 68.2174 144.217C68.4961 143.544 68.6396 142.822 68.6396 142.093V127.473H76.4845C77.74 127.473 78.9441 126.974 79.8319 126.086C80.7197 125.197 81.2184 123.992 81.2184 122.735V122.735C81.2184 121.479 80.7197 120.274 79.8319 119.385C78.9441 118.496 77.74 117.997 76.4845 117.997V117.997Z" fill="#01D9AD"/>
<path d="M221.75 117.997H213.905V94.8766C213.905 93.6485 213.418 92.4708 212.55 91.6025C211.683 90.7341 210.506 90.2463 209.279 90.2463H207.441C206.833 90.2463 206.231 90.366 205.67 90.5987C205.109 90.8314 204.599 91.1725 204.169 91.6025C203.74 92.0324 203.399 92.5429 203.166 93.1046C202.934 93.6664 202.814 94.2685 202.814 94.8766V117.997H180.686C180.231 117.997 179.784 117.88 179.387 117.655C178.991 117.431 178.659 117.109 178.424 116.718C178.189 116.328 178.059 115.884 178.046 115.428C178.033 114.973 178.138 114.522 178.351 114.119L201.771 69.7554C202.063 69.2023 202.24 68.5957 202.291 67.9723C202.342 67.3488 202.267 66.7214 202.069 66.128C201.872 65.5345 201.556 64.9873 201.141 64.5194C200.726 64.0515 200.221 63.6725 199.656 63.4054L198.273 62.752C197.2 62.2446 195.973 62.1697 194.845 62.5427C193.718 62.9157 192.777 63.7082 192.218 64.756L163.654 118.235C163.168 119.145 162.913 120.162 162.913 121.195V121.195C162.913 122.86 163.574 124.457 164.751 125.634C165.927 126.812 167.523 127.473 169.187 127.473H202.814V142.093C202.814 143.565 203.398 144.977 204.438 146.018C205.478 147.059 206.889 147.644 208.36 147.644V147.644C209.83 147.644 211.241 147.059 212.281 146.018C213.321 144.977 213.905 143.565 213.905 142.093V127.473H221.75C223.006 127.473 224.21 126.974 225.098 126.086C225.985 125.197 226.484 123.992 226.484 122.735V122.735C226.484 121.479 225.985 120.274 225.098 119.385C224.21 118.496 223.006 117.997 221.75 117.997Z" fill="#01D9AD"/>
<path d="M78.6483 115.286H70.8034V92.1656C70.8034 91.5576 70.6837 90.9555 70.4512 90.3937C70.2187 89.8319 69.8779 89.3215 69.4483 88.8915C69.0187 88.4615 68.5087 88.1205 67.9474 87.8878C67.3861 87.6551 66.7845 87.5353 66.177 87.5353H64.3387C63.1117 87.5353 61.935 88.0232 61.0674 88.8915C60.1997 89.7599 59.7123 90.9376 59.7123 92.1656V115.286H37.5845C37.1293 115.286 36.6818 115.169 36.2855 114.945C35.8891 114.72 35.5574 114.398 35.3224 114.007C35.0874 113.617 34.9572 113.173 34.9444 112.717C34.9316 112.262 35.0366 111.811 35.2493 111.408L58.6691 67.0445C58.9611 66.4914 59.1381 65.8848 59.1894 65.2613C59.2406 64.6379 59.1652 64.0105 58.9675 63.4171C58.7698 62.8236 58.4541 62.2764 58.0393 61.8085C57.6245 61.3405 57.1192 60.9615 56.5541 60.6944L55.1715 60.041C54.098 59.5337 52.8707 59.4587 51.7435 59.8318C50.6164 60.2048 49.6756 60.9972 49.1159 62.0451L20.5524 115.524C20.066 116.434 19.8115 117.451 19.8115 118.484V118.484C19.8115 120.149 20.4725 121.746 21.649 122.923C22.8254 124.101 24.4211 124.762 26.0849 124.762H59.7123V139.382C59.7123 140.111 59.8558 140.833 60.1344 141.506C60.4131 142.18 60.8216 142.792 61.3366 143.307C61.8515 143.822 62.4628 144.231 63.1357 144.51C63.8085 144.789 64.5296 144.933 65.2578 144.933H65.2578C66.7286 144.933 68.1391 144.348 69.1791 143.307C70.2191 142.266 70.8034 140.854 70.8034 139.382V124.762H78.6483C79.27 124.762 79.8855 124.64 80.4599 124.402C81.0343 124.164 81.5561 123.815 81.9957 123.375C82.4353 122.935 82.784 122.412 83.0219 121.838C83.2598 121.263 83.3823 120.647 83.3823 120.024V120.024C83.3823 119.402 83.2598 118.786 83.0219 118.211C82.784 117.636 82.4353 117.114 81.9957 116.674C81.5561 116.234 81.0343 115.885 80.4599 115.647C79.8856 115.409 79.27 115.286 78.6483 115.286V115.286Z" stroke="#3F3D56" stroke-miterlimit="10"/>
<path d="M225.808 115.286H217.963V92.1656C217.963 90.9376 217.476 89.7599 216.608 88.8915C215.74 88.0232 214.564 87.5353 213.337 87.5353H211.498C210.891 87.5353 210.289 87.6551 209.728 87.8878C209.167 88.1205 208.657 88.4615 208.227 88.8915C207.797 89.3215 207.457 89.8319 207.224 90.3937C206.992 90.9555 206.872 91.5576 206.872 92.1656V115.286H184.744C184.289 115.286 183.841 115.169 183.445 114.945C183.049 114.72 182.717 114.398 182.482 114.007C182.247 113.617 182.117 113.173 182.104 112.717C182.091 112.262 182.196 111.811 182.409 111.408L205.829 67.0445C206.121 66.4914 206.298 65.8848 206.349 65.2613C206.4 64.6379 206.325 64.0105 206.127 63.4171C205.929 62.8236 205.614 62.2764 205.199 61.8085C204.784 61.3405 204.279 60.9615 203.714 60.6944L202.331 60.041C201.258 59.5337 200.03 59.4587 198.903 59.8318C197.776 60.2048 196.835 60.9972 196.276 62.0451L167.712 115.524C167.226 116.434 166.971 117.451 166.971 118.484C166.971 120.149 167.632 121.746 168.809 122.923C169.985 124.101 171.581 124.762 173.245 124.762H206.872V139.382C206.872 140.854 207.456 142.266 208.496 143.307C209.536 144.348 210.947 144.933 212.417 144.933V144.933C213.888 144.933 215.299 144.348 216.339 143.307C217.379 142.266 217.963 140.854 217.963 139.382V124.762H225.808C226.43 124.762 227.045 124.64 227.619 124.402C228.194 124.164 228.716 123.815 229.155 123.375C229.595 122.935 229.944 122.412 230.181 121.838C230.419 121.263 230.542 120.647 230.542 120.024V120.024C230.542 118.768 230.043 117.563 229.155 116.674C228.268 115.786 227.063 115.286 225.808 115.286V115.286Z" stroke="#3F3D56" stroke-miterlimit="10"/>
<path d="M124.771 56.6719C105.797 56.6719 92.1741 68.8553 92.1741 97.2832C92.1741 129.501 105.797 138.03 124.771 138.03C143.745 138.03 158.179 128.689 158.179 97.2832C158.179 63.7112 143.745 56.6719 124.771 56.6719ZM124.896 127.336C111.754 127.336 104.888 119.619 104.888 97.304C104.888 77.6142 112.035 67.2308 125.177 67.2308C138.319 67.2308 145.465 74.0512 145.465 97.304C145.465 119.057 138.037 127.336 124.896 127.336V127.336Z" stroke="#3F3D56" stroke-miterlimit="10"/>
<path d="M140.458 51.7615C140.458 51.7615 141.176 53.8322 141.833 53.2809L141.309 50.5742L140.458 51.7615Z" fill="#FBBEBE"/>
<path d="M111.727 97.5775C113.8 97.5775 115.48 95.4012 115.48 92.7165C115.48 90.0318 113.8 87.8555 111.727 87.8555C109.654 87.8555 107.974 90.0318 107.974 92.7165C107.974 95.4012 109.654 97.5775 111.727 97.5775Z" fill="#2F2E41"/>
<path d="M132.148 97.6869C134.221 97.6869 135.901 95.5106 135.901 92.8259C135.901 90.1412 134.221 87.9648 132.148 87.9648C130.075 87.9648 128.395 90.1412 128.395 92.8259C128.395 95.5106 130.075 97.6869 132.148 97.6869Z" fill="#2F2E41"/>
<path d="M129.278 107.188C129.278 109.385 126.214 111.165 122.434 111.165C118.655 111.165 115.59 109.385 115.59 107.188C115.59 105.286 117.889 103.695 120.959 103.306C121.448 103.241 121.941 103.21 122.434 103.211C123.261 103.208 124.085 103.297 124.891 103.476C127.457 104.048 129.278 105.496 129.278 107.188Z" fill="#2F2E41"/>
<path d="M112.61 96.4721C114.683 96.4721 116.363 94.2957 116.363 91.611C116.363 88.9264 114.683 86.75 112.61 86.75C110.537 86.75 108.857 88.9264 108.857 91.611C108.857 94.2957 110.537 96.4721 112.61 96.4721Z" stroke="#3F3D56" stroke-miterlimit="10"/>
<path d="M133.031 96.5854C135.104 96.5854 136.784 94.409 136.784 91.7243C136.784 89.0396 135.104 86.8633 133.031 86.8633C130.958 86.8633 129.278 89.0396 129.278 91.7243C129.278 94.409 130.958 96.5854 133.031 96.5854Z" stroke="#3F3D56" stroke-miterlimit="10"/>
<path d="M123.317 110.064C127.097 110.064 130.161 108.283 130.161 106.087C130.161 103.89 127.097 102.109 123.317 102.109C119.537 102.109 116.473 103.89 116.473 106.087C116.473 108.283 119.537 110.064 123.317 110.064Z" stroke="#3F3D56" stroke-miterlimit="10"/>
<path d="M124.973 103.809C124.975 104.087 124.87 104.355 124.681 104.558C124.592 104.656 124.484 104.734 124.363 104.787C124.242 104.841 124.112 104.869 123.979 104.869H121.772C121.5 104.86 121.243 104.743 121.056 104.544C120.87 104.345 120.77 104.081 120.778 103.809C120.777 103.593 120.84 103.382 120.959 103.203C121.448 103.134 121.941 103.1 122.434 103.102C123.261 103.099 124.086 103.194 124.891 103.384C124.946 103.519 124.973 103.663 124.973 103.809V103.809Z" fill="white"/>
<path d="M112.61 91.3893C113.219 91.3893 113.714 90.8946 113.714 90.2845C113.714 89.6743 113.219 89.1797 112.61 89.1797C112 89.1797 111.506 89.6743 111.506 90.2845C111.506 90.8946 112 91.3893 112.61 91.3893Z" fill="white"/>
<path d="M133.141 91.3893C133.751 91.3893 134.245 90.8946 134.245 90.2845C134.245 89.6743 133.751 89.1797 133.141 89.1797C132.532 89.1797 132.038 89.6743 132.038 90.2845C132.038 90.8946 132.532 91.3893 133.141 91.3893Z" fill="white"/>
<path opacity="0.3" d="M134.245 101.78C134.855 101.78 135.349 101.285 135.349 100.675C135.349 100.065 134.855 99.5703 134.245 99.5703C133.636 99.5703 133.141 100.065 133.141 100.675C133.141 101.285 133.636 101.78 134.245 101.78Z" fill="#4BF927"/>
<path opacity="0.3" d="M107.311 101.78C107.921 101.78 108.415 101.285 108.415 100.675C108.415 100.065 107.921 99.5703 107.311 99.5703C106.702 99.5703 106.208 100.065 106.208 100.675C106.208 101.285 106.702 101.78 107.311 101.78Z" fill="#4BF927"/>
</g>
<defs>
<linearGradient id="paint0_linear" x1="346.824" y1="45.3492" x2="346.824" y2="36.6133" gradientUnits="userSpaceOnUse">
<stop stop-color="#808080" stop-opacity="0.25"/>
<stop offset="0.54" stop-color="#808080" stop-opacity="0.12"/>
<stop offset="1" stop-color="#808080" stop-opacity="0.1"/>
</linearGradient>
<clipPath id="clip0">
<rect width="516" height="372" fill="white"/>
</clipPath>
</defs>
</svg>
