<svg width="744" height="536" viewBox="0 0 744 536" fill="none" xmlns="http://www.w3.org/2000/svg">
<g clip-path="url(#clip0)">
<path opacity="0.1" d="M432.277 94.5297C384.58 92.8724 339.117 77.4773 295.77 60.6372C252.423 43.7971 209.46 25.1354 162.88 16.212C132.931 10.4662 98.6812 9.65809 74.5555 25.7106C51.334 41.1537 43.8332 67.8143 39.7985 92.5506C36.764 111.164 35.0035 130.751 43.2989 148.18C49.0735 160.274 59.3211 170.444 66.4108 182.031C91.0709 222.347 73.6376 272.066 46.9089 311.465C34.3733 329.956 19.8308 347.549 10.1586 367.211C0.486341 386.872 -3.99356 409.396 4.47305 429.448C12.8643 449.309 32.8526 464.252 54.5124 474.75C98.5031 496.055 150.337 502.151 200.883 505.643C312.771 513.293 425.262 509.978 537.445 506.664C578.963 505.431 620.666 504.191 661.505 497.761C684.186 494.193 707.606 488.536 724.073 474.88C744.973 457.54 750.158 428.188 736.15 406.445C712.654 369.984 647.696 360.924 631.269 321.792C622.234 300.254 631.516 276.258 644.654 256.281C672.828 213.431 720.066 175.833 722.553 126.847C724.265 93.2011 701.557 59.5141 666.444 43.5917C629.646 26.8885 578.613 28.9978 551.467 56.6035C523.512 85.0448 474.384 95.9884 432.277 94.5297Z" fill="#4BF927"/>
<path d="M531.938 250.248C531.938 250.248 555.159 209.123 590.163 197.275C604.861 192.395 617.58 182.882 626.413 170.163C630.555 164.082 634.13 157.633 637.092 150.898" stroke="#535461" stroke-width="2" stroke-miterlimit="10"/>
<path d="M659.067 143.363C655.08 147.225 636.523 151.225 636.523 151.225C636.523 151.225 641.079 132.803 645.065 128.933C646.99 127.132 649.545 126.158 652.18 126.222C654.815 126.285 657.32 127.38 659.156 129.272C660.991 131.164 662.01 133.7 661.994 136.336C661.977 138.971 660.926 141.494 659.067 143.363Z" fill="#4BF927"/>
<path d="M648.573 176.666C643.093 177.748 625.372 171.023 625.372 171.023C625.372 171.023 639.209 158.011 644.654 156.95C645.962 156.66 647.314 156.634 648.632 156.873C649.95 157.113 651.207 157.613 652.328 158.345C653.45 159.077 654.414 160.025 655.164 161.134C655.914 162.244 656.435 163.492 656.696 164.805C656.957 166.119 656.953 167.471 656.684 168.783C656.415 170.094 655.887 171.339 655.13 172.444C654.373 173.549 653.404 174.492 652.277 175.217C651.151 175.942 649.892 176.434 648.573 176.666V176.666Z" fill="#4BF927"/>
<path d="M610.377 212.743C605.13 210.928 593.204 196.163 593.204 196.163C593.204 196.163 611.699 191.93 616.96 193.745C618.224 194.164 619.392 194.83 620.396 195.705C621.401 196.579 622.221 197.644 622.811 198.838C623.4 200.032 623.747 201.331 623.83 202.659C623.913 203.988 623.731 205.32 623.295 206.578C622.86 207.836 622.178 208.995 621.29 209.988C620.403 210.98 619.327 211.787 618.125 212.36C616.923 212.934 615.619 213.263 614.289 213.329C612.959 213.394 611.629 213.195 610.377 212.743V212.743Z" fill="#4BF927"/>
<path d="M575.277 233.538C569.797 232.634 555.577 220.068 555.577 220.068C555.577 220.068 573.106 212.767 578.579 213.671C581.213 214.104 583.568 215.566 585.124 217.735C586.68 219.903 587.311 222.601 586.878 225.235C586.444 227.868 584.982 230.222 582.813 231.778C580.644 233.334 577.946 233.965 575.312 233.531L575.277 233.538Z" fill="#4BF927"/>
<path d="M609.897 156.624C609.891 162.178 619.967 178.292 619.967 178.292C619.967 178.292 630.03 162.199 630.03 156.652C630.065 155.31 629.831 153.975 629.341 152.725C628.852 151.475 628.117 150.335 627.18 149.374C626.243 148.412 625.123 147.648 623.886 147.127C622.649 146.605 621.32 146.336 619.977 146.336C618.635 146.336 617.306 146.605 616.069 147.127C614.831 147.648 613.711 148.412 612.775 149.374C611.838 150.335 611.103 151.475 610.613 152.725C610.124 153.975 609.89 155.31 609.925 156.652L609.897 156.624Z" fill="#4BF927"/>
<path d="M569.188 181.452C570.845 186.753 585.258 199.114 585.258 199.114C585.258 199.114 590.053 180.747 588.381 175.446C587.515 172.991 585.729 170.967 583.399 169.801C581.07 168.636 578.379 168.419 575.893 169.198C573.407 169.976 571.321 171.689 570.072 173.974C568.824 176.26 568.512 178.941 569.201 181.452H569.188Z" fill="#4BF927"/>
<path d="M532.972 211.017C533.711 216.496 545.822 231.131 545.822 231.131C545.822 231.131 553.638 213.839 552.898 208.34C552.752 207.007 552.34 205.718 551.687 204.547C551.035 203.376 550.154 202.347 549.098 201.521C548.042 200.695 546.831 200.089 545.537 199.738C544.243 199.387 542.892 199.298 541.563 199.476C540.235 199.655 538.955 200.097 537.8 200.778C536.644 201.458 535.637 202.362 534.836 203.438C534.036 204.513 533.458 205.738 533.138 207.039C532.818 208.341 532.761 209.693 532.972 211.017V211.017Z" fill="#4BF927"/>
<path opacity="0.25" d="M659.067 143.363C655.08 147.225 636.523 151.225 636.523 151.225C636.523 151.225 641.079 132.803 645.065 128.933C646.99 127.132 649.545 126.158 652.18 126.222C654.815 126.285 657.32 127.38 659.156 129.272C660.991 131.164 662.01 133.7 661.994 136.336C661.977 138.971 660.926 141.494 659.067 143.363Z" fill="black"/>
<path opacity="0.25" d="M648.573 176.666C643.093 177.748 625.372 171.023 625.372 171.023C625.372 171.023 639.209 158.011 644.654 156.95C645.962 156.66 647.314 156.634 648.632 156.873C649.95 157.113 651.207 157.613 652.328 158.345C653.45 159.077 654.414 160.025 655.164 161.134C655.914 162.244 656.435 163.492 656.696 164.805C656.957 166.119 656.953 167.471 656.684 168.783C656.415 170.094 655.887 171.339 655.13 172.444C654.373 173.549 653.404 174.492 652.277 175.217C651.151 175.942 649.892 176.434 648.573 176.666V176.666Z" fill="black"/>
<path opacity="0.25" d="M610.377 212.743C605.13 210.928 593.204 196.163 593.204 196.163C593.204 196.163 611.699 191.93 616.96 193.745C618.224 194.164 619.392 194.83 620.396 195.705C621.401 196.579 622.221 197.644 622.811 198.838C623.4 200.032 623.747 201.331 623.83 202.659C623.913 203.988 623.731 205.32 623.295 206.578C622.86 207.836 622.178 208.995 621.29 209.988C620.403 210.98 619.327 211.787 618.125 212.36C616.923 212.934 615.619 213.263 614.289 213.329C612.959 213.394 611.629 213.195 610.377 212.743V212.743Z" fill="black"/>
<path opacity="0.25" d="M575.277 233.538C569.797 232.634 555.577 220.068 555.577 220.068C555.577 220.068 573.106 212.767 578.579 213.671C581.213 214.104 583.568 215.566 585.124 217.735C586.68 219.903 587.311 222.601 586.878 225.235C586.444 227.868 584.982 230.222 582.813 231.778C580.644 233.334 577.946 233.965 575.312 233.531L575.277 233.538Z" fill="black"/>
<path opacity="0.25" d="M609.897 156.624C609.891 162.178 619.967 178.292 619.967 178.292C619.967 178.292 630.03 162.199 630.03 156.652C630.065 155.31 629.831 153.975 629.341 152.725C628.852 151.475 628.117 150.335 627.18 149.374C626.243 148.412 625.123 147.648 623.886 147.127C622.649 146.605 621.32 146.336 619.977 146.336C618.635 146.336 617.306 146.605 616.069 147.127C614.831 147.648 613.711 148.412 612.775 149.374C611.838 150.335 611.103 151.475 610.613 152.725C610.124 153.975 609.89 155.31 609.925 156.652L609.897 156.624Z" fill="black"/>
<path opacity="0.25" d="M569.188 181.452C570.845 186.753 585.258 199.114 585.258 199.114C585.258 199.114 590.053 180.747 588.381 175.446C587.515 172.991 585.729 170.967 583.399 169.801C581.07 168.636 578.379 168.419 575.893 169.198C573.407 169.976 571.321 171.689 570.072 173.974C568.824 176.26 568.512 178.941 569.201 181.452H569.188Z" fill="black"/>
<path opacity="0.25" d="M532.972 211.017C533.711 216.496 545.822 231.131 545.822 231.131C545.822 231.131 553.638 213.839 552.898 208.34C552.752 207.007 552.34 205.718 551.687 204.547C551.035 203.376 550.154 202.347 549.098 201.521C548.042 200.695 546.831 200.089 545.537 199.738C544.243 199.387 542.892 199.298 541.563 199.476C540.235 199.655 538.955 200.097 537.8 200.778C536.644 201.458 535.637 202.362 534.836 203.438C534.036 204.513 533.458 205.738 533.138 207.039C532.818 208.341 532.761 209.693 532.972 211.017V211.017Z" fill="black"/>
<path d="M533.273 249.431C533.273 249.431 537.835 202.424 565.002 177.428C576.461 167.01 584.234 153.16 587.155 137.954C588.485 130.725 589.147 123.389 589.135 116.039" stroke="#535461" stroke-width="2" stroke-miterlimit="10"/>
<path d="M606.164 100.177C604.109 105.327 588.738 116.504 588.738 116.504C588.738 116.504 585.436 97.8144 587.511 92.6645C588.511 90.1916 590.451 88.2168 592.907 87.1746C595.363 86.1324 598.132 86.1081 600.605 87.107C603.079 88.106 605.054 90.0464 606.096 92.5014C607.139 94.9563 607.163 97.7248 606.164 100.198V100.177Z" fill="#4BF927"/>
<path d="M610.075 134.912C605.534 138.104 586.58 139.151 586.58 139.151C586.58 139.151 593.964 121.661 598.506 118.469C599.583 117.664 600.811 117.082 602.117 116.759C603.423 116.436 604.78 116.378 606.109 116.589C607.437 116.8 608.71 117.276 609.852 117.987C610.993 118.699 611.98 119.632 612.755 120.732C613.529 121.832 614.075 123.076 614.359 124.391C614.644 125.705 614.662 127.064 614.412 128.385C614.162 129.707 613.65 130.965 612.905 132.085C612.16 133.205 611.198 134.164 610.075 134.905V134.912Z" fill="#4BF927"/>
<path d="M589.758 183.384C584.223 183.85 567.331 175.166 567.331 175.166C567.331 175.166 582.538 163.798 588.073 163.332C590.731 163.109 593.369 163.95 595.406 165.671C597.444 167.392 598.714 169.852 598.937 172.509C599.161 175.166 598.319 177.803 596.598 179.84C594.876 181.877 592.416 183.147 589.758 183.37V183.384Z" fill="#4BF927"/>
<path d="M566.119 216.594C560.742 217.963 542.63 212.3 542.63 212.3C542.63 212.3 555.693 198.528 561.071 197.131C563.652 196.461 566.394 196.845 568.693 198.196C570.992 199.548 572.659 201.757 573.329 204.338C573.998 206.919 573.615 209.66 572.263 211.959C570.911 214.257 568.701 215.924 566.119 216.594V216.594Z" fill="#4BF927"/>
<path d="M566.598 132.257C568.845 137.331 584.559 148.008 584.559 148.008C584.559 148.008 587.231 129.216 584.984 124.141C583.864 121.767 581.86 119.925 579.4 119.008C576.94 118.091 574.219 118.173 571.818 119.235C569.417 120.298 567.527 122.257 566.552 124.694C565.577 127.131 565.593 129.852 566.598 132.277V132.257Z" fill="#4BF927"/>
<path d="M539.445 171.44C543.11 175.611 561.29 181.076 561.29 181.076C561.29 181.076 558.221 162.346 554.556 158.175C553.691 157.162 552.633 156.331 551.444 155.73C550.255 155.129 548.959 154.77 547.63 154.674C546.301 154.579 544.966 154.748 543.703 155.173C542.44 155.597 541.274 156.268 540.273 157.147C539.272 158.026 538.455 159.095 537.871 160.292C537.286 161.49 536.946 162.791 536.869 164.121C536.792 165.451 536.98 166.782 537.422 168.039C537.864 169.296 538.552 170.452 539.445 171.44V171.44Z" fill="#4BF927"/>
<path d="M518.285 213.162C521.19 217.887 538.185 226.345 538.185 226.345C538.185 226.345 538.328 207.368 535.445 202.636C534.009 200.451 531.779 198.911 529.226 198.342C526.674 197.774 524.001 198.222 521.773 199.591C519.546 200.96 517.939 203.143 517.294 205.676C516.65 208.21 517.017 210.895 518.32 213.162H518.285Z" fill="#4BF927"/>
<path d="M498.338 65.3373C499.475 61.1666 500.845 56.9754 501.804 52.75C500.653 56.9754 499.277 61.1803 498.338 65.3373Z" fill="url(#paint0_linear)"/>
<path d="M343.569 206.1L339.459 207.915C339.459 207.915 312.669 311.969 312.669 320.379C312.669 328.788 369.476 375.583 369.476 375.583L378.34 315.77C378.34 315.77 365.612 178.604 343.569 206.1Z" fill="#E8F5FF"/>
<path d="M468.177 173.001L444.442 160.619C443.113 154.953 440.754 149.58 437.483 144.765C434.01 139.752 429.393 134.829 423.639 132.26C409.096 125.741 485.152 91.5195 485.152 91.5195C486.35 95.6305 487.76 99.6764 489.378 103.641C493.296 113.311 499.797 125.816 508.175 129.377C522.416 135.438 468.177 173.001 468.177 173.001Z" fill="#FFC1C7"/>
<path opacity="0.1" d="M489.378 103.641C486.128 115.068 479.371 125.185 470.059 132.564C460.747 139.943 449.352 144.211 437.483 144.766C434.01 139.753 429.393 134.829 423.639 132.26C409.096 125.741 485.152 91.5195 485.152 91.5195C486.35 95.6305 487.76 99.6764 489.378 103.641V103.641Z" fill="black"/>
<path d="M491.515 86.366C491.518 97.5724 488.196 108.528 481.971 117.847C475.745 127.166 466.895 134.43 456.54 138.72C446.185 143.01 434.789 144.134 423.795 141.949C412.801 139.764 402.702 134.368 394.776 126.444C386.849 118.521 381.451 108.425 379.264 97.4336C377.077 86.4425 378.2 75.0499 382.49 64.6966C386.779 54.3433 394.044 45.4945 403.364 39.2692C412.685 33.0439 423.643 29.7219 434.852 29.7233C442.302 29.6888 449.685 31.1304 456.575 33.9646C463.465 36.7989 469.725 40.9698 474.993 46.2363C480.262 51.5028 484.434 57.7607 487.27 64.6485C490.106 71.5363 491.549 78.9176 491.515 86.366V86.366Z" fill="#FFC1C7"/>
<path d="M499.694 165.73L484.241 201.779L470.609 225.707H426.975L414.247 192.993L419.405 159.066H452.731L474.247 157.854L481.514 155.43L486.2 158.087L499.694 165.73Z" fill="#575A89"/>
<path opacity="0.1" d="M494.372 117.674C494.372 117.674 504.01 119.729 495.379 126.803C486.748 133.877 456.971 156.374 456.971 156.374C456.971 156.374 467.431 165.688 465.266 176.597L499.92 157.285L506.085 126.385C506.085 126.385 506.777 117.099 494.372 117.674Z" fill="black"/>
<path opacity="0.1" d="M463.787 156.375L441.743 160.011C441.743 160.011 446.292 176.824 444.018 181.597C443.949 181.746 443.892 181.899 443.846 182.056L434.852 206.361L441.593 225.447L464.924 193.637L456.971 181.597C456.971 181.597 465.376 170.462 470.376 166.6C475.377 162.737 463.787 156.375 463.787 156.375Z" fill="black"/>
<path d="M463.787 155.438L441.743 159.067C441.743 159.067 446.292 175.88 444.018 180.653C443.949 180.802 443.892 180.955 443.846 181.112L434.852 205.417L441.593 224.503L464.924 192.672L456.971 180.633C456.971 180.633 465.376 169.497 470.376 165.635C475.377 161.772 463.787 155.438 463.787 155.438Z" fill="#DCE6F2"/>
<path d="M495.297 115.862C495.297 115.862 504.935 117.916 496.297 124.99C487.659 132.065 456.971 156.376 456.971 156.376C456.971 156.376 468.335 163.875 466.177 174.778L500.832 155.472L506.997 124.573C506.997 124.573 507.682 115.286 495.297 115.862Z" fill="#575A89"/>
<path opacity="0.1" d="M438.997 146.91C438.997 146.91 441.1 150.841 450.381 157.929C450.381 157.929 434.928 166.147 440.839 177.7L417.2 171.537L413.562 160.175L438.997 146.91Z" fill="black"/>
<path d="M438.085 146.008C438.085 146.008 440.188 149.939 449.47 157.027C449.47 157.027 434.017 165.204 439.928 176.791L416.296 170.628L412.658 159.273L438.085 146.008Z" fill="#575A89"/>
<path opacity="0.1" d="M499.694 165.729L484.241 201.778L470.637 225.707H426.975L414.247 192.992L419.399 159.065H428.667C428.516 166.982 431.407 176.282 431.222 179.74C430.907 185.425 439.702 216.091 439.702 216.091C439.702 216.091 458.108 186.329 465.376 183.678C469.945 182.014 479.624 168.167 486.193 158.086L499.694 165.729Z" fill="black"/>
<path d="M560.571 355.437L559.002 357.409C559.002 357.409 570.366 414.436 567.222 427.386C566.687 429.72 566.382 432.101 566.311 434.494V434.597C565.756 447.773 569.736 464.874 569.736 464.874C569.736 464.874 572.914 515.278 571.106 536.007H358.331C357.084 505.354 355.742 465.641 356.961 461.237C359.016 453.971 363.126 427.612 363.126 427.612L363.578 415.12C363.578 415.12 363.578 403.047 363.948 389.597C364.105 383.549 364.338 377.201 364.674 371.572C365.106 364.49 365.708 358.526 366.537 355.594C367.048 353.373 367.341 351.107 367.414 348.828C367.414 348.616 367.414 348.397 367.455 348.178C367.455 347.493 367.524 346.753 367.551 345.993C367.551 345.781 367.551 345.568 367.551 345.308C367.681 340.898 367.633 335.666 367.489 330.242C367.489 329.947 367.489 329.646 367.489 329.345C367.373 325.277 367.202 321.127 367.01 317.182C366.414 304.855 365.64 294.432 365.64 294.432L339.507 207.869L346.549 190.529L366.092 178.558L402.226 156.746C419.851 142.261 431.455 144.001 435.88 145.59C436.31 145.736 436.73 145.908 437.14 146.103C437.277 146.172 437.387 146.227 437.49 146.288C437.63 146.355 437.766 146.433 437.894 146.521V146.521C436.682 147.104 435.629 147.971 434.825 149.048C433.919 150.274 433.273 151.672 432.928 153.157C432.696 154.077 432.534 155.014 432.441 155.958C432.352 156.951 432.318 157.978 432.318 159.012C432.367 161.28 432.561 163.543 432.9 165.785C432.9 165.827 432.9 165.881 432.9 165.936C433.126 167.539 433.407 169.107 433.681 170.579C433.678 170.604 433.678 170.63 433.681 170.655C433.996 172.374 434.311 173.962 434.524 175.332C434.565 175.579 434.599 175.805 434.633 176.017C434.784 176.922 434.855 177.839 434.846 178.756C434.923 180.972 435.221 183.174 435.736 185.331C435.914 186.235 436.12 187.2 436.346 188.207C436.654 189.577 436.99 191.07 437.353 192.59C437.551 193.425 437.764 194.288 437.983 195.144C438.065 195.487 438.154 195.829 438.236 196.178L438.373 196.72C439.832 202.52 441.415 208.293 442.387 211.786C442.963 213.84 443.326 215.107 443.326 215.107C443.326 215.107 453.642 198.432 461.876 188.94C461.999 188.803 462.109 188.673 462.225 188.549C463.04 187.611 463.842 186.755 464.609 186.002C466.287 184.331 467.794 183.139 469.007 182.701C469.265 182.606 469.515 182.489 469.753 182.352C473.123 180.441 478.562 173.504 483.652 166.237C484.152 165.553 484.638 164.806 485.131 164.101C486.262 162.471 487.358 160.834 488.392 159.266C489.187 158.067 489.947 156.903 490.666 155.794C494.091 150.466 496.502 146.494 496.502 146.494L501.256 146.281L502.085 146.24H502.64L524.224 145.24C524.224 145.24 525.156 145.398 526.69 145.706C526.773 145.706 526.855 145.706 526.944 145.761C534.602 147.281 555.878 152.096 557.18 158.773C558.769 166.95 593.088 177.859 593.088 177.859C593.54 183.338 601.945 186.947 601.945 186.947C601.945 186.947 614.672 220.572 611.267 233.749C607.904 246.76 620.022 278.948 620.344 279.852L618.022 282.783L560.571 355.437Z" fill="#E8F5FF"/>
<path opacity="0.1" d="M494.365 115.287C494.365 115.287 515.374 109.329 520.149 121.594C524.923 133.859 535.602 183.394 535.602 183.394C535.602 183.394 507.873 188.619 500.605 183.394C496.342 180.292 491.066 178.913 485.83 179.531L470.15 190.208L465.52 188.838C465.52 188.838 490.604 151.556 496.057 138.886C501.51 126.217 503.352 120.553 494.365 115.287Z" fill="black"/>
<path d="M493.454 112.544C493.454 112.544 514.477 106.586 519.272 118.852C524.067 131.117 534.725 180.651 534.725 180.651C534.725 180.651 507.003 185.877 499.729 180.651C495.468 177.55 490.194 176.171 484.96 176.789L469.267 187.465L464.636 186.096C464.636 186.096 489.721 148.813 495.173 136.144C500.626 123.474 502.441 117.825 493.454 112.544Z" fill="#E8F5FF"/>
<path opacity="0.1" d="M352.433 310.156C352.433 310.156 368.113 314.019 371.072 322.88C374.031 331.742 359.482 331.968 359.482 331.968C359.482 331.968 350.618 316.292 352.433 310.156Z" fill="black"/>
<path opacity="0.1" d="M410.836 375.586C410.836 375.586 372.435 454.198 381.299 461.697C390.163 469.196 410.836 375.586 410.836 375.586Z" fill="black"/>
<path opacity="0.1" d="M463.787 317.656C463.787 317.656 494.468 394.015 488.33 405.808C482.193 417.601 501.51 405.808 501.51 405.808L463.787 317.656Z" fill="black"/>
<path d="M506.51 393.082C506.51 393.082 402.883 398.081 433.112 430.344C463.341 462.607 525.375 431.714 525.375 431.714L506.51 393.082Z" fill="#FFC1C7"/>
<path opacity="0.1" d="M491.516 86.3662C491.525 93.7968 490.065 101.156 487.221 108.021C486.268 108.13 485.316 108.199 484.398 108.24C483.028 105.233 483.761 101.761 483.789 98.4535C483.816 95.1458 482.597 91.2559 479.412 90.3656C473.062 88.5782 468.678 100.446 462.417 98.3029C457.622 96.6729 458.875 89.4 456.115 85.202C453.93 81.8805 449.552 80.9423 446.148 78.8604C438.907 74.4158 439.127 67.3072 435.763 60.5821C432.242 53.5352 424.803 55.6171 418.344 59.774C413.439 62.938 409.206 67.1771 403.959 69.6973C399.417 71.8888 394.314 72.6832 389.279 72.7996C386.18 72.9197 383.079 72.5921 380.073 71.8271C383.609 58.5371 391.859 46.9866 403.285 39.3294C414.711 31.6723 428.532 28.4313 442.172 30.2109C455.812 31.9905 468.338 38.6691 477.416 49.0014C486.494 59.3336 491.503 72.6141 491.509 86.3662H491.516Z" fill="black"/>
<path d="M418.364 57.9575C413.453 61.1214 409.227 65.3537 403.979 67.8876C399.438 70.0722 394.335 70.8666 389.3 70.9831C383.135 71.12 376.497 70.038 372.284 65.5866C368.414 61.4775 367.489 55.1565 369.127 49.7669C370.764 44.3772 374.689 39.9052 379.299 36.666C383.909 33.4267 389.259 31.1873 392.314 26.5509C393.93 24.0992 394.711 21.2092 396.054 18.6C400.349 10.2519 410.007 5.73195 419.344 5.17039C428.681 4.60882 437.935 7.38925 446.826 10.4025C455.718 13.4158 464.677 16.7304 474.062 17.3536C478.24 17.6138 482.583 17.3536 486.46 18.9356C491.673 21.0517 495.091 26.1127 497.42 31.2626C500.03 37.07 501.654 43.4116 501.38 49.7532C500.804 63.2924 491.858 76.5782 495.79 89.5489C496.831 93.0074 498.784 96.5548 497.742 100.013C496.222 105.06 489.707 106.211 484.44 106.451C483.07 103.444 483.803 99.9653 483.83 96.6644C483.857 93.3635 482.638 89.4668 479.46 88.5765C473.103 86.8028 468.719 98.6504 462.472 96.5137C457.711 94.877 458.944 87.6109 456.176 83.4128C453.991 80.0845 449.607 79.1531 446.21 77.0712C438.969 72.6267 439.188 65.5181 435.825 58.793C432.277 51.7118 424.831 53.7937 418.364 57.9575Z" fill="#99607E"/>
<path d="M317.881 318.559L312.655 320.381C312.655 320.381 314.71 351.281 307.86 360.142C301.01 369.004 330.355 391.035 330.355 391.035C330.355 391.035 370.578 390.809 371.716 387.611C372.853 384.413 369.661 330.359 369.661 330.359C369.661 330.359 348.069 321.949 349.885 308.547C349.885 308.547 343.295 340.125 333.527 338.762C323.759 337.399 312.668 329.243 317.881 318.559Z" fill="#E8F5FF"/>
<path opacity="0.1" d="M335.315 348.321C342.93 348.321 349.104 342.676 349.104 335.713C349.104 328.75 342.93 323.105 335.315 323.105C327.699 323.105 321.526 328.75 321.526 335.713C321.526 342.676 327.699 348.321 335.315 348.321Z" fill="black"/>
<path d="M350.392 319.47C350.392 319.47 347.652 235.865 323.8 254.492C299.948 273.12 299.715 295.398 304.257 301.979C308.798 308.56 323.361 341.508 323.361 341.508C325.639 342.827 328.198 343.589 330.827 343.73C333.456 343.871 336.081 343.387 338.487 342.318C340.893 341.248 343.012 339.625 344.669 337.579C346.326 335.534 347.475 333.125 348.022 330.55L350.392 319.47Z" fill="#FFC1C7"/>
<path opacity="0.1" d="M499.18 107.699C499.069 107.331 498.855 107.004 498.564 106.754C497.386 105.679 494.851 105.302 491.029 105.631L491.187 107.439C496.283 107 497.29 108.014 497.42 108.185V108.356L497.578 108.582C498.213 109.436 498.663 110.413 498.899 111.451C499.135 112.489 499.152 113.564 498.948 114.609C497.831 120.19 490.974 124.635 490.906 124.683L490.741 124.779L490.639 124.936C487.679 129.326 470.945 141.715 466.568 144.92L466.184 144.481C464.225 146.18 447.004 161.253 446.072 167.026C445.47 170.649 441.387 172.053 439.907 172.443C438.346 171.258 433.277 167.225 430.639 162.705C428.166 158.452 438.12 150.152 438.996 146.912L437.626 145.509C437.482 146.029 424.7 157.973 428.256 164.074C431.105 168.971 436.311 173.162 438.133 174.546C437.551 179.833 433.927 210.876 428.358 218.231C421.44 227.374 415.624 273.449 416.268 289.536C416.837 303.829 413.103 330.825 400.636 342.419C398.478 344.514 395.874 346.095 393.019 347.044C390.164 347.993 387.132 348.285 384.148 347.898H383.998H383.847C383.669 347.898 365.585 349.747 350.391 336.941C337.959 326.483 330.917 309.417 329.451 286.201H329.15L329.026 279.442C332.397 278.916 335.433 277.104 337.496 274.387C339.559 271.67 340.488 268.26 340.088 264.872C339.689 261.485 337.991 258.384 335.353 256.222C332.715 254.059 329.34 253.003 325.94 253.275C322.539 253.548 319.376 255.128 317.116 257.683C314.855 260.238 313.673 263.569 313.819 266.977C313.964 270.385 315.424 273.604 317.894 275.958C320.363 278.311 323.649 279.617 327.06 279.599H327.211L327.334 286.318L326.732 286.359C328.239 310.328 335.637 328.058 348.652 339.009C358.544 347.204 371.18 351.338 384.004 350.576C384.914 350.675 385.829 350.725 386.744 350.726C392.623 350.757 398.279 348.482 402.5 344.392C415.631 332.167 419.625 304.178 419.001 289.399C418.316 272.354 424.419 227.935 430.543 219.847C436.544 211.91 440.181 180.983 440.818 174.991C442.99 174.381 447.901 172.457 448.737 167.458C449.34 163.842 460.841 152.699 467.917 146.529L467.705 146.282C471.513 143.502 483.357 134.736 489.227 129.107C491.05 127.36 492.858 125.614 494.749 123.95C497.023 121.937 499.913 118.738 500.674 114.958C500.933 113.71 500.934 112.423 500.677 111.174C500.421 109.926 499.911 108.743 499.18 107.699V107.699Z" fill="black"/>
<path d="M437.901 174.11C437.613 173.912 430.79 169.029 427.372 163.153C423.824 157.051 436.606 145.114 436.743 144.594L438.113 145.998C437.243 149.23 427.29 157.537 429.763 161.783C432.88 167.145 439.442 171.837 439.51 171.884L437.901 174.11Z" fill="#353146"/>
<path d="M465.677 146.245L464.609 144.773C464.828 144.615 486.344 129.056 489.735 124.022L489.844 123.871L490.002 123.769C490.07 123.721 496.927 119.283 498.044 113.695C498.25 112.651 498.234 111.576 497.998 110.539C497.762 109.502 497.311 108.527 496.674 107.675L496.516 107.442V107.278C496.379 107.1 495.372 106.093 490.276 106.531L490.118 104.717C493.947 104.388 496.475 104.764 497.653 105.84C497.946 106.092 498.162 106.422 498.276 106.792C499.017 107.833 499.537 109.015 499.803 110.264C500.069 111.514 500.077 112.805 499.825 114.058C499.064 117.845 496.18 121.043 493.899 123.05C492.016 124.714 490.2 126.474 488.385 128.206C481.501 134.801 466.431 145.704 465.677 146.245Z" fill="#E8F5FF"/>
<path d="M328.143 277.057L326.328 277.09L326.53 288.121L328.345 288.087L328.143 277.057Z" fill="#E8F5FF"/>
<path d="M326.177 278.726C333.497 278.726 339.432 272.793 339.432 265.474C339.432 258.156 333.497 252.223 326.177 252.223C318.856 252.223 312.922 258.156 312.922 265.474C312.922 272.793 318.856 278.726 326.177 278.726Z" fill="#4BF927"/>
<path d="M326.177 276.483C332.256 276.483 337.185 271.556 337.185 265.478C337.185 259.4 332.256 254.473 326.177 254.473C320.097 254.473 315.169 259.4 315.169 265.478C315.169 271.556 320.097 276.483 326.177 276.483Z" fill="#E8F5FF"/>
<path d="M385.882 349.844C384.966 349.845 384.052 349.797 383.142 349.7C370.318 350.455 357.685 346.322 347.789 338.133C334.774 327.176 327.389 309.466 325.869 285.476L328.609 285.305C330.075 308.521 337.116 325.594 349.556 336.044C364.749 348.816 382.826 347.002 383.005 347.002H383.155H383.306C386.29 347.386 389.323 347.094 392.179 346.145C395.035 345.196 397.64 343.617 399.801 341.523C412.261 329.929 415.994 302.932 415.426 288.64C414.741 272.539 420.556 226.464 427.482 217.328C433.544 209.322 437.305 173.238 437.346 172.875L437.448 171.848L438.462 171.67C438.524 171.67 444.442 170.547 445.182 166.123C446.141 160.357 463.335 145.283 465.287 143.578L467.075 145.633C459.971 151.796 448.47 162.945 447.895 166.568C447.059 171.581 442.148 173.499 439.983 174.101C439.298 180.1 435.688 211.021 429.708 218.958C423.584 227.046 417.481 271.464 418.166 288.51C418.755 303.289 414.802 331.285 401.671 343.502C397.443 347.603 391.773 349.88 385.882 349.844Z" fill="#353146"/>
<g opacity="0.1">
<path opacity="0.1" d="M497.352 70.1731C498.475 66.023 499.831 61.8455 500.777 57.6406C499.646 61.8661 498.283 66.023 497.352 70.1731Z" fill="black"/>
<path opacity="0.1" d="M485.892 102.786C484.522 99.7799 485.255 96.301 485.282 93C485.309 89.6991 484.09 85.8367 480.912 84.9121C474.555 83.1384 470.171 94.9929 463.924 92.8494C459.129 91.2126 460.396 83.9465 457.628 79.7485C455.443 76.4202 451.066 75.4888 447.669 73.4069C440.421 68.9623 440.64 61.8537 437.284 55.1287C433.756 48.0749 426.324 50.1568 419.857 54.3206C414.946 57.4845 410.72 61.7236 405.472 64.2507C400.931 66.4353 395.828 67.2297 390.793 67.3461C384.662 67.4899 377.99 66.401 373.777 61.9496C370.531 58.5254 369.359 53.5056 370.031 48.8008C369.914 49.1227 369.811 49.4445 369.709 49.7664C368.065 55.1561 369.024 61.4908 372.866 65.5861C377.079 70.0375 383.751 71.1196 389.882 70.9826C394.923 70.8662 400.02 70.0718 404.568 67.8871C409.829 65.3532 414.056 61.121 418.953 57.957C425.42 53.7932 432.859 51.7113 436.38 58.7651C439.736 65.4902 439.524 72.5988 446.764 77.0434C450.189 79.0979 454.539 80.0567 456.731 83.385C459.471 87.5967 458.259 94.8491 463.026 96.4859C469.267 98.6225 473.651 86.7749 480.007 88.5486C483.186 89.4389 484.412 93.3425 484.378 96.6365C484.343 99.9306 483.631 103.416 484.987 106.423C490.255 106.183 496.769 105.053 498.297 99.9854C498.507 99.2581 498.604 98.5028 498.585 97.7459C496.358 101.588 490.632 102.574 485.892 102.786Z" fill="black"/>
</g>
<path opacity="0.1" d="M609.692 271.529L617.645 279.939C617.645 279.939 624.009 326.282 627.187 330.617C630.365 334.952 637.873 352.196 630.824 365.146C630.824 365.146 628.55 372.193 629.913 375.145C631.276 378.097 619.693 392.869 619.693 392.869C619.693 392.869 604.465 406.497 601.28 408.544C598.095 410.592 581.285 426.946 575.606 427.172C569.928 427.398 568.071 434.445 568.071 434.445L536.027 435.582C536.027 435.582 518.327 434.657 514.477 437.157C514.477 437.157 516.532 410.12 496.756 392.396L521.978 383.308C521.978 383.308 531.527 379.199 534.479 374.905C536.336 372.273 538.971 370.288 542.014 369.228C542.014 369.228 549.056 364.229 549.282 361.503C549.508 358.778 557.892 355.435 557.892 355.435L553.145 314.927L555.645 247.677C555.645 247.677 563.598 191.328 580.415 194.513C597.232 197.697 609.692 271.529 609.692 271.529Z" fill="black"/>
<path d="M612.432 271.529L620.385 279.939C620.385 279.939 626.748 326.282 629.927 330.617C633.105 334.952 640.613 352.196 633.564 365.146C633.564 365.146 631.297 372.193 632.66 375.145C634.023 378.097 622.433 392.869 622.433 392.869C622.433 392.869 607.205 406.497 604.02 408.544C600.835 410.592 584.025 426.946 578.346 427.172C572.668 427.398 570.811 434.445 570.811 434.445L538.767 435.582C538.767 435.582 521.053 434.657 517.217 437.157C517.217 437.157 519.272 410.12 499.496 392.396L524.718 383.308C524.718 383.308 534.266 379.199 537.219 374.905C539.076 372.273 541.711 370.288 544.754 369.228C544.754 369.228 551.796 364.229 552.022 361.503C552.248 358.778 560.632 355.435 560.632 355.435L555.885 314.927L558.385 247.677C558.385 247.677 566.338 191.328 583.155 194.513C599.972 197.697 612.432 271.529 612.432 271.529Z" fill="#E8F5FF"/>
<path opacity="0.1" d="M582.867 339.468C582.867 339.468 606.274 333.305 612.411 340.838C618.549 348.371 582.867 339.468 582.867 339.468Z" fill="black"/>
<path opacity="0.1" d="M577.415 349.797C585.367 355.365 609.911 355.591 609.911 355.591L577.415 349.797Z" fill="black"/>
<path opacity="0.1" d="M589.457 377.629C590.142 377.855 606.329 395.126 613.124 389.901C619.919 384.676 589.457 377.629 589.457 377.629Z" fill="black"/>
<path opacity="0.1" d="M371.462 232.68C371.462 232.68 376.216 265.401 373.873 278.728C371.531 292.055 380.079 308.566 380.079 308.566L371.462 232.68Z" fill="black"/>
<g opacity="0.1">
<path opacity="0.1" d="M167.866 238.453C167.9 238.508 167.948 238.556 167.99 238.611C168.195 238.351 168.407 238.09 168.627 237.844C168.393 238.071 168.139 238.275 167.866 238.453V238.453Z" fill="black"/>
</g>
<path d="M173.662 85.1719C146.304 85.1719 126.661 102.726 126.661 143.687C126.661 190.109 146.304 202.397 173.662 202.397C201.019 202.397 221.832 188.939 221.832 143.687C221.832 95.3145 201.019 85.1719 173.662 85.1719ZM173.841 186.988C154.893 186.988 144.993 175.87 144.993 143.717C144.993 115.347 155.298 100.386 174.247 100.386C193.195 100.386 203.5 110.213 203.5 143.717C203.5 175.059 192.79 186.988 173.841 186.988Z" fill="#2F2E41"/>
<path d="M110.28 170.021H98.9684V136.707C98.9684 134.938 98.2656 133.241 97.0147 131.99C95.7637 130.738 94.067 130.036 92.2978 130.036H89.6473C88.7713 130.036 87.9039 130.208 87.0946 130.543C86.2853 130.879 85.5499 131.37 84.9305 131.99C84.3111 132.609 83.8197 133.345 83.4845 134.154C83.1492 134.963 82.9767 135.831 82.9767 136.707V170.021H51.0715C50.4151 170.021 49.7699 169.851 49.1984 169.528C48.627 169.205 48.1486 168.74 47.8098 168.178C47.471 167.616 47.2833 166.976 47.2648 166.319C47.2464 165.663 47.3978 165.013 47.7044 164.433L81.4725 100.511C81.8935 99.7141 82.1487 98.8401 82.2226 97.9418C82.2966 97.0435 82.1878 96.1396 81.9028 95.2845C81.6178 94.4294 81.1625 93.6409 80.5644 92.9667C79.9663 92.2925 79.2378 91.7464 78.4229 91.3615L76.4295 90.4201C74.8816 89.689 73.112 89.5811 71.4868 90.1186C69.8616 90.6561 68.5052 91.7979 67.6982 93.3077L26.5135 170.363C25.8122 171.675 25.4453 173.14 25.4453 174.628V174.628C25.4453 175.816 25.6793 176.992 26.1338 178.09C26.5884 179.187 27.2547 180.185 28.0946 181.025C28.9346 181.865 29.9317 182.531 31.0291 182.986C32.1266 183.44 33.3028 183.674 34.4906 183.674H82.9767V204.74C82.9767 205.79 83.1835 206.83 83.5853 207.8C83.9872 208.771 84.5761 209.652 85.3186 210.395C86.0611 211.137 86.9426 211.726 87.9127 212.128C88.8828 212.53 89.9225 212.737 90.9726 212.737H90.9726C92.0226 212.737 93.0624 212.53 94.0325 212.128C95.0026 211.726 95.884 211.137 96.6265 210.395C97.369 209.652 97.958 208.771 98.3598 207.8C98.7616 206.83 98.9684 205.79 98.9684 204.74V183.674H110.28C112.09 183.674 113.826 182.955 115.106 181.675C116.386 180.395 117.105 178.658 117.105 176.848V176.848C117.105 175.037 116.386 173.301 115.106 172.02C113.826 170.74 112.09 170.021 110.28 170.021V170.021Z" fill="#4BF927"/>
<path d="M319.733 170.021H308.422V136.707C308.422 134.938 307.719 133.241 306.468 131.99C305.217 130.738 303.52 130.036 301.751 130.036H299.1C298.224 130.036 297.357 130.208 296.548 130.543C295.738 130.879 295.003 131.37 294.384 131.99C293.764 132.609 293.273 133.345 292.938 134.154C292.602 134.963 292.43 135.831 292.43 136.707V170.021H260.525C259.868 170.021 259.223 169.851 258.652 169.528C258.08 169.205 257.602 168.74 257.263 168.178C256.924 167.616 256.736 166.976 256.718 166.319C256.699 165.663 256.851 165.013 257.158 164.433L290.926 100.511C291.347 99.7141 291.602 98.8401 291.676 97.9418C291.75 97.0435 291.641 96.1396 291.356 95.2845C291.071 94.4294 290.616 93.6409 290.018 92.9667C289.419 92.2925 288.691 91.7464 287.876 91.3615L285.883 90.4201C284.335 89.689 282.565 89.5811 280.94 90.1186C279.315 90.6561 277.958 91.7978 277.151 93.3077L235.967 170.363C235.265 171.675 234.898 173.14 234.898 174.628V174.628C234.898 177.027 235.851 179.328 237.548 181.025C239.244 182.721 241.545 183.674 243.944 183.674H292.43V204.74C292.43 206.861 293.272 208.895 294.772 210.395C296.271 211.894 298.305 212.737 300.426 212.737V212.737C302.546 212.737 304.58 211.894 306.08 210.395C307.579 208.895 308.422 206.861 308.422 204.74V183.674H319.733C321.543 183.674 323.279 182.955 324.559 181.675C325.839 180.395 326.559 178.658 326.559 176.848V176.848C326.559 175.037 325.839 173.301 324.559 172.02C323.279 170.74 321.543 170.021 319.733 170.021Z" fill="#4BF927"/>
<path d="M113.4 166.119H102.089V132.805C102.089 131.929 101.916 131.061 101.581 130.252C101.246 129.442 100.754 128.707 100.135 128.087C99.5156 127.468 98.7802 126.976 97.9709 126.641C97.1616 126.306 96.2942 126.133 95.4182 126.133H92.7677C90.9985 126.133 89.3018 126.836 88.0508 128.087C86.7998 129.338 86.097 131.035 86.097 132.805V166.119H54.1918C53.5355 166.119 52.8903 165.949 52.3188 165.626C51.7473 165.303 51.269 164.838 50.9302 164.276C50.5914 163.713 50.4037 163.073 50.3852 162.417C50.3667 161.761 50.5182 161.111 50.8248 160.531L84.5929 96.6087C85.0139 95.8118 85.2691 94.9378 85.343 94.0395C85.417 93.1412 85.3081 92.2372 85.0231 91.3821C84.7381 90.527 84.2828 89.7386 83.6848 89.0644C83.0867 88.3901 82.3582 87.8441 81.5433 87.4592L79.5498 86.5177C78.002 85.7867 76.2324 85.6787 74.6072 86.2162C72.982 86.7537 71.6255 87.8955 70.8186 89.4053L29.6339 166.461C28.9326 167.773 28.5657 169.238 28.5657 170.725V170.725C28.5657 173.125 29.5187 175.426 31.215 177.122C32.9113 178.819 35.212 179.772 37.611 179.772H86.097V200.838C86.097 201.888 86.3039 202.928 86.7057 203.898C87.1075 204.868 87.6965 205.75 88.439 206.492C89.1815 207.235 90.0629 207.824 91.033 208.226C92.0031 208.628 93.0429 208.835 94.0929 208.835H94.0929C96.2136 208.835 98.2474 207.992 99.7469 206.492C101.246 204.993 102.089 202.959 102.089 200.838V179.772H113.4C114.296 179.772 115.184 179.596 116.012 179.252C116.84 178.909 117.593 178.407 118.227 177.773C118.86 177.139 119.363 176.386 119.706 175.558C120.049 174.73 120.226 173.842 120.226 172.945V172.945C120.226 172.049 120.049 171.161 119.706 170.333C119.363 169.505 118.86 168.752 118.227 168.118C117.593 167.484 116.84 166.981 116.012 166.638C115.184 166.295 114.296 166.119 113.4 166.119V166.119Z" stroke="#3F3D56" stroke-miterlimit="10"/>
<path d="M325.584 166.119H314.272V132.805C314.272 131.035 313.57 129.338 312.319 128.087C311.068 126.836 309.371 126.133 307.602 126.133H304.951C304.075 126.133 303.208 126.306 302.398 126.641C301.589 126.976 300.854 127.468 300.234 128.087C299.615 128.707 299.124 129.442 298.788 130.252C298.453 131.061 298.281 131.929 298.281 132.805V166.119H266.375C265.719 166.119 265.074 165.949 264.502 165.626C263.931 165.303 263.453 164.838 263.114 164.276C262.775 163.713 262.587 163.073 262.569 162.417C262.55 161.761 262.702 161.111 263.008 160.531L296.776 96.6087C297.197 95.8118 297.453 94.9378 297.527 94.0395C297.601 93.1412 297.492 92.2372 297.207 91.3821C296.922 90.527 296.466 89.7386 295.868 89.0644C295.27 88.3901 294.542 87.8441 293.727 87.4592L291.733 86.5177C290.186 85.7867 288.416 85.6787 286.791 86.2162C285.166 86.7537 283.809 87.8955 283.002 89.4053L241.817 166.461C241.116 167.773 240.749 169.238 240.749 170.725C240.749 173.125 241.702 175.426 243.399 177.122C245.095 178.819 247.396 179.772 249.795 179.772H298.281V200.838C298.281 202.959 299.123 204.993 300.623 206.492C302.122 207.992 304.156 208.835 306.276 208.835V208.835C308.397 208.835 310.431 207.992 311.93 206.492C313.43 204.993 314.272 202.959 314.272 200.838V179.772H325.584C326.48 179.772 327.367 179.596 328.196 179.252C329.024 178.909 329.776 178.407 330.41 177.773C331.044 177.139 331.547 176.386 331.89 175.558C332.233 174.73 332.409 173.842 332.409 172.945V172.945C332.409 171.135 331.69 169.398 330.41 168.118C329.13 166.838 327.394 166.119 325.584 166.119V166.119Z" stroke="#3F3D56" stroke-miterlimit="10"/>
<path d="M179.902 81.6602C152.545 81.6602 132.902 99.2147 132.902 140.175C132.902 186.597 152.545 198.886 179.902 198.886C207.26 198.886 228.073 185.427 228.073 140.175C228.073 91.8028 207.26 81.6602 179.902 81.6602ZM180.082 183.477C161.134 183.477 151.234 172.358 151.234 140.205C151.234 111.835 161.539 96.8741 180.487 96.8741C199.436 96.8741 209.741 106.701 209.741 140.205C209.741 171.548 199.031 183.477 180.082 183.477V183.477Z" stroke="#3F3D56" stroke-miterlimit="10"/>
<path d="M202.521 74.5818C202.521 74.5818 203.556 77.5655 204.503 76.771L203.748 72.8711L202.521 74.5818Z" fill="#FBBEBE"/>
<path d="M161.095 140.598C164.083 140.598 166.506 137.462 166.506 133.594C166.506 129.726 164.083 126.59 161.095 126.59C158.106 126.59 155.683 129.726 155.683 133.594C155.683 137.462 158.106 140.598 161.095 140.598Z" fill="#2F2E41"/>
<path d="M190.539 140.758C193.528 140.758 195.951 137.622 195.951 133.754C195.951 129.886 193.528 126.75 190.539 126.75C187.55 126.75 185.128 129.886 185.128 133.754C185.128 137.622 187.55 140.758 190.539 140.758Z" fill="#2F2E41"/>
<path d="M186.401 154.449C186.401 157.614 181.983 160.18 176.533 160.18C171.084 160.18 166.665 157.614 166.665 154.449C166.665 151.708 169.979 149.416 174.407 148.856C175.112 148.763 175.822 148.717 176.533 148.719C177.725 148.715 178.913 148.843 180.076 149.101C183.775 149.925 186.401 152.011 186.401 154.449Z" fill="#2F2E41"/>
<path d="M162.368 139.008C165.356 139.008 167.779 135.872 167.779 132.004C167.779 128.136 165.356 125 162.368 125C159.379 125 156.956 128.136 156.956 132.004C156.956 135.872 159.379 139.008 162.368 139.008Z" stroke="#3F3D56" stroke-miterlimit="10"/>
<path d="M191.812 139.168C194.801 139.168 197.224 136.032 197.224 132.164C197.224 128.296 194.801 125.16 191.812 125.16C188.824 125.16 186.401 128.296 186.401 132.164C186.401 136.032 188.824 139.168 191.812 139.168Z" stroke="#3F3D56" stroke-miterlimit="10"/>
<path d="M177.806 158.586C183.256 158.586 187.674 156.021 187.674 152.856C187.674 149.691 183.256 147.125 177.806 147.125C172.356 147.125 167.938 149.691 167.938 152.856C167.938 156.021 172.356 158.586 177.806 158.586Z" stroke="#3F3D56" stroke-miterlimit="10"/>
<path d="M180.194 149.577C180.196 149.978 180.046 150.364 179.774 150.657C179.645 150.798 179.489 150.91 179.314 150.987C179.14 151.065 178.952 151.105 178.761 151.106H175.578C175.186 151.092 174.815 150.924 174.547 150.637C174.278 150.351 174.134 149.97 174.146 149.577C174.144 149.267 174.235 148.963 174.407 148.705C175.111 148.606 175.822 148.557 176.533 148.559C177.726 148.555 178.915 148.692 180.076 148.966C180.155 149.16 180.195 149.368 180.194 149.577V149.577Z" fill="white"/>
<path d="M162.368 131.684C163.247 131.684 163.959 130.971 163.959 130.092C163.959 129.213 163.247 128.5 162.368 128.5C161.489 128.5 160.776 129.213 160.776 130.092C160.776 130.971 161.489 131.684 162.368 131.684Z" fill="white"/>
<path d="M191.971 131.684C192.85 131.684 193.563 130.971 193.563 130.092C193.563 129.213 192.85 128.5 191.971 128.5C191.092 128.5 190.38 129.213 190.38 130.092C190.38 130.971 191.092 131.684 191.971 131.684Z" fill="white"/>
<path opacity="0.3" d="M193.563 146.649C194.442 146.649 195.155 145.936 195.155 145.057C195.155 144.178 194.442 143.465 193.563 143.465C192.684 143.465 191.971 144.178 191.971 145.057C191.971 145.936 192.684 146.649 193.563 146.649Z" fill="#4BF927"/>
<path opacity="0.3" d="M154.728 146.649C155.607 146.649 156.32 145.936 156.32 145.057C156.32 144.178 155.607 143.465 154.728 143.465C153.849 143.465 153.136 144.178 153.136 145.057C153.136 145.936 153.849 146.649 154.728 146.649Z" fill="#4BF927"/>
</g>
<defs>
<linearGradient id="paint0_linear" x1="500.071" y1="65.3373" x2="500.071" y2="52.75" gradientUnits="userSpaceOnUse">
<stop stop-color="#808080" stop-opacity="0.25"/>
<stop offset="0.54" stop-color="#808080" stop-opacity="0.12"/>
<stop offset="1" stop-color="#808080" stop-opacity="0.1"/>
</linearGradient>
<clipPath id="clip0">
<rect width="744" height="536" fill="white"/>
</clipPath>
</defs>
</svg>
