<svg width="211" height="150" viewBox="0 0 211 150" fill="none" xmlns="http://www.w3.org/2000/svg">
<g clip-path="url(#clip0)">
<path opacity="0.1" d="M70.1487 149.916C80.4242 149.916 88.7542 148.573 88.7542 146.917C88.7542 145.261 80.4242 143.918 70.1487 143.918C59.8732 143.918 51.5432 145.261 51.5432 146.917C51.5432 148.573 59.8732 149.916 70.1487 149.916Z" fill="#6C63FF"/>
<path opacity="0.1" d="M171.286 149.998C184.108 149.998 194.503 148.655 194.503 146.999C194.503 145.343 184.108 144 171.286 144C158.463 144 148.069 145.343 148.069 146.999C148.069 148.655 158.463 149.998 171.286 149.998Z" fill="#6C63FF"/>
<path opacity="0.1" d="M2.64271 64.8125H22.0215V91.3213H4.06142C4.01368 91.5934 3.96785 91.8675 3.91821 92.1415H22.0215V113.52C21.9891 113.511 21.9604 113.499 21.9299 113.488C21.4182 113.285 20.9103 113.07 20.4023 112.84L20.0777 112.692C19.5686 112.451 19.0594 112.195 18.5502 111.926C18.3726 111.832 18.195 111.734 18.0194 111.635C15.1926 110.045 12.6247 108.032 10.4046 105.663C10.3396 105.6 10.2785 105.533 10.2136 105.472C9.90428 105.134 9.60068 104.793 9.30663 104.444L8.98202 104.061C8.63451 103.634 8.29845 103.195 7.97193 102.75C7.9242 102.685 7.87837 102.62 7.82873 102.559C6.50081 100.711 5.39821 98.71 4.5445 96.5989C4.51777 96.5357 4.49486 96.4667 4.47003 96.4073C4.20781 95.7302 3.97549 95.0467 3.77309 94.3568C3.68526 94.0674 3.60124 93.7819 3.52868 93.481C3.50195 93.3929 3.47904 93.3066 3.45803 93.2204C2.37348 88.9719 2.24554 84.5585 2.24554 80.1758C2.24554 79.6642 2.24554 79.1506 2.24554 78.6428C2.24554 76.8701 2.26655 75.086 2.2971 73.3038C2.2971 72.842 2.31619 72.3821 2.32574 71.9183C2.35247 70.7417 2.39066 69.565 2.44031 68.3884C2.45176 68.0607 2.46704 67.7349 2.48422 67.4092C2.48422 67.2213 2.49377 67.0335 2.51287 66.8457C2.55869 66.1635 2.59688 65.4871 2.64271 64.8125Z" fill="#6C63FF"/>
<path opacity="0.1" d="M22.0214 35.2959H11.3916C13.1196 32.5815 15.0075 29.9732 17.0455 27.4849C18.6246 25.5379 20.2915 23.6407 22.0214 21.8125V35.2959Z" fill="#00FA96"/>
<path opacity="0.1" d="M22.0215 36.1133V63.9884H2.70374C2.70374 63.9079 2.7171 63.8255 2.72283 63.7451C2.74001 63.5247 2.7572 63.3043 2.77629 63.0858C2.7973 62.829 2.82021 62.5703 2.84503 62.3193C2.86986 62.0683 2.89659 61.7616 2.92523 61.4838C2.95387 61.2059 2.9806 60.9242 3.01306 60.6463C3.04552 60.3685 3.07417 60.0906 3.10853 59.8146C3.1429 59.5387 3.17346 59.2589 3.20974 58.9829C3.23838 58.753 3.26893 58.5249 3.29948 58.295C3.34339 57.9711 3.38922 57.6453 3.43887 57.3234C3.43887 57.2755 3.45223 57.2257 3.45987 57.1797C3.80838 54.8229 4.28324 52.4866 4.8824 50.1812C5.50957 47.7627 6.31044 45.393 7.27874 43.0907C8.30786 40.6822 9.5128 38.3532 10.8837 36.1229L22.0215 36.1133Z" fill="#6C63FF"/>
<path opacity="0.1" d="M26.648 64.8101V91.3208H68.0388V64.8101H26.648ZM26.648 92.1391V114.905C26.8848 114.955 27.1197 115.003 27.3526 115.043C27.6696 115.105 27.9846 115.16 28.3073 115.208C28.3684 115.218 28.4315 115.227 28.4983 115.233C28.6243 115.254 28.7541 115.271 28.8802 115.289C29.199 115.333 29.516 115.369 29.8349 115.398C29.9857 115.413 30.1385 115.427 30.2912 115.438L30.6598 115.467C30.8602 115.482 31.0588 115.494 31.2555 115.499C31.3777 115.499 31.4999 115.511 31.6259 115.515C31.7214 115.515 31.8169 115.515 31.9162 115.515C32.0155 115.515 32.1568 115.515 32.277 115.515C32.4413 115.515 32.6055 115.515 32.7678 115.515H32.9874C33.1516 115.515 33.3158 115.515 33.4781 115.499H33.4895C33.6022 115.499 33.7168 115.499 33.8313 115.484C33.8631 115.486 33.895 115.486 33.9268 115.484C34.0223 115.484 34.1177 115.484 34.2094 115.471H34.2762L34.9159 115.421C35.1259 115.402 35.3379 115.377 35.5517 115.354L35.9871 115.302C37.7582 115.053 39.5097 114.679 41.2285 114.183C45.0893 113.102 48.8662 111.59 52.7252 110.482C57.7145 109.055 63.2271 108.353 68.0484 110.099V92.1391H26.648ZM68.0388 35.2965V0.00313396C63.5072 -0.0461398 58.9879 0.4858 54.5907 1.58604C44.1098 4.22868 34.7058 9.96046 26.648 17.2809V35.2945H28.7255V36.1128H26.648V63.9918H68.0388V36.1147H37.2549V35.2965H68.0388ZM121.203 23.3749C118.61 23.2829 116.032 22.4589 113.701 21.1864C109.242 18.7527 105.681 14.9947 101.702 11.8232C93.4343 5.21751 83.1806 1.23151 72.6616 0.242677V35.2965H131.749L131.896 35.1412L121.203 23.3749ZM126.586 22.4167L132.293 28.7023V20.7687C130.382 21.0063 128.707 21.5716 126.594 22.409L126.586 22.4167ZM132.293 120.558V92.1391H120.132C120.1 92.0184 120.067 91.8957 120.029 91.7731C120.065 91.8957 120.096 92.0184 120.13 92.1391H72.6692V112.692C73.1198 113.027 73.5647 113.38 74.0058 113.738C74.4813 114.121 74.951 114.526 75.4226 114.923L75.8981 115.317C76.1253 115.509 76.3544 115.701 76.5854 115.881C77.0437 116.254 77.5064 116.622 77.9736 116.985C78.2046 117.176 78.4414 117.349 78.6763 117.529C82.4048 120.39 86.3381 122.972 90.4441 125.254C91.3645 125.765 92.2931 126.263 93.23 126.75C93.8544 127.07 94.4826 127.388 95.1127 127.697C96.0598 128.161 97.0145 128.608 97.9768 129.038C106.849 133.035 116.231 135.778 125.855 137.189C127.992 137.505 130.137 137.754 132.291 137.936V120.557H132.482L132.293 120.558ZM72.6692 36.1147V63.9918H132.301V36.1147H72.6692ZM72.6692 64.8101V91.3208H132.301V64.8101H72.6692ZM136.929 20.7342V29.5838L144.214 21.562C141.8 21.1711 139.372 20.8919 136.929 20.7246V20.7342ZM136.929 64.8197V91.3208H194.928V64.8101L136.929 64.8197ZM194.716 122.663L194.921 92.1391H136.929V138.241C140.665 138.398 144.407 138.353 148.138 138.106H148.203C149.985 137.994 151.759 137.831 153.524 137.616H153.564C162.984 136.516 172.194 134.049 180.907 130.294L194.716 122.663ZM206.112 69.1755C205.894 68.66 205.667 68.1484 205.436 67.6424C205.004 66.6843 204.548 65.7529 204.078 64.8216H199.553V91.3208H210.994C210.989 83.8164 209.096 76.151 206.118 69.1659L206.112 69.1755ZM199.553 92.1487V118.403C202.776 115.302 205.499 111.755 207.46 107.7C209.818 102.817 210.897 97.5298 210.985 92.1448L199.553 92.1487ZM199.553 57.0949V63.9937H203.654C202.414 61.6188 201.046 59.3127 199.559 57.0853L199.553 57.0949ZM160.219 25.9351C159.917 25.8201 159.615 25.7032 159.312 25.5902C156.11 24.4034 152.838 23.4166 149.514 22.6352L138.367 34.9132L138.153 35.1412L138.296 35.2984H177.971C172.445 31.4811 166.488 28.3349 160.224 25.9255L160.219 25.9351ZM179.133 36.1243H137.743L136.929 36.8717V63.9918H144.059H144.071H194.936V50.8553C190.335 45.2702 185.024 40.3145 179.139 36.1147L179.133 36.1243Z" fill="#00FA96"/>
<path opacity="0.1" d="M22.0215 50.1758V63.9907H2.70374C2.70374 63.9102 2.7171 63.8278 2.72283 63.7473C2.74001 63.527 2.7572 63.3066 2.77629 63.0881C2.7973 62.8313 2.82021 62.5726 2.84503 62.3216C2.86986 62.0705 2.89659 61.7639 2.92523 61.4861C2.95387 61.2082 2.9806 60.9265 3.01306 60.6486C3.04552 60.3707 3.07417 60.0929 3.10853 59.8169C3.1429 59.541 3.17346 59.2612 3.20974 58.9852C3.23838 58.7553 3.26893 58.5272 3.29948 58.2973C3.34339 57.9734 3.38922 57.6476 3.43887 57.3257C3.43887 57.2778 3.45223 57.2279 3.45987 57.1819C3.80838 54.8251 4.28324 52.4889 4.8824 50.1834L22.0215 50.1758Z" fill="#00FA96"/>
<path opacity="0.1" d="M2.64271 64.8125H22.0215V91.3213H4.06142C4.01368 91.5934 3.96785 91.8675 3.91821 92.1415H22.0215V113.52C21.9891 113.511 21.9604 113.499 21.9299 113.488C21.4182 113.285 20.9103 113.07 20.4023 112.84L20.0777 112.692C19.5686 112.451 19.0594 112.195 18.5502 111.926C18.3726 111.832 18.195 111.734 18.0194 111.635C15.1926 110.045 12.6247 108.032 10.4046 105.663C10.3396 105.6 10.2785 105.533 10.2136 105.472C9.90428 105.134 9.60068 104.793 9.30663 104.444L8.98202 104.061C8.63451 103.634 8.29845 103.195 7.97193 102.75C7.9242 102.685 7.87837 102.62 7.82873 102.559C6.50081 100.711 5.39821 98.71 4.5445 96.5989C4.51777 96.5357 4.49486 96.4667 4.47003 96.4073C4.20781 95.7302 3.97549 95.0467 3.77309 94.3568C3.68526 94.0674 3.60124 93.7819 3.52868 93.481C3.50195 93.3929 3.47904 93.3066 3.45803 93.2204C2.37348 88.9719 2.24554 84.5585 2.24554 80.1758C2.24554 79.6642 2.24554 79.1506 2.24554 78.6428C2.24554 76.8701 2.26655 75.086 2.2971 73.3038C2.2971 72.842 2.31619 72.3821 2.32574 71.9183C2.35247 70.7417 2.39066 69.565 2.44031 68.3884C2.45176 68.0607 2.46704 67.7349 2.48422 67.4092C2.48422 67.2213 2.49377 67.0335 2.51287 66.8457C2.55869 66.1635 2.59688 65.4871 2.64271 64.8125Z" fill="#00FA96"/>
<path opacity="0.1" d="M41.2189 40.1065V63.9918H26.648V40.1065H28.7255V32.0195H37.253V40.1065H41.2189Z" fill="#6C63FF"/>
<path opacity="0.1" d="M41.2188 64.8086H26.6499V91.3174H41.2188V64.8086Z" fill="#6C63FF"/>
<path opacity="0.1" d="M26.648 92.1406H41.2189V114.179C39.5001 114.674 37.7487 115.048 35.9775 115.296L35.5422 115.349C35.3283 115.374 35.1164 115.395 34.9063 115.417C34.6963 115.438 34.4786 115.453 34.2667 115.466H34.1998C34.1082 115.466 34.0089 115.478 33.9192 115.48H33.8218C33.7072 115.48 33.5926 115.491 33.4781 115.495C33.3158 115.505 33.1535 115.507 32.9874 115.509C32.9167 115.509 32.8499 115.509 32.7792 115.509C32.615 115.509 32.4527 115.509 32.2885 115.509H31.9276C31.8302 115.509 31.7367 115.509 31.6355 115.509L31.267 115.495C31.076 115.495 30.8698 115.474 30.6712 115.461L30.3046 115.434L29.8482 115.392C29.5275 115.363 29.2086 115.326 28.8935 115.282L28.5116 115.229L28.3207 115.202C28.0018 115.152 27.6868 115.098 27.366 115.037C27.1311 114.997 26.8982 114.947 26.6614 114.899L26.648 92.1406Z" fill="#6C63FF"/>
<path opacity="0.1" d="M132.301 37.2852H120.287V63.9894H132.301V37.2852Z" fill="#6C63FF"/>
<path opacity="0.1" d="M132.303 64.8086V91.3193H72.6692V79.8845H104.433V86.63H120.287V64.8086H132.303Z" fill="#6C63FF"/>
<path opacity="0.1" d="M132.492 120.563H132.301V137.954C130.149 137.771 128.005 137.522 125.866 137.208C116.238 135.793 106.852 133.045 97.9768 129.041C95.4144 127.883 92.9041 126.62 90.446 125.25C86.34 122.967 82.4063 120.385 78.6763 117.525C77.7394 116.805 76.8146 116.068 75.9019 115.314C75.2698 114.791 74.6416 114.254 74.0058 113.733C73.5647 113.374 73.1198 113.022 72.6692 112.685V92.1395H120.128C120.096 92.0168 120.063 91.8942 120.029 91.7734C120.065 91.8942 120.1 92.0168 120.132 92.1395H132.301V120.551C132.366 120.553 132.429 120.559 132.492 120.563Z" fill="#6C63FF"/>
<path opacity="0.1" d="M163.635 35.296H155.806V32.8546H159.315V25.582C159.62 25.6932 159.923 25.8075 160.224 25.9251V32.8546H163.635V35.296Z" fill="#6C63FF"/>
<path opacity="0.1" d="M182.496 63.9884H144.063C144.063 63.9884 144.063 63.9884 144.076 63.998L144.059 63.9884H136.929V37.2842H138.95V57.0225H148.182V45.3328H155.808V36.1133H163.637V45.3405H171.263V57.0302H182.496V63.9884Z" fill="#6C63FF"/>
<path opacity="0.1" d="M136.929 64.8086V91.3193H182.496V64.8086H136.929ZM194.865 122.525L194.928 101.541H182.496V92.151H136.929V138.239C140.665 138.397 144.407 138.352 148.138 138.105H148.203C149.985 137.993 151.759 137.829 153.524 137.614H153.564C162.984 136.514 172.194 134.048 180.907 130.292" fill="#6C63FF"/>
<path opacity="0.1" d="M200.363 92.1406H210.992C210.899 97.5236 209.822 102.811 207.466 107.694C205.505 111.751 202.78 115.298 199.561 118.396V101.533H200.363V92.1406Z" fill="#6C63FF"/>
<path opacity="0.1" d="M210.998 91.3189H200.363V69.1641H206.118C209.096 76.1491 210.989 83.8145 210.998 91.3189Z" fill="#6C63FF"/>
<path opacity="0.1" d="M132.303 44.7109H125.866V53.0834H132.303V44.7109Z" fill="#6C63FF"/>
<path opacity="0.1" d="M132.303 62.0625H125.866V63.9903H132.303V62.0625Z" fill="#6C63FF"/>
<path opacity="0.1" d="M132.303 64.8086H125.866V70.4331H132.303V64.8086Z" fill="#6C63FF"/>
<path opacity="0.1" d="M132.303 79.418H125.866V87.7905H132.303V79.418Z" fill="#6C63FF"/>
<path opacity="0.1" d="M132.303 96.7734H125.866V105.146H132.303V96.7734Z" fill="#6C63FF"/>
<path opacity="0.1" d="M132.301 120.551C132.366 120.551 132.429 120.551 132.492 120.562H132.301V122.507H125.866V114.125H132.301V120.551Z" fill="#6C63FF"/>
<path opacity="0.1" d="M132.301 131.477V137.944C130.149 137.762 128.005 137.513 125.866 137.199V131.477H132.301Z" fill="#6C63FF"/>
<path opacity="0.1" d="M100.255 90.707H72.6692V91.3222H100.255V90.707Z" fill="#6C63FF"/>
<path opacity="0.1" d="M100.255 92.1367H72.6692V94.4938H100.255V92.1367Z" fill="#6C63FF"/>
<path opacity="0.1" d="M100.255 102.223H72.6692V106.013H100.255V102.223Z" fill="#6C63FF"/>
<path opacity="0.1" d="M100.253 113.738V117.529H78.6763C77.7394 116.811 76.8139 116.074 75.8999 115.317C75.2679 114.794 74.6416 114.258 74.0039 113.738H100.253Z" fill="#6C63FF"/>
<path opacity="0.1" d="M100.253 125.256V129.042H97.9749C95.415 127.884 92.9053 126.62 90.446 125.25L100.253 125.256Z" fill="#6C63FF"/>
<path opacity="0.1" d="M153.57 67.3789H148.14V72.829H153.57V67.3789Z" fill="#6C63FF"/>
<path opacity="0.1" d="M35.9909 41.9844H30.5605V47.4344H35.9909V41.9844Z" fill="#6C63FF"/>
<path opacity="0.1" d="M35.9909 54.6445H30.5605V60.0946H35.9909V54.6445Z" fill="#6C63FF"/>
<path opacity="0.1" d="M35.9909 67.3047H30.5605V72.7548H35.9909V67.3047Z" fill="#6C63FF"/>
<path opacity="0.1" d="M35.9909 79.9609H30.5605V85.411H35.9909V79.9609Z" fill="#6C63FF"/>
<path opacity="0.1" d="M35.9909 92.6211H30.5605V98.0712H35.9909V92.6211Z" fill="#6C63FF"/>
<path opacity="0.1" d="M35.9909 105.281H30.5605V110.731H35.9909V105.281Z" fill="#6C63FF"/>
<path opacity="0.1" d="M174.301 67.3789H168.87V72.829H174.301V67.3789Z" fill="#6C63FF"/>
<path opacity="0.1" d="M153.57 80.8203H148.14V86.2704H153.57V80.8203Z" fill="#6C63FF"/>
<path opacity="0.1" d="M174.301 80.8203H168.87V86.2704H174.301V80.8203Z" fill="#6C63FF"/>
<path opacity="0.1" d="M153.57 94.2617H148.14V99.7118H153.57V94.2617Z" fill="#6C63FF"/>
<path opacity="0.1" d="M174.301 94.2617H168.87V99.7118H174.301V94.2617Z" fill="#6C63FF"/>
<path opacity="0.1" d="M153.57 107.707H148.14V113.157H153.57V107.707Z" fill="#6C63FF"/>
<path opacity="0.1" d="M174.301 107.707H168.87V113.157H174.301V107.707Z" fill="#6C63FF"/>
<path opacity="0.1" d="M153.57 121.148H148.14V126.599H153.57V121.148Z" fill="#6C63FF"/>
<path opacity="0.1" d="M174.301 121.148H168.87V126.599H174.301V121.148Z" fill="#6C63FF"/>
<path opacity="0.1" d="M148.14 138.104V134.59H153.568V137.604L148.14 138.104Z" fill="#6C63FF"/>
<path opacity="0.1" d="M3.43698 57.1758V60.2937H22.0215V57.1758H3.43698ZM5.28913 60.0982H3.77304V57.3674H5.30059L5.28913 60.0982ZM7.13937 60.0982H5.61182V57.3674H7.13937V60.0982ZM8.98579 60.0982H7.45825V57.3674H8.98579V60.0982ZM10.836 60.0982H9.3104V57.3674H10.8379L10.836 60.0982ZM12.6844 60.0982H11.1568V57.3674H12.6844V60.0982ZM14.5346 60.0982H13.0071V57.3674H14.5346V60.0982ZM16.3848 60.0982H14.8573V57.3674H16.3848V60.0982ZM18.2332 60.0982H16.7056V57.3674H18.2332V60.0982ZM20.0815 60.0982H18.554V57.3674H20.0815V60.0982ZM21.9298 60.0982H20.4023V57.3674H21.9298V60.0982Z" fill="#6C63FF"/>
<path opacity="0.1" d="M3.43698 66.25V69.3679H22.0215V66.25H3.43698ZM5.28913 69.1705H3.77304V66.4474H5.30059L5.28913 69.1705ZM7.13937 69.1705H5.61182V66.4474H7.13937V69.1705ZM8.98579 69.1705H7.45825V66.4474H8.98579V69.1705ZM10.836 69.1705H9.3104V66.4474H10.8379L10.836 69.1705ZM12.6844 69.1705H11.1568V66.4474H12.6844V69.1705ZM14.5346 69.1705H13.0071V66.4474H14.5346V69.1705ZM16.3848 69.1705H14.8573V66.4474H16.3848V69.1705ZM18.2332 69.1705H16.7056V66.4474H18.2332V69.1705ZM20.0815 69.1705H18.554V66.4474H20.0815V69.1705ZM21.9298 69.1705H20.4023V66.4474H21.9298V69.1705Z" fill="#6C63FF"/>
<path opacity="0.1" d="M3.43698 75.3242V78.4479H22.0215V75.3242H3.43698ZM5.28913 78.2447H3.77304V75.5197H5.30059L5.28913 78.2447ZM7.13937 78.2447H5.61182V75.5197H7.13937V78.2447ZM8.98579 78.2447H7.45825V75.5197H8.98579V78.2447ZM10.836 78.2447H9.3104V75.5197H10.8379L10.836 78.2447ZM12.6844 78.2447H11.1568V75.5197H12.6844V78.2447ZM14.5346 78.2447H13.0071V75.5197H14.5346V78.2447ZM16.3848 78.2447H14.8573V75.5197H16.3848V78.2447ZM18.2332 78.2447H16.7056V75.5197H18.2332V78.2447ZM20.0815 78.2447H18.554V75.5197H20.0815V78.2447ZM21.9298 78.2447H20.4023V75.5197H21.9298V78.2447Z" fill="#6C63FF"/>
<path opacity="0.1" d="M3.43698 84.4023V87.5164H22.0215V84.4023H3.43698ZM5.28913 87.3229H3.77304V84.5959H5.30059L5.28913 87.3229ZM7.13937 87.3229H5.61182V84.5959H7.13937V87.3229ZM8.98579 87.3229H7.45825V84.5959H8.98579V87.3229ZM10.836 87.3229H9.3104V84.5959H10.8379L10.836 87.3229ZM12.6844 87.3229H11.1568V84.5959H12.6844V87.3229ZM14.5346 87.3229H13.0071V84.5959H14.5346V87.3229ZM16.3848 87.3229H14.8573V84.5959H16.3848V87.3229ZM18.2332 87.3229H16.7056V84.5959H18.2332V87.3229ZM20.0815 87.3229H18.554V84.5959H20.0815V87.3229ZM21.9298 87.3229H20.4023V84.5959H21.9298V87.3229Z" fill="#6C63FF"/>
<path opacity="0.1" d="M3.51715 93.4766C3.59162 93.7698 3.67563 94.063 3.76347 94.3523V93.672H5.29101V96.3971H4.47378C4.4986 96.4603 4.52342 96.5293 4.54824 96.5887H22.0215V93.4766H3.51715ZM7.14507 96.3971H5.61753V93.672H7.14507V96.3971ZM8.9915 96.3971H7.46395V93.672H8.9915V96.3971ZM10.8417 96.3971H9.31037V93.672H10.8379L10.8417 96.3971ZM12.6901 96.3971H11.1625V93.672H12.6901V96.3971ZM14.5403 96.3971H13.0128V93.672H14.5403V96.3971ZM16.3905 96.3971H14.863V93.672H16.3905V96.3971ZM18.2389 96.3971H16.7113V93.672H18.2389V96.3971ZM20.0872 96.3971H18.5597V93.672H20.0872V96.3971ZM21.9355 96.3971H20.408V93.672H21.9355V96.3971Z" fill="#6C63FF"/>
<path opacity="0.1" d="M7.83249 102.551C7.88022 102.612 7.92605 102.681 7.9757 102.742H8.98579V104.051C9.09462 104.182 9.20155 104.312 9.3123 104.435V102.735H10.8398V105.469H10.2212C10.2823 105.533 10.3415 105.6 10.4121 105.661H22.0272V102.551H7.83249ZM12.6844 105.469H11.1568V102.746H12.6844V105.469ZM14.5346 105.469H13.0071V102.746H14.5346V105.469ZM16.3848 105.469H14.8573V102.746H16.3848V105.469ZM18.2332 105.469H16.7056V102.746H18.2332V105.469ZM20.0815 105.469H18.554V102.746H20.0815V105.469ZM21.9298 105.469H20.4023V102.746H21.9298V105.469Z" fill="#6C63FF"/>
<path opacity="0.1" d="M18.0269 111.625C18.2006 111.725 18.3782 111.817 18.5577 111.916V111.82H20.0853V112.683L20.4099 112.834V111.82H21.9374V113.478C21.9667 113.493 21.9974 113.504 22.0291 113.513V111.625H18.0269Z" fill="#6C63FF"/>
<path opacity="0.1" d="M144.063 63.9902H144.074H144.063ZM132.301 120.549H132.492H132.301ZM120.029 91.7714C120.065 91.8941 120.096 92.0167 120.13 92.1374C120.1 92.0167 120.067 91.8941 120.029 91.7714ZM144.063 63.9844H144.074H144.063ZM28.7331 35.2891V36.1073H37.2626V35.2891H28.7331ZM132.301 120.549H132.492H132.301ZM120.029 91.7714C120.065 91.8941 120.096 92.0167 120.13 92.1374C120.1 92.0167 120.067 91.8941 120.029 91.7714ZM144.063 63.9844H144.074H144.063ZM132.301 120.543H132.492H132.301ZM120.029 91.7714C120.065 91.8941 120.096 92.0167 120.13 92.1374C120.1 92.0167 120.067 91.8941 120.029 91.7714Z" fill="#6C63FF"/>
<path d="M88.1394 72.7569C88.1394 72.7569 87.3871 72.6515 87.3871 71.5516C87.3871 70.4516 86.8487 68.3973 86.8487 68.3973C86.8487 68.3877 86.3828 64.8194 85.7393 64.2522C85.0958 63.685 84.269 60.3544 84.269 60.3544C84.269 60.3544 84.1277 58.5472 83.8394 58.1582C83.5511 57.7692 83.1616 56.8168 82.5868 55.4581C82.0121 54.0994 79.6157 53.1585 79.6157 53.1585C79.6157 53.1585 75.2832 50.6366 74.0555 49.8145C73.9439 49.7469 73.8396 49.6679 73.7442 49.5788C73.5304 49.2971 72.5986 49.2913 72.5986 49.2913C72.5012 48.6742 72.4076 47.9652 72.3771 47.3232C72.3771 47.2542 72.3771 47.1852 72.3675 47.1162C73.7366 46.3041 74.7678 45.0235 75.2718 43.5097C75.2947 43.4369 75.3138 43.3602 75.3348 43.2874C75.4168 43.2603 75.4923 43.2163 75.5564 43.1582C75.6205 43.1001 75.6719 43.0292 75.7071 42.9501C75.8179 42.7029 75.8198 42.4135 75.9573 42.1836C76.1177 41.9115 76.4232 41.7658 76.6638 41.5608C77.271 41.0434 77.4275 40.1714 77.3989 39.378C77.3798 38.7361 77.2767 38.0883 77.3168 37.4502L77.3282 37.2892C77.3397 37.1934 77.3531 37.0976 77.3702 37.0056C77.4638 36.5304 77.6681 36.0819 77.7827 35.6105C77.8972 35.1391 77.9087 34.6083 77.6414 34.202C77.2499 33.606 76.4346 33.4872 75.7186 33.4259C74.9071 33.3569 74.1815 33.447 73.6621 32.7705C73.4191 32.4169 73.1456 32.0854 72.8449 31.7797C72.738 31.6801 71.6992 31.0439 71.6992 31.0017C70.6854 30.5305 69.5363 30.442 68.4627 30.7526C67.9243 30.9097 67.4164 31.1665 66.8703 31.2949C65.6922 31.5747 64.3365 31.2719 63.3359 31.9484C62.7784 32.3316 62.4442 32.941 62.1311 33.5351C61.8765 34.0244 61.6181 34.5131 61.3558 35.0011C60.9338 35.8041 60.5042 36.6204 60.3266 37.5096C60.2893 37.7031 60.2663 37.8991 60.2579 38.096V38.1056C60.2579 38.1765 60.2579 38.2474 60.2579 38.3183V38.4084C60.2579 38.4754 60.2579 38.5406 60.2694 38.6C60.2808 38.6594 60.2789 38.6786 60.2846 38.7188C60.2904 38.7591 60.2999 38.8491 60.3114 38.9105C60.3228 38.9718 60.3457 39.0791 60.3687 39.1634C60.3782 39.1998 60.3916 39.2343 60.403 39.2688C60.4221 39.334 60.445 39.3972 60.4699 39.4604C60.4832 39.493 60.4966 39.5275 60.5119 39.5601C60.5405 39.6272 60.5749 39.6923 60.6092 39.7517C60.6245 39.7786 60.636 39.8035 60.6512 39.8284C60.7045 39.9175 60.7632 40.0033 60.8269 40.0852C61.2355 40.5968 61.837 40.9226 62.2819 41.4017C62.2819 41.4209 62.2819 41.44 62.2819 41.4573C62.2819 41.5109 62.2819 41.5627 62.2819 41.6163C62.3055 42.6848 62.5889 43.7313 63.1073 44.6648C63.6258 45.5983 64.3637 46.3905 65.2568 46.9725C65.2568 47.0453 65.2663 47.1201 65.2702 47.1929C65.3074 47.7617 65.3004 48.3326 65.2492 48.9004C65.1714 48.8085 65.0741 48.7353 64.9644 48.6862C64.8546 48.6371 64.7353 48.6133 64.6152 48.6167C64.5332 48.6127 64.451 48.6198 64.3708 48.6378L64.3536 48.6244V48.6417C63.9336 48.7451 63.4161 49.184 62.9216 50.4315C62.9216 50.4315 61.4169 52.1332 60.2713 52.0623C59.1256 51.9914 56.2252 53.833 56.2252 53.833C56.2252 53.833 53.3954 55.6766 52.7882 57.5546C52.4488 58.6195 52.0419 59.6616 51.57 60.6744L48.0719 67.9086L47.4265 73.648C47.4265 73.648 47.7836 76.2006 47.7129 76.5896C47.6423 76.9787 49.1813 80.4875 49.1813 80.4875C49.1813 80.4875 54.2661 89.4541 56.3436 89.914L56.4925 89.8086C56.5814 89.8552 56.6757 89.8906 56.7732 89.914L57.2009 89.6112C57.2266 89.9487 57.2157 90.2879 57.1684 90.623C56.882 91.5084 57.2754 97.2862 57.7756 98.4187C58.2759 99.5513 58.0983 114.401 58.0983 114.401L58.0277 115.712C58.0277 115.712 58.0277 115.754 58.0449 115.827L58.0277 116.137L58.0792 116.164C58.1328 116.58 58.1153 117.002 58.0277 117.412C57.8482 117.987 57.7756 119.612 57.7756 119.612C57.7756 119.612 56.3455 128.787 57.0233 130.631C57.7012 132.474 58.2778 134.494 58.2778 134.494C58.2778 134.494 58.9939 136.794 58.3122 137.186C57.6305 137.579 55.6925 138.238 56.0915 139.197C56.4543 140.082 57.831 142.454 58.0353 142.801L58.0181 142.983L57.7375 146.036C57.7829 146.439 57.8918 146.832 58.0601 147.201C58.3676 147.866 58.9652 148.556 60.1013 148.481C60.2923 148.468 60.5138 148.445 60.7276 148.416C62.807 148.136 65.3675 147.205 65.3675 147.205C65.2346 147.12 65.1127 147.019 65.0048 146.904C64.9025 146.805 64.8216 146.686 64.7667 146.554C64.7119 146.422 64.6844 146.28 64.6859 146.138C64.7164 145.582 63.6796 142.934 63.4218 142.282C63.3817 142.188 63.3607 142.134 63.3607 142.134C63.3607 142.134 65.7246 139.655 65.3313 137.457C65.3313 137.457 62.7153 135.924 63.5765 135.082C64.4377 134.241 65.9767 131.824 65.9767 131.824C65.9767 131.824 66.0473 122.789 65.9767 121.44C65.903 120.503 65.9472 119.561 66.1084 118.636C66.137 118.496 66.1714 118.36 66.2077 118.226C67.3987 118.404 68.6009 118.496 69.8051 118.5C70.2442 118.5 70.691 118.5 71.1417 118.473C71.1417 118.601 71.1474 118.739 71.1589 118.887C71.2581 121.125 71.4434 125.05 71.5942 126.508C71.8081 128.599 72.99 134.233 72.99 134.233C72.99 134.233 70.735 135.686 73.3833 139.266C73.3833 139.266 73.3834 140.563 73.2077 140.751C73.0201 141.365 72.869 141.989 72.7551 142.621C72.6444 143.296 72.5986 143.978 72.7781 144.332C73.2077 145.179 75.7854 145.11 75.7854 145.11L75.8484 145.099C76.3351 145.048 76.8269 145.095 77.2953 145.237C77.7637 145.379 78.1993 145.613 78.577 145.925C79.5565 146.714 83.2742 146.368 85.2868 146.117C86.0753 146.017 86.6024 145.925 86.6024 145.925C86.6279 145.835 86.637 145.742 86.6291 145.649C86.6081 145.153 86.2205 144.064 83.5931 143.093C83.5931 143.093 81.1223 141.425 81.1566 139.973H81.1051H80.8187C81.0268 139.961 81.1605 139.973 81.1605 139.973C81.1605 139.973 80.1924 136.428 80.5876 136.14C80.9829 135.853 79.799 131.924 79.799 131.924C79.799 131.924 79.1212 125.332 79.0849 124.87C79.0864 124.474 79.1463 124.08 79.2625 123.701L79.0849 120.087C79.0849 120.087 79.0505 118.885 79.0849 118.494C79.0791 118.155 79.0517 117.816 79.0028 117.481C78.9856 117.346 78.9684 117.207 78.9493 117.069C79.8754 116.833 80.4769 116.614 80.4769 116.614L80.37 104.034C81.1566 102.501 81.3018 99.1374 81.2979 96.7515C81.2979 95.2184 81.2292 94.084 81.2292 94.084L82.3042 92.3228C82.3042 92.3228 82.5524 90.2148 82.1591 89.753C81.9853 89.5441 82.0636 89.3276 82.2068 89.1494C82.2812 89.0902 82.3597 89.0364 82.4417 88.9884C82.4417 88.9884 82.4302 88.9711 82.4169 88.9462C82.4919 88.8833 82.5717 88.8263 82.6556 88.7757C82.6556 88.7757 82.2737 88.1816 82.6155 87.9306C82.9362 88.149 83.2227 88.3138 83.4403 88.448C83.4251 88.5879 83.4098 88.6684 83.4098 88.6684L83.5014 88.4767C83.7115 88.5955 83.8394 88.6684 83.8394 88.6684C83.8394 88.6684 85.5235 85.3013 85.4872 84.805C85.451 84.3087 86.6329 82.2179 86.6329 82.2179C86.6329 82.2179 86.7761 81.1199 87.4215 80.66C88.0669 80.2 87.9218 76.8675 87.9218 76.8675C87.9218 76.8675 88.1013 75.1313 88.5309 74.4222C88.9605 73.7132 88.1394 72.7569 88.1394 72.7569ZM55.9159 71.2794L55.9483 72.0824C55.7574 71.7739 55.6199 71.5516 55.6199 71.5516L55.9159 71.2794Z" fill="url(#paint0_linear)"/>
<path d="M83.931 87.2137L83.5186 88.9767C83.5186 88.9767 80.2152 87.2846 79.6195 85.1345C79.0238 82.9843 80.6162 82.168 80.6162 82.168L83.6942 83.4768L83.931 87.2137Z" fill="white"/>
<path opacity="0.1" d="M83.931 87.2137L83.5186 88.9767C83.5186 88.9767 80.2152 87.2846 79.6195 85.1345C79.0238 82.9843 80.6162 82.168 80.6162 82.168L83.6942 83.4768L83.931 87.2137Z" fill="black"/>
<path d="M65.3924 147.22C65.3924 147.22 62.3373 148.346 60.2369 148.488C59.1218 148.563 58.5356 147.877 58.2339 147.216C58.0691 146.848 57.9628 146.457 57.9189 146.056L58.1919 143.019L58.3371 141.402L62.7994 140.238L63.4314 142.178L63.4906 142.325C63.7446 142.973 64.7623 145.608 64.7317 146.158C64.7305 146.299 64.7576 146.438 64.8114 146.568C64.8652 146.698 64.9446 146.816 65.0449 146.915C65.1473 147.031 65.2641 147.133 65.3924 147.22Z" fill="white"/>
<path d="M86.2606 145.673C86.2683 145.765 86.2592 145.858 86.2339 145.947C86.2339 145.947 79.6998 147.041 78.3632 145.947C77.9863 145.627 77.5471 145.39 77.0736 145.251C76.6001 145.112 76.1028 145.073 75.6136 145.138C75.6136 145.138 73.0855 145.207 72.6635 144.372C72.4879 144.021 72.5337 143.341 72.6425 142.67C72.7536 142.042 72.9015 141.42 73.0855 140.809L73.1867 140.729L73.7882 140.244L80.8302 140.035H80.8836C80.8493 141.48 83.2743 143.138 83.2743 143.138C85.8501 144.096 86.2301 145.179 86.2606 145.673Z" fill="white"/>
<path opacity="0.1" d="M86.2606 145.675C86.2673 145.767 86.2576 145.86 86.232 145.949C86.232 145.949 79.6998 147.043 78.3632 145.949C77.9866 145.629 77.5476 145.392 77.0745 145.253C76.6013 145.114 76.1044 145.075 75.6155 145.14C75.6155 145.14 73.0855 145.209 72.6654 144.374C72.4898 144.021 72.5337 143.343 72.6425 142.672C73.6163 142.77 75.1534 143.013 75.7568 143.594C76.6695 144.477 78.2162 145.359 79.1652 145.428C79.9079 145.475 84.3512 145.617 86.2606 145.675Z" fill="black"/>
<path opacity="0.1" d="M65.3924 147.217C65.3924 147.217 62.3373 148.344 60.2369 148.486C59.1218 148.56 58.5356 147.874 58.2358 147.211C59.013 147.474 60.0918 147.75 60.6589 147.497C61.331 147.198 63.714 147.004 65.0506 146.922C65.1523 147.034 65.2671 147.133 65.3924 147.217Z" fill="black"/>
<path d="M69.9253 56.4082C67.4048 55.4251 64.1626 52.1769 64.9722 50.6592C65.152 50.2762 65.2589 49.8628 65.2873 49.4404C65.3393 48.867 65.347 48.2903 65.3102 47.7157C65.2534 46.7746 65.1406 45.8377 64.9722 44.9102C64.9722 44.9102 72.841 45.0884 72.3827 46.2516C72.2491 46.5927 72.2281 47.1849 72.2643 47.8479C72.3006 48.511 72.3961 49.2603 72.4954 49.8946C72.6329 50.7646 72.7703 51.4276 72.7703 51.4276C72.7703 51.4276 72.2892 52.1041 72.0066 52.1405C71.724 52.1769 73.5417 57.8091 69.9253 56.4082Z" fill="#CF6F80"/>
<path opacity="0.1" d="M63.4849 142.325L63.4257 142.39C61.0733 139.535 58.2282 143.094 58.2282 143.094L58.1862 143.019L58.3313 141.402L62.7937 140.238L63.4257 142.178L63.4849 142.325Z" fill="black"/>
<path opacity="0.1" d="M80.8855 140.236C80.8855 140.236 79.167 140.2 78.2505 141.012C77.3339 141.825 72.904 141.189 73.095 141.012C73.1516 140.925 73.1857 140.825 73.1943 140.721L73.7957 140.236L80.8378 140.027C80.8645 140.156 80.8855 140.236 80.8855 140.236Z" fill="black"/>
<path d="M66.412 117.812C66.284 118.13 66.1868 118.459 66.1217 118.795C65.9625 119.716 65.9183 120.653 65.99 121.585C66.0606 122.927 65.99 131.916 65.99 131.916C65.99 131.916 64.4796 134.314 63.6376 135.159C62.7955 136.004 65.3561 137.522 65.3561 137.522C65.7379 139.706 63.4237 142.175 63.4237 142.175C61.0713 139.319 58.2262 142.88 58.2262 142.88C58.2262 142.88 56.6796 140.197 56.2939 139.239C55.9082 138.281 57.8043 137.618 58.4707 137.229C59.137 136.84 58.4382 134.546 58.4382 134.546C58.4382 134.546 57.8749 132.535 57.2066 130.701C56.5383 128.868 57.9437 119.738 57.9437 119.738C57.9437 119.738 58.0162 118.117 58.19 117.552C58.2776 117.144 58.2951 116.724 58.2415 116.31C58.2301 116.17 58.2167 116.053 58.2072 115.974C58.1976 115.896 58.19 115.859 58.19 115.859L58.2167 115.813L59.1714 114.027C59.1714 114.027 66.8702 116.687 66.412 117.812Z" fill="#414141"/>
<path d="M80.8856 140.025C80.8856 140.025 79.1671 139.989 78.2505 140.792C77.334 141.595 72.9041 140.968 73.0951 140.792C73.286 140.616 73.2708 139.311 73.2708 139.311C70.672 135.75 72.8889 134.305 72.8889 134.305C72.8889 134.305 71.7279 128.7 71.5179 126.62C71.3709 125.168 71.1895 121.264 71.0921 119.036C71.0501 118.077 71.0253 117.418 71.0253 117.418L73.1486 116.989L73.4216 116.933L78.5427 115.902C78.5427 115.902 78.684 116.861 78.7795 117.644C78.8271 117.979 78.8538 118.316 78.8597 118.654C78.8253 119.037 78.8597 120.237 78.8597 120.237L79.0334 123.834C78.9199 124.211 78.8614 124.603 78.8597 124.997C78.894 125.455 79.5604 132.013 79.5604 132.013C79.5604 132.013 80.7194 135.926 80.3242 136.208C79.9289 136.49 80.8856 140.025 80.8856 140.025Z" fill="#414141"/>
<path opacity="0.1" d="M72.3829 46.2516C72.2492 46.5927 72.2282 47.1849 72.2645 47.8479C71.2105 48.4849 69.9988 48.8106 68.7687 48.7875C67.5386 48.7645 66.3399 48.3936 65.3103 47.7176C65.2536 46.7758 65.1408 45.8384 64.9724 44.9102C64.9724 44.9102 72.8411 45.0845 72.3829 46.2516Z" fill="black"/>
<path d="M75.4246 42.0175C75.4261 42.708 75.3178 43.3944 75.1038 44.0507C74.6254 45.5213 73.6444 46.7747 72.3342 47.5896C71.0241 48.4044 69.4691 48.7282 67.944 48.5037C66.419 48.2792 65.0222 47.5208 64.0004 46.3627C62.9786 45.2045 62.3976 43.7211 62.3602 42.1746C62.3602 42.121 62.3602 42.0711 62.3602 42.0175C62.3454 41.147 62.5034 40.2823 62.8251 39.4737C63.1467 38.6652 63.6256 37.929 64.2337 37.3082C64.8418 36.6873 65.5671 36.1942 66.3671 35.8576C67.1671 35.521 68.0259 35.3477 68.8933 35.3477C69.7608 35.3477 70.6196 35.521 71.4196 35.8576C72.2196 36.1942 72.9448 36.6873 73.5529 37.3082C74.1611 37.929 74.6399 38.6652 74.9616 39.4737C75.2833 40.2823 75.4413 41.147 75.4265 42.0175H75.4246Z" fill="#CF6F80"/>
<path opacity="0.1" d="M69.9253 56.4131C67.4048 55.4301 64.1626 52.1819 64.9722 50.6641C65.152 50.2811 65.2589 49.8677 65.2873 49.4453L68.7376 52.2911L70.8724 54.0484L72.4954 49.9014C72.6329 50.7714 72.7703 51.4345 72.7703 51.4345C72.7703 51.4345 72.2892 52.1109 72.0066 52.1474C71.724 52.1838 73.5417 57.814 69.9253 56.4131Z" fill="black"/>
<path d="M78.8482 68.9901L75.9668 117.569L72.2091 117.817L62.4786 89.6483L64.0749 56.2062L64.411 49.1406L68.7377 52.7069L70.8744 54.4642L72.5451 50.1965L75.6518 52.9139L78.8482 68.9901Z" fill="#414141"/>
<path opacity="0.1" d="M66.4119 117.812C66.284 118.13 66.1868 118.459 66.1217 118.796C63.3874 118.372 60.7318 117.539 58.2434 116.325L58.1918 116.299L58.209 115.99L58.2186 115.829L59.1733 114.043C59.1733 114.043 66.8702 116.688 66.4119 117.812Z" fill="black"/>
<path opacity="0.1" d="M73.1924 118.805C72.4934 118.925 71.7884 119.005 71.0806 119.047C71.0386 118.088 71.0138 117.429 71.0138 117.429L73.1371 117L73.1924 118.805Z" fill="black"/>
<path opacity="0.1" d="M78.768 117.652C77.4104 118.007 75.3138 118.405 73.4369 118.156L73.4101 116.941L78.5312 115.91C78.5312 115.91 78.6725 116.859 78.768 117.652Z" fill="black"/>
<path opacity="0.1" d="M73.4024 118.379C65.5737 119.721 58.4038 115.875 58.4038 115.875L58.4725 114.571C58.4725 114.571 58.6501 99.7983 58.1575 98.6657C57.6648 97.5332 57.281 91.7899 57.5598 90.9084C57.8386 90.0268 56.5421 76.8079 56.5421 76.8079L56.332 71.4421L48.6447 68.3166L52.0816 61.1264C52.5459 60.1183 52.9451 59.0814 53.2769 58.0219C53.8746 56.1554 56.649 54.3215 56.649 54.3215C56.649 54.3215 59.4941 52.4895 60.6187 52.5584C61.7434 52.6274 63.2175 50.9372 63.2175 50.9372C64.3058 48.1528 65.2911 49.4137 65.2911 49.4137C65.2911 49.5459 65.2911 49.4137 65.2376 49.8257C64.8557 52.8823 71.4127 62.5407 71.5063 62.7112L72.1307 77.9769L72.7627 97.2955L73.4024 118.379Z" fill="black"/>
<path d="M73.1924 118.379C65.3638 119.72 58.1919 115.874 58.1919 115.874L58.2626 114.571C58.2626 114.571 58.4402 99.798 57.9456 98.6655C57.4511 97.5329 57.0692 91.7896 57.3499 90.9081C57.6306 90.0266 56.3322 76.8077 56.3322 76.8077L56.1202 71.4419L48.429 68.3048L51.866 61.1147C52.3292 60.1062 52.7284 59.0693 53.0613 58.0102C53.657 56.1437 56.4334 54.3098 56.4334 54.3098C56.4334 54.3098 59.2784 52.4777 60.4012 52.5467C61.5239 52.6157 62.9999 50.9255 62.9999 50.9255C64.0902 48.1411 65.2912 49.402 65.2912 49.402C65.2912 49.5342 65.1766 49.5936 65.2378 49.814C66.0779 52.7786 71.2028 62.529 71.2964 62.6995L71.9284 77.9651L72.5604 97.2838L73.1924 118.379Z" fill="white"/>
<path opacity="0.1" d="M71.0825 63.136C70.2404 62.7834 65.78 57.6725 65.78 57.6725V56.5093C65.6177 56.126 64.6534 56.3598 63.8705 56.6281L64.2066 49.5625L64.5885 49.8806C65.4248 52.8433 70.9851 62.9654 71.0825 63.136Z" fill="black"/>
<path d="M71.2944 62.7141C70.4504 62.3615 65.99 57.2506 65.99 57.2506V56.0874C65.8277 55.7041 64.8634 55.9379 64.0806 56.2062L64.4185 49.1406L64.8004 49.4587C65.6387 52.4214 71.2008 62.5455 71.2944 62.7141Z" fill="white"/>
<path opacity="0.1" d="M58.4038 88.2001C58.5088 88.2001 63.8476 87.6367 63.8476 87.6367C63.8476 87.6367 67.0803 94.0162 66.8683 95.5685C66.6564 97.1207 66.2726 98.4947 64.9723 98.2514C63.6719 98.008 57.9742 98.443 57.9742 98.443L58.4038 88.2001Z" fill="black"/>
<path d="M58.1919 87.7783C58.2969 87.7783 63.6357 87.2148 63.6357 87.2148C63.6357 87.2148 66.8664 93.5963 66.6564 95.1466C66.4463 96.6969 66.0587 98.0729 64.7603 97.8295C63.4619 97.5861 57.7622 98.0211 57.7622 98.0211L58.1919 87.7783Z" fill="white"/>
<path d="M62.2151 84.7812C62.2151 84.7812 67.1147 87.4239 67.2197 88.2307C67.3247 89.0374 64.726 87.878 64.1646 87.7382C63.7952 87.6488 63.419 87.5898 63.04 87.5619L59.2956 87.6634L62.2151 84.7812Z" fill="#CF6F80"/>
<path opacity="0.1" d="M69.7154 63.4645C70.0001 63.4645 70.2309 63.2329 70.2309 62.9471C70.2309 62.6613 70.0001 62.4297 69.7154 62.4297C69.4306 62.4297 69.1998 62.6613 69.1998 62.9471C69.1998 63.2329 69.4306 63.4645 69.7154 63.4645Z" fill="black"/>
<path d="M69.7154 63.2536C70.0001 63.2536 70.2309 63.0219 70.2309 62.7362C70.2309 62.4504 70.0001 62.2188 69.7154 62.2188C69.4306 62.2188 69.1998 62.4504 69.1998 62.7362C69.1998 63.0219 69.4306 63.2536 69.7154 63.2536Z" fill="#3F3D56"/>
<path opacity="0.1" d="M70.6643 85.863C70.949 85.863 71.1798 85.6313 71.1798 85.3455C71.1798 85.0598 70.949 84.8281 70.6643 84.8281C70.3796 84.8281 70.1487 85.0598 70.1487 85.3455C70.1487 85.6313 70.3796 85.863 70.6643 85.863Z" fill="black"/>
<path d="M70.6643 85.652C70.949 85.652 71.1798 85.4204 71.1798 85.1346C71.1798 84.8488 70.949 84.6172 70.6643 84.6172C70.3796 84.6172 70.1487 84.8488 70.1487 85.1346C70.1487 85.4204 70.3796 85.652 70.6643 85.652Z" fill="#3F3D56"/>
<path opacity="0.1" d="M70.229 74.6676C70.5137 74.6676 70.7446 74.436 70.7446 74.1502C70.7446 73.8645 70.5137 73.6328 70.229 73.6328C69.9443 73.6328 69.7135 73.8645 69.7135 74.1502C69.7135 74.436 69.9443 74.6676 70.229 74.6676Z" fill="black"/>
<path d="M70.229 74.4528C70.5137 74.4528 70.7446 74.2211 70.7446 73.9354C70.7446 73.6496 70.5137 73.418 70.229 73.418C69.9443 73.418 69.7135 73.6496 69.7135 73.9354C69.7135 74.2211 69.9443 74.4528 70.229 74.4528Z" fill="#3F3D56"/>
<path d="M82.1133 87.4586C82.1133 87.4586 82.4646 87.9875 82.1133 88.2347C81.7619 88.4819 82.1477 89.0798 82.1477 89.0798C82.1477 89.0798 81.2712 89.5953 81.6569 90.0591C82.0426 90.5228 81.7982 92.6174 81.7982 92.6174L80.7442 94.3689C80.7442 94.3689 80.8072 95.4976 80.8111 97.0231C80.8111 99.4032 80.6717 102.749 79.9003 104.275L80.0072 116.79C80.0072 116.79 76.3162 118.143 73.2268 117.731L72.7685 97.6478C72.7685 97.6478 73.4368 86.2589 73.6831 84.0743C73.8273 82.9401 73.886 81.7967 73.8588 80.6536C73.8588 80.6536 73.7538 77.2349 73.4005 75.6481C73.4005 75.6481 73.0187 68.7742 72.9805 66.8713C72.9633 65.961 73.011 63.305 73.0645 60.7792C73.1237 58.0178 73.1905 55.4135 73.1905 55.4135L72.4936 49.879C72.4936 49.879 73.1905 49.8081 73.4005 50.0898C73.4946 50.178 73.5969 50.257 73.7061 50.3256C74.909 51.1419 79.1594 53.6523 79.1594 53.6523C79.1594 53.6523 81.5118 54.5913 82.0751 55.9366C82.6384 57.2819 83.0298 58.2362 83.3029 58.6195C83.5759 59.0028 83.7248 60.8041 83.7248 60.8041C83.7248 60.8041 84.5344 64.1194 85.1665 64.6809C85.7985 65.2424 86.2606 68.8145 86.2606 68.8145L80.6755 73.222C80.6755 73.222 80.1848 80.554 80.0797 80.8376C79.9747 81.1212 82.1133 87.4586 82.1133 87.4586Z" fill="white"/>
<path d="M82.3252 87.4571C82.3252 87.4571 82.6746 87.986 82.3252 88.2332C81.9758 88.4804 82.3576 89.0783 82.3576 89.0783C82.3576 89.0783 81.4869 89.5996 81.8688 90.0633C82.2507 90.5271 82.0101 92.6217 82.0101 92.6217L80.9561 94.3732C80.9561 94.3732 81.0191 95.5019 81.0248 97.0273C81.0248 99.4074 80.8855 102.753 80.1141 104.279L80.2191 116.794C80.2191 116.794 76.5224 118.147 73.4368 117.735L72.9804 97.6521C72.9804 97.6521 73.6487 86.2632 73.895 84.0786C74.0393 82.9444 74.0974 81.8009 74.0688 80.6579C74.0688 80.6579 73.9638 77.2392 73.6124 75.6524C73.6124 75.6524 73.2305 68.7785 73.1904 66.8756C73.1733 65.9653 73.2229 63.3092 73.2745 60.7835C73.3337 58.022 73.4005 55.4177 73.4005 55.4177L72.4801 49.8086C72.4801 49.8086 73.4005 49.8086 73.6124 50.0941C73.7056 50.1834 73.808 50.2624 73.9179 50.3298C75.1209 51.1462 79.3732 53.6566 79.3732 53.6566C79.3732 53.6566 81.7237 54.5956 82.287 55.9409C82.8503 57.2862 83.2417 58.2405 83.5167 58.6238C83.7916 59.0071 83.9367 60.8084 83.9367 60.8084C83.9367 60.8084 84.7463 64.1237 85.3784 64.6852C86.0104 65.2467 86.4667 68.8111 86.4667 68.8111L80.8816 73.2187C80.8816 73.2187 80.3909 80.5506 80.284 80.8342C80.1771 81.1178 82.3252 87.4571 82.3252 87.4571Z" fill="white"/>
<path opacity="0.1" d="M75.6365 57.043L76.1406 58.5186L73.4865 61.2015C73.5457 58.4419 73.6125 55.8357 73.6125 55.8357L72.6921 50.2266C72.6921 50.2266 73.6125 50.2266 73.8244 50.5121C73.9174 50.6011 74.0198 50.6795 74.1299 50.7459L76.3869 57.2806L75.6365 57.043Z" fill="black"/>
<path d="M75.4245 56.6211L75.9305 58.0967L73.2764 60.7796C73.3356 58.0181 73.4024 55.4138 73.4024 55.4138L72.4801 49.8047C72.4801 49.8047 73.4024 49.8047 73.6124 50.0902C73.7061 50.1789 73.8084 50.2579 73.9179 50.3259L76.1768 56.8588L75.4245 56.6211Z" fill="white"/>
<path opacity="0.1" d="M75.4246 42.0175C75.4261 42.708 75.3178 43.3944 75.1038 44.0507C75.0677 44.0564 75.0309 44.0547 74.9954 44.0458C74.96 44.0369 74.9267 44.021 74.8975 43.999C74.8479 42.2743 74.002 40.655 72.9614 39.2771C72.6692 38.8611 72.315 38.4927 71.9112 38.1848C71.5029 37.8771 70.9951 37.7329 70.4868 37.7804C69.9139 37.859 69.4079 38.25 68.8294 38.2998C68.0656 38.363 67.382 37.8322 66.624 37.8054C66.3158 37.8083 66.0118 37.8772 65.7323 38.0074C65.4527 38.1376 65.2041 38.3261 65.0029 38.5604C64.6046 39.0332 64.3088 39.584 64.1341 40.1778C63.8339 41.0782 63.6704 42.0188 63.6491 42.968C63.6395 43.5046 63.588 44.1772 63.0915 44.3727C63.1289 43.9781 63.0842 43.5799 62.9603 43.2036C62.8364 42.8272 62.6359 42.4807 62.3717 42.1861L62.3602 42.1746C62.3602 42.121 62.3602 42.0711 62.3602 42.0175C62.3454 41.147 62.5034 40.2823 62.8251 39.4737C63.1467 38.6652 63.6256 37.929 64.2337 37.3082C64.8418 36.6873 65.5671 36.1942 66.3671 35.8576C67.1671 35.521 68.0259 35.3477 68.8933 35.3477C69.7608 35.3477 70.6196 35.521 71.4196 35.8576C72.2196 36.1942 72.9448 36.6873 73.5529 37.3082C74.1611 37.929 74.6399 38.6652 74.9616 39.4737C75.2833 40.2823 75.4413 41.147 75.4265 42.0175H75.4246Z" fill="black"/>
<path d="M71.598 31.6091C70.6058 31.1407 69.4773 31.0521 68.4246 31.36C67.8956 31.5171 67.3973 31.772 66.8607 31.9004C65.7151 32.1783 64.3785 31.8774 63.3951 32.55C62.849 32.9333 62.5206 33.5389 62.2151 34.1272L61.4513 35.5875C61.0351 36.3866 60.615 37.1991 60.4412 38.0787C60.2675 38.9583 60.3725 39.9433 60.9281 40.6504C61.3329 41.1659 61.9306 41.4898 62.3697 41.9746C62.6328 42.2695 62.8324 42.6158 62.956 42.9917C63.0795 43.3677 63.1244 43.7651 63.0877 44.1593C63.5861 43.9676 63.6338 43.2931 63.6452 42.7565C63.6665 41.8073 63.83 40.8667 64.1302 39.9663C64.3045 39.3724 64.6004 38.8215 64.999 38.3489C65.2004 38.1148 65.4491 37.9264 65.7286 37.7962C66.0081 37.666 66.312 37.5971 66.6202 37.5939C67.3839 37.6207 68.0694 38.1496 68.8255 38.0864C69.3984 38.0385 69.9063 37.6456 70.4829 37.569C70.9914 37.5207 71.4994 37.6649 71.9074 37.9733C72.3111 38.2807 72.6647 38.6492 72.9556 39.0656C73.9982 40.4435 74.8441 42.059 74.8937 43.7875C75.1095 43.9466 75.4207 43.7396 75.5277 43.4943C75.6346 43.249 75.6384 42.9615 75.774 42.7278C75.9305 42.4576 76.2303 42.3138 76.4652 42.1107C77.0609 41.5952 77.2099 40.7271 77.187 39.9395C77.164 39.1519 77.0113 38.3527 77.1602 37.5785C77.25 37.1033 77.4524 36.6587 77.5631 36.1892C77.6739 35.7197 77.6872 35.1927 77.4256 34.7883C77.0437 34.1943 76.2399 34.0774 75.5391 34.0218C74.7429 33.9528 74.0307 34.041 73.5228 33.3683C73.2843 33.0173 73.016 32.6877 72.7208 32.3833C72.6196 32.2837 71.598 31.6513 71.598 31.6091Z" fill="#512E4E"/>
<path opacity="0.1" d="M50.8444 72.0227L48.8491 68.3203L48.217 74.0329C48.217 74.0329 48.5684 76.5702 48.4977 76.9592C48.4271 77.3482 49.9374 80.836 49.9374 80.836C49.9374 80.836 54.9268 89.7546 56.9642 90.2146L63.8477 85.2781L62.0222 82.9516C62.0222 82.9516 61.3902 82.7044 61.2317 82.9516C61.2317 82.9516 57.8425 77.0991 57.4912 76.6756C57.1398 76.2521 57.2086 75.407 57.2086 75.407C57.2086 75.407 56.6816 74.8436 56.8572 74.3146C57.0329 73.7857 55.8395 71.9518 55.8395 71.9518L56.9279 70.9304L50.8444 72.0227Z" fill="black"/>
<path d="M48.9541 67.8984L48.4271 68.32L47.7951 74.0327C47.7951 74.0327 48.1464 76.5699 48.0758 76.9589C48.0051 77.3479 49.5174 80.8357 49.5174 80.8357C49.5174 80.8357 54.5048 89.7544 56.5422 90.2143L63.4276 85.2778L61.6003 82.9513C61.6003 82.9513 60.9683 82.7041 60.8098 82.9513C60.8098 82.9513 57.4205 77.0988 57.0692 76.6753C56.7179 76.2518 56.7885 75.4067 56.7885 75.4067C56.7885 75.4067 56.2615 74.8433 56.4372 74.3144C56.6128 73.7855 55.4175 71.9515 55.4175 71.9515L56.5059 70.9301L48.9541 67.8984Z" fill="white"/>
<path opacity="0.1" d="M81.657 90.2763C82.0388 90.742 81.7983 92.8327 81.7983 92.8327L80.7442 94.5842C80.7442 94.5842 80.8073 95.7149 80.8111 97.2384L79.0391 97.7941C78.879 97.8443 78.7092 97.8554 78.544 97.8263C78.3787 97.7973 78.2228 97.729 78.0892 97.6271C77.9556 97.5253 77.8481 97.3929 77.7759 97.2409C77.7037 97.0889 77.6687 96.9218 77.6739 96.7536L77.9794 86.8633L82.1133 88.45C81.762 88.6953 82.1477 89.297 82.1477 89.297C82.1477 89.297 81.2712 89.8106 81.657 90.2763Z" fill="black"/>
<path d="M81.8689 90.0595C82.2508 90.5252 82.0102 92.6179 82.0102 92.6179L80.9562 94.3694C80.9562 94.3694 81.0192 95.4981 81.0249 97.0235L79.2205 97.5889C79.0637 97.6378 78.8975 97.6484 78.7357 97.6198C78.574 97.5912 78.4214 97.5243 78.2906 97.4245C78.1599 97.3248 78.0547 97.1952 77.984 97.0464C77.9132 96.8977 77.8789 96.7341 77.8839 96.5694L78.1913 86.6484L82.3271 88.2352C81.9739 88.4805 82.3596 89.0803 82.3596 89.0803C82.3596 89.0803 81.487 89.5958 81.8689 90.0595Z" fill="white"/>
<path d="M83.238 85.3478C83.238 85.3478 82.9573 87.1472 82.2546 87.2526C81.5519 87.358 81.2369 90.1635 80.5361 90.0639C79.8353 89.9642 80.2993 87.4558 80.3242 86.969C80.349 86.4822 79.5604 84.4663 80.1504 84.0082C80.7404 83.5502 82.6078 84.0082 82.6078 84.0082L83.238 85.3478Z" fill="#CF6F80"/>
<path opacity="0.1" d="M84.733 71.4915L86.0581 68.8086C86.0581 68.8086 86.5851 70.8533 86.5851 71.9457C86.5851 73.038 87.3222 73.1453 87.3222 73.1453C87.3222 73.1453 88.1299 74.1035 87.7041 74.801C87.2782 75.4986 87.1064 77.2348 87.1064 77.2348C87.1064 77.2348 87.2458 80.5481 86.6138 81.0061C85.9817 81.4641 85.85 82.5584 85.85 82.5584C85.85 82.5584 84.6891 84.6376 84.7253 85.132C84.7616 85.6264 83.11 88.9743 83.11 88.9743C83.11 88.9743 83.9176 84.8139 79.2109 83.0164C79.2109 83.0164 79.1746 81.604 79.526 81.2169C79.8773 80.8298 80.4253 80.6535 80.0816 78.6969C79.7379 76.7404 79.9823 74.4024 79.9823 73.9329C79.9823 73.4634 81.0363 70.5352 81.0363 70.5352L84.733 71.4915Z" fill="black"/>
<path d="M85.3058 68.4258L86.4629 68.8091C86.4629 68.8091 86.9918 70.8538 86.9918 71.9461C86.9918 73.0384 87.7288 73.1457 87.7288 73.1457C87.7288 73.1457 88.5365 74.1039 88.1107 74.8015C87.6849 75.499 87.515 77.2352 87.515 77.2352C87.515 77.2352 87.6544 80.5486 87.0223 81.0066C86.3903 81.4646 86.249 82.5588 86.249 82.5588C86.249 82.5588 85.09 84.6381 85.1263 85.1325C85.1626 85.6269 83.509 88.9748 83.509 88.9748C83.509 88.9748 84.3186 84.8144 79.6099 83.0168C79.6099 83.0168 79.5756 81.6045 79.9269 81.2174C80.2782 80.8303 80.8262 80.654 80.4825 78.6974C80.1388 76.7408 80.3832 74.4029 80.3832 73.9334C80.3832 73.4639 81.4373 70.5357 81.4373 70.5357L85.3058 68.4258Z" fill="white"/>
<path opacity="0.1" d="M59.7481 137.962C59.7481 137.962 61.5926 136.799 62.8032 137.644C64.0138 138.489 59.7481 137.962 59.7481 137.962Z" fill="black"/>
<path opacity="0.1" d="M74.0803 134.366C74.0803 134.366 75.7128 134.155 77.0838 135.636C78.4548 137.118 74.0803 134.366 74.0803 134.366Z" fill="black"/>
<g opacity="0.1">
<path opacity="0.1" d="M76.4689 41.6896C76.2341 41.8927 75.9324 42.0383 75.7758 42.3085C75.6421 42.5404 75.6383 42.826 75.5314 43.0751C75.4245 43.3242 75.1132 43.5273 74.8975 43.3702C74.8478 41.6455 74 40.0262 72.9594 38.6464C72.6685 38.23 72.3148 37.8615 71.9111 37.5541C71.5024 37.2457 70.9938 37.1015 70.4848 37.1497C69.9119 37.2283 69.4079 37.6192 68.8293 37.6672C68.0655 37.7323 67.38 37.2015 66.622 37.1747C66.3139 37.1777 66.0101 37.2469 65.7308 37.3774C65.4516 37.508 65.2034 37.6969 65.0028 37.9316C64.6042 38.4035 64.3083 38.9537 64.134 39.5471C63.834 40.4475 63.6705 41.3881 63.649 42.3373C63.6376 42.8719 63.5879 43.5388 63.0953 43.7381C63.1067 43.8797 63.1067 44.022 63.0953 44.1636C63.5917 43.9719 63.6414 43.2974 63.6528 42.7608C63.6741 41.8116 63.8376 40.871 64.1378 39.9706C64.3121 39.3767 64.608 38.8258 65.0066 38.3532C65.2076 38.1191 65.4559 37.9308 65.7351 37.8006C66.0143 37.6704 66.318 37.6014 66.6258 37.5982C67.3896 37.625 68.077 38.1539 68.8331 38.0907C69.4059 38.0428 69.9139 37.6499 70.4886 37.5733C70.9976 37.525 71.5063 37.6692 71.9149 37.9776C72.3186 38.285 72.6723 38.6535 72.9632 39.0699C74.0039 40.4478 74.8516 42.0632 74.9013 43.7918C75.1171 43.9508 75.4283 43.7439 75.5352 43.4986C75.6421 43.2533 75.646 42.9658 75.7796 42.7321C75.9362 42.4618 76.2379 42.3181 76.4728 42.115C77.0685 41.5995 77.2174 40.7314 77.1945 39.9438C77.1945 39.9189 77.1945 39.8939 77.1945 39.871C77.1582 40.5532 76.9768 41.2488 76.4689 41.6896Z" fill="black"/>
<path opacity="0.1" d="M62.3735 41.5519C61.9343 41.0671 61.3347 40.7432 60.9319 40.2296C60.5926 39.775 60.3988 39.2277 60.3762 38.6602C60.3161 39.3694 60.5135 40.0765 60.9319 40.6512C61.3347 41.1667 61.9343 41.4906 62.3735 41.9754C62.7951 42.4497 63.0483 43.0508 63.0933 43.6848C63.1226 43.299 63.0739 42.9112 62.9502 42.5447C62.8265 42.1782 62.6303 41.8405 62.3735 41.5519Z" fill="black"/>
<path opacity="0.1" d="M77.5669 35.7662C77.4542 36.2357 77.2537 36.6822 77.1621 37.1555C77.1078 37.4718 77.088 37.7931 77.1029 38.1137C77.1093 37.931 77.1291 37.7491 77.1621 37.5694C77.2537 37.0942 77.4542 36.6496 77.5669 36.1801C77.6325 35.9211 77.6538 35.6528 77.6299 35.3867C77.618 35.5146 77.597 35.6414 77.5669 35.7662Z" fill="black"/>
</g>
<path opacity="0.1" d="M25.3439 145.756C35.6194 145.756 43.9494 144.413 43.9494 142.757C43.9494 141.101 35.6194 139.758 25.3439 139.758C15.0683 139.758 6.73834 141.101 6.73834 142.757C6.73834 144.413 15.0683 145.756 25.3439 145.756Z" fill="#6C63FF"/>
<path d="M25.9436 85.3047H24.7463V112.358H25.9436V85.3047Z" fill="#535461"/>
<path d="M33.4667 112.273L33.3922 113.492L33.2853 115.217L33.2414 115.934L33.1364 117.658L33.0905 118.375L32.9836 120.1L31.7768 139.66C31.7244 140.501 31.3544 141.291 30.7421 141.869C30.1299 142.446 29.3214 142.768 28.4812 142.768H22.2068C21.3668 142.768 20.5585 142.446 19.9465 141.869C19.3346 141.291 18.965 140.501 18.913 139.66L17.712 120.086L17.605 118.362L17.5611 117.645L17.4542 115.92L17.4103 115.203L17.3034 113.479L17.227 112.26C17.2137 112.025 17.2483 111.791 17.3287 111.57C17.4091 111.349 17.5336 111.147 17.6945 110.977C17.8555 110.806 18.0494 110.67 18.2645 110.577C18.4796 110.485 18.7114 110.437 18.9455 110.438H31.7788C32.012 110.44 32.2423 110.489 32.4556 110.584C32.6688 110.679 32.8604 110.817 33.0186 110.989C33.1768 111.161 33.2981 111.364 33.3752 111.585C33.4523 111.805 33.4834 112.04 33.4667 112.273Z" fill="#414141"/>
<path d="M33.3922 113.492L33.2853 115.211H17.4026L17.2957 113.492H33.3922Z" fill="#00FA96"/>
<path d="M33.2414 115.93L33.1363 117.651H17.5535L17.4465 115.93H33.2414Z" fill="#00FA96"/>
<path d="M33.0904 118.371L32.9854 120.09H17.7042L17.5973 118.371H33.0904Z" fill="#00FA96"/>
<path d="M15.4684 95.4442C22.4397 100.507 25.3497 108.426 25.3497 108.426C25.3497 108.426 16.9482 108.136 9.97494 103.073C3.00169 98.0102 0.0974426 90.0938 0.0974426 90.0938C0.0974426 90.0938 8.49513 90.3812 15.4684 95.4442Z" fill="#00FA96"/>
<path d="M0.0916443 90.0938C0.0916443 90.0938 8.81393 94.9517 11.6113 98.9741C14.4086 102.996 25.3496 108.426 25.3496 108.426" stroke="white" stroke-width="2" stroke-miterlimit="10"/>
<path d="M19.9688 85.2449C23.7628 87.9987 25.3496 92.3085 25.3496 92.3085C25.3496 92.3085 20.7765 92.1514 16.9805 89.3976C13.1846 86.6438 11.6017 82.332 11.6017 82.332C11.6017 82.332 16.1728 82.4892 19.9688 85.2449Z" fill="#00FA96"/>
<path d="M11.6017 82.332C11.6017 82.332 16.3485 84.9766 17.8703 87.1651C19.3921 89.3535 25.3496 92.3085 25.3496 92.3085" stroke="white" stroke-width="2" stroke-miterlimit="10"/>
<path d="M30.8584 92.0896C26.4991 96.8977 25.5769 103.181 25.5769 103.181C25.5769 103.181 31.7233 101.667 36.0788 96.8574C40.4342 92.0474 41.3602 85.7656 41.3602 85.7656C41.3602 85.7656 35.2176 87.2815 30.8584 92.0896Z" fill="#00FA96"/>
<path d="M41.3641 85.7695C41.3641 85.7695 35.6854 90.6984 34.2419 94.0941C32.7984 97.4899 25.5769 103.183 25.5769 103.183" stroke="white" stroke-width="2" stroke-miterlimit="10"/>
<path d="M190.88 90.3978C190.88 90.3978 187.728 74.6569 188.935 72.6984C188.935 72.6984 188.979 70.8779 188.906 68.5572C188.906 68.4691 188.906 68.3809 188.906 68.2908C189.118 68.4329 189.34 68.5609 189.569 68.6741C190.68 69.2474 191.957 69.4128 193.177 69.1417L192.223 68.0743C191.994 67.8194 191.755 67.5435 191.705 67.2062C191.656 66.8689 191.793 66.568 191.911 66.2672C192.818 63.9676 192.866 61.0758 191.119 59.3204C189.643 57.8448 189.284 55.94 187.682 54.5928C186.512 53.6059 185.868 52.159 185.261 50.7601C184.747 49.5777 184.23 48.3857 183.936 47.1325C183.707 46.1532 183.615 45.1395 183.3 44.1832C182.985 43.227 182.395 42.2975 181.473 41.8702C181.144 41.7188 180.779 41.6325 180.48 41.4313C180.086 41.165 179.85 40.7319 179.565 40.3524C178.12 38.4361 173.279 39.5648 170.988 40.3428C170.365 40.5388 169.788 40.8595 169.292 41.2857L169.313 41.2512C169.33 41.2225 169.351 41.1937 169.371 41.165C169.12 41.3685 168.903 41.6111 168.729 41.8836C168.395 42.4144 168.255 43.0334 167.977 43.6083C167.641 44.2886 165.771 46.1877 166.575 46.9523C166.632 47.0037 166.696 47.0451 166.766 47.075C167.068 47.201 167.4 47.2344 167.721 47.1708L167.686 47.2532C167.412 47.9278 167.271 48.6497 167.272 49.3784C167.272 52.527 169.859 55.0795 173.054 55.0795C173.654 55.0801 174.251 54.9877 174.824 54.8055C174.837 54.8783 174.849 54.9512 174.862 55.024C174.862 55.0527 174.872 55.0815 174.875 55.1102L174.774 55.252C174.769 55.2433 174.763 55.2349 174.757 55.2271L171.759 59.4316C171.301 59.7554 168.662 61.6718 168.513 63.109C168.357 64.6824 168.2 66.524 168.2 66.524L168.179 66.9187C168.048 67.0286 167.895 67.1086 167.73 67.1533C167.565 67.198 167.393 67.2062 167.224 67.1774C166.289 67.0241 166.289 70.6269 166.289 70.6269C166.289 70.6269 165.666 71.2018 165.239 70.7035C164.811 70.2053 163.68 71.8936 163.68 71.8936L156.596 72.2002L156.434 72.2098L156.052 71.0235C156.011 70.8984 155.923 70.7946 155.806 70.7347C155.689 70.6748 155.553 70.6636 155.428 70.7035C155.398 70.7133 155.37 70.7255 155.342 70.7399L155.315 70.7553L155.266 70.7897L155.241 70.8127C155.227 70.8252 155.214 70.8387 155.203 70.853L155.18 70.8798L155.168 70.8913C155.124 70.9525 155.095 71.0232 155.083 71.0977C155.071 71.1723 155.077 71.2486 155.099 71.3206L155.428 72.3382C154.061 72.6141 152.663 73.3921 153.803 75.5346L148.025 74.4634L149.894 76.0386L159.545 78.0374C159.417 78.2673 159.501 78.6008 159.9 79.0703C161.618 81.0958 164.75 81.6458 166.01 81.7877C166.343 82.5348 166.758 83.242 167.249 83.8956L167.14 85.9135C167.14 85.9135 163.95 101.294 163.365 102.074C163.66 101.739 163.93 101.382 164.173 101.007C163.247 104.167 161.952 108.492 161.613 109.14C161.066 110.174 160.56 114.362 161.183 114.63C161.374 114.712 161.92 114.672 162.699 114.613V114.96L162.665 128.104C162.665 128.104 162.821 136.166 162.392 136.934C161.962 137.703 161.847 139.314 161.847 139.314C161.847 139.314 160.129 142.494 158.767 143.772C158.758 143.782 158.748 143.791 158.737 143.799L158.695 143.5C158.695 143.5 157.059 145.573 153.438 145.456C153.438 145.456 151.26 146.878 154.49 146.955C157.721 147.032 161.847 146.84 161.847 146.84C161.847 146.84 164.729 142.432 167.142 143.007V146.347H167.881V142.954C168.224 142.727 168.517 142.433 168.743 142.09C168.97 141.746 169.124 141.36 169.197 140.955C169.26 140.537 169.214 140.11 169.062 139.716C168.911 139.322 168.66 138.974 168.334 138.707C168.187 138.574 168.07 138.412 167.989 138.231C167.907 138.051 167.864 137.855 167.862 137.657L167.835 137.68C167.835 137.613 167.818 137.544 167.811 137.473C167.599 135.748 167.333 132.189 168.271 129.556C169.556 125.946 169.945 120.918 169.01 117.924C168.708 116.967 168.46 115.994 168.267 115.009C168.244 114.885 168.223 114.766 168.204 114.655C168.843 114.742 169.477 114.87 170.1 115.038C172.267 115.638 177.008 115.749 181.056 115.717C181.066 115.828 181.077 115.945 181.091 116.061C181.163 116.874 181.314 117.678 181.541 118.461C182.049 119.994 182.282 126.753 182.282 126.753C182.282 126.753 182.937 132.31 182.58 134.571C182.389 135.829 182.198 137.091 182.089 138.36V138.385C182.089 138.385 181.016 141.451 180.231 143.116C180.212 143.159 180.191 143.201 180.172 143.241C179.963 143.26 179.757 143.306 179.559 143.377C179.559 143.377 178.507 145.485 177.459 145.834C176.411 146.183 176.758 147.33 179.132 146.909C181.505 146.487 185.089 146.142 185.089 146.142L185.244 143.992L185.973 143.076L185.782 145.221L186.559 145.067L186.456 142.459L187.65 140.961C187.65 140.961 189.091 139.673 186.949 137.139V137.195C186.926 137.159 186.905 137.12 186.88 137.084V137.072C186.525 136.52 186.242 135.491 186.76 133.665C187.695 130.365 188.24 127.37 188.24 127.37C188.24 127.37 190.329 119.346 187.818 115.55H187.928C187.671 115.016 187.489 114.448 187.388 113.863C187.375 113.794 187.364 113.724 187.354 113.651C189.211 113.543 191.035 113.206 192.522 112.478C192.517 112.47 191.621 93.4294 190.88 90.3978ZM167.293 77.1175V77.1558L166.911 77.175L167.293 77.1175ZM165.983 77.2996C165.92 77.3135 165.862 77.3417 165.811 77.382C165.647 77.6151 165.544 77.886 165.512 78.1696L164.916 78.0354C164.916 78.0354 164.498 77.9454 163.896 77.8438L163.612 77.5564C164.395 77.4912 165.208 77.3954 165.983 77.2996Z" fill="url(#paint1_linear)"/>
<path d="M185.694 142.489L185.467 145.204L186.229 145.051L186.114 142.105L185.694 142.489Z" fill="#1D2366"/>
<path d="M168.313 129.592C167.394 132.218 167.654 135.761 167.86 137.482C167.937 138.118 168.007 138.505 168.007 138.505C168.007 138.505 166.634 141.644 166.52 141.763C166.405 141.882 162.479 144.287 162.479 144.287L159.735 145.895C159.735 145.895 156.952 144.67 158.286 144.248C158.559 144.139 158.805 143.971 159.006 143.756C160.343 142.482 162.021 139.314 162.021 139.314C162.021 139.314 162.136 137.706 162.556 136.941C162.976 136.177 162.823 128.142 162.823 128.142L162.856 115.043V113.336L168.078 113.374C168.111 113.954 168.186 114.53 168.303 115.099C168.491 116.08 168.733 117.05 169.031 118.004C169.951 120.992 169.569 125.995 168.313 129.592Z" fill="#FFB0B1"/>
<path opacity="0.1" d="M168.007 138.504C168.007 138.504 166.634 141.643 166.52 141.762C166.405 141.88 162.479 144.285 162.479 144.285L159.735 145.893C159.735 145.893 156.952 144.669 158.286 144.247C158.559 144.137 158.805 143.969 159.006 143.755L159.124 144.592L160.039 144.554L167.868 137.484C167.937 138.117 168.007 138.504 168.007 138.504Z" fill="black"/>
<path d="M167.912 137.664L160.039 144.781L159.124 144.82L158.934 143.478C158.934 143.478 157.333 145.544 153.778 145.429C153.778 145.429 151.643 146.845 154.807 146.922C157.971 146.999 162.012 146.807 162.012 146.807C162.012 146.807 164.834 142.399 167.196 142.974V146.303H167.921V142.944C168.259 142.716 168.546 142.422 168.768 142.079C168.989 141.737 169.139 141.353 169.208 140.951C169.271 140.536 169.227 140.113 169.079 139.721C168.932 139.329 168.686 138.982 168.366 138.712C168.223 138.578 168.109 138.416 168.031 138.235C167.953 138.055 167.912 137.861 167.912 137.664Z" fill="#414141"/>
<path d="M186.42 133.688C185.912 135.508 186.189 136.533 186.536 137.083V137.095C186.982 137.774 187.292 138.534 187.449 139.331L187.479 139.504L183.897 144.745L181.954 145.512C181.954 145.512 178.828 144.44 179.399 144.134C179.542 144.059 179.765 143.66 180.021 143.11C180.785 141.453 181.839 138.394 181.839 138.394V138.369C181.95 137.106 182.125 135.847 182.32 134.594C182.67 132.339 182.028 126.802 182.028 126.802C182.028 126.802 181.799 120.07 181.302 118.539C181.078 117.761 180.929 116.962 180.858 116.155C180.754 115.197 180.732 114.407 180.732 114.407C180.732 114.407 182.79 111.533 186.563 114.637C186.865 114.885 187.13 115.174 187.352 115.496C189.958 119.217 187.859 127.416 187.859 127.416C187.859 127.416 187.334 130.397 186.42 133.688Z" fill="#FFB0B1"/>
<path opacity="0.1" d="M187.485 139.502L183.903 144.743L181.959 145.509C181.959 145.509 178.834 144.438 179.405 144.131C179.548 144.057 179.771 143.658 180.027 143.108C181.35 143.097 182.036 144.361 182.036 144.361L183.712 144.093C183.712 144.093 185.923 139.731 186.42 139.465C186.916 139.199 186.496 137.474 186.496 137.474V137.035C186.51 137.05 186.521 137.068 186.536 137.083V137.095C186.982 137.774 187.292 138.533 187.449 139.331L187.485 139.502Z" fill="black"/>
<path d="M182.15 144.477C182.15 144.477 181.196 142.717 179.366 143.367C179.366 143.367 178.337 145.475 177.308 145.816C176.279 146.157 176.623 147.307 178.948 146.887C181.274 146.468 184.78 146.121 184.78 146.121L184.932 143.976L187.296 140.954C187.296 140.954 188.706 139.672 186.609 137.148V137.587C186.609 137.587 187.029 139.312 186.533 139.578C186.036 139.845 183.833 144.208 183.833 144.208L182.15 144.477Z" fill="#414141"/>
<path opacity="0.1" d="M168.084 113.37C168.117 113.95 168.192 114.526 168.309 115.095C166.159 114.779 164.164 114.936 162.856 115.04V113.332L168.084 113.37Z" fill="black"/>
<path opacity="0.1" d="M187.564 115.971C187.564 115.971 184.509 116.121 180.865 116.151C180.762 115.193 180.739 114.403 180.739 114.403C180.739 114.403 182.798 111.529 186.571 114.633C186.872 114.881 187.138 115.17 187.359 115.492C187.418 115.655 187.487 115.815 187.564 115.971Z" fill="black"/>
<path d="M187.564 115.627C187.564 115.627 174.182 116.277 170.104 115.129C166.025 113.981 161.983 114.976 161.374 114.709C160.765 114.443 161.259 110.271 161.794 109.238C162.329 108.205 165.261 97.7594 165.261 97.7594L168.084 82.992L171.057 82.1699L171.267 82.1105L176.447 80.6771L180.243 79.625C180.243 79.625 187.791 109.2 187.144 111.381C186.909 112.216 186.871 113.094 187.033 113.947C187.132 114.529 187.31 115.094 187.564 115.627Z" fill="#414141"/>
<path d="M158.246 72.8906C158.246 72.8906 155.573 75.7651 157.597 77.3672C159.621 78.9693 160.952 77.5205 160.952 77.5205L158.246 72.8906Z" fill="#C7DAF5"/>
<path opacity="0.1" d="M158.246 72.8906C158.246 72.8906 155.573 75.7651 157.597 77.3672C159.621 78.9693 160.952 77.5205 160.952 77.5205L158.246 72.8906Z" fill="black"/>
<path d="M179.844 53.9936C179.844 53.9936 179.531 54.2925 179.059 54.7333C178.387 55.3637 177.392 56.2855 176.51 57.0578C175.288 58.1252 174.28 58.909 174.641 58.2402C175.001 57.5714 174.933 56.4062 174.753 55.3158C174.74 55.243 174.728 55.1702 174.715 55.0993C174.566 54.2985 174.369 53.5075 174.125 52.7307C174.125 52.7307 176.099 50.1704 177.192 49.1605C177.598 48.7773 177.883 48.6201 177.9 48.8865C177.919 49.2448 178.186 50.0363 178.519 50.8757C178.528 50.9025 178.538 50.9274 178.549 50.9542C178.771 51.5291 179.021 52.1194 179.24 52.6291C179.576 53.411 179.844 53.9936 179.844 53.9936Z" fill="#FFB0B1"/>
<path opacity="0.1" d="M178.549 50.9559C178.364 51.9574 177.913 52.8906 177.246 53.6579C176.578 54.4251 175.717 54.9983 174.753 55.3175C174.601 54.4427 174.391 53.5791 174.125 52.7323C174.125 52.7323 177.843 47.9127 177.9 48.8881C177.913 49.258 178.204 50.0782 178.549 50.9559Z" fill="black"/>
<path opacity="0.1" d="M174.383 56.6022L174.864 55.9219C174.864 55.9219 175.183 57.8727 176.355 57.0123C177.528 56.1518 177.585 63.4876 177.585 63.4876L176.327 82.3694L167.234 81.8232L167.492 72.6995L168.521 68.1003L171.066 61.4141L172.58 59.2046L174.383 56.6022Z" fill="black"/>
<path d="M177.585 63.6066L176.439 80.6793L176.319 82.4883L171.249 82.1836L171.058 82.1721L167.24 81.9422L167.497 72.8165L168.527 68.2173L171.072 61.5312L172.586 59.3216L174.389 56.7096L174.87 56.0312C174.87 56.0312 175.189 57.9821 176.361 57.1217L176.386 57.1044C177.531 56.3762 177.585 63.6066 177.585 63.6066Z" fill="#414141"/>
<path d="M168.655 66.6172C168.655 66.6172 168.198 67.5754 167.282 67.4201C166.365 67.2649 166.367 70.8696 166.367 70.8696C166.367 70.8696 165.758 71.4445 165.338 70.9462C164.918 70.448 163.81 72.1324 163.81 72.1324L156.871 72.4391C156.871 72.4391 159.959 73.8552 159.354 78.1402C159.354 78.1402 169.836 77.4886 170.18 76.494C170.524 75.4995 168.655 66.6172 168.655 66.6172Z" fill="white"/>
<path opacity="0.03" d="M168.655 66.6172C168.655 66.6172 168.198 67.5754 167.282 67.4201C166.365 67.2649 166.367 70.8696 166.367 70.8696C166.367 70.8696 165.758 71.4445 165.338 70.9462C164.918 70.448 163.81 72.1324 163.81 72.1324L156.871 72.4391C156.871 72.4391 159.959 73.8552 159.354 78.1402C159.354 78.1402 169.836 77.4886 170.18 76.494C170.524 75.4995 168.655 66.6172 168.655 66.6172Z" fill="black"/>
<path d="M148.489 74.6914L150.318 76.259L165.376 79.4344L163.509 77.5218L148.489 74.6914Z" fill="white"/>
<path d="M174.411 57.2058C174.161 57.5891 173.445 59.5515 172.848 61.2647C172.349 62.6923 171.933 63.9475 171.933 63.9475C171.933 63.9475 170.961 70.2983 170.465 71.4462C169.968 72.5941 170.237 77.0707 170.237 77.0707L168.387 88.1261C168.387 88.1261 167.549 93.8272 166.254 97.2325C164.977 100.584 163.554 102.156 163.51 102.205C164.083 101.427 167.205 86.1082 167.205 86.1082L168.236 66.7876C168.236 66.7876 168.387 64.9517 168.54 63.3822C168.693 61.8127 171.786 59.6703 171.786 59.6703L174.769 55.4141C175.068 55.8165 174.868 56.5179 174.411 57.2058Z" fill="white"/>
<path d="M166.634 82.035C166.634 82.035 162.243 81.8433 160.116 79.2792C157.988 76.7152 165.032 78.2559 165.032 78.2559L166.863 78.6775L166.634 82.035Z" fill="#FFB0B1"/>
<path opacity="0.1" d="M187.143 111.383C186.908 112.218 186.87 113.096 187.033 113.949C182.242 114.29 177.117 112.99 177.117 112.99C176.162 113.872 173.648 115.171 173.648 115.171L172.277 98.1157C171.4 95.8161 171.057 83.768 171.057 83.768C171.057 83.768 171.135 83.1376 171.247 82.1928C171.247 82.1698 171.247 82.1449 171.257 82.1219C171.599 79.4831 172.277 74.5293 172.609 73.8605C173.067 72.9407 171.2 70.4935 171.2 70.4935L172.049 63.221L172.153 62.3433C173.944 61.5403 175.316 58.9763 175.316 58.9763L176.37 57.1232C177.516 56.3854 177.575 63.6157 177.575 63.6157L176.43 80.6885L180.226 79.6364C180.226 79.6364 187.791 109.202 187.143 111.383Z" fill="black"/>
<path d="M192.06 112.558C186.838 115.161 177.346 112.75 177.346 112.75C176.392 113.631 173.877 114.931 173.877 114.931L172.504 97.8752C171.629 95.5756 171.286 83.5276 171.286 83.5276C171.286 83.5276 172.389 74.538 172.848 73.62C172.981 73.3518 172.916 72.9532 172.758 72.5239C171.979 70.4807 171.692 68.2816 171.922 66.1061L172.288 62.9805L172.389 62.1047C174.182 61.2999 175.555 58.7358 175.555 58.7358L176.51 57.0571L178.267 53.9641L179.099 52.5L179.24 52.6284L180.319 53.6096C180.319 53.6096 180.778 53.9928 181.465 54.5677C182.96 55.8325 185.543 58.0593 186.876 59.4218C188.049 60.6215 188.419 65.2878 188.526 68.8004C188.597 71.1135 188.555 72.9263 188.555 72.9263C187.373 74.8791 190.464 90.5567 190.464 90.5567C191.184 93.5865 192.06 112.558 192.06 112.558Z" fill="white"/>
<path opacity="0.03" d="M182.036 58.7C182.036 58.7 178.452 65.5471 178.868 68.1495C179.284 70.7519 180.468 73.6973 179.897 74.3853C179.701 74.6459 179.447 74.8575 179.156 75.0034C178.865 75.1494 178.544 75.2257 178.219 75.2265C177.646 75.2649 176.118 76.3361 176.118 76.4511C176.118 76.5661 174.707 76.5661 173.445 77.1027C172.183 77.6392 170.319 77.9439 170.319 77.9439C170.319 77.9439 166.692 77.8289 166.354 78.1739C166.016 78.5188 165.668 80.5827 166.392 82.2289C167.115 83.875 167.919 85.1034 168.527 85.3276C169.134 85.5518 172.987 84.2564 176.113 83.9498C179.238 83.6431 182.631 81.1576 182.631 81.1576C182.631 81.1576 186.368 79.8162 187.023 77.5607C187.678 75.3051 186.223 62.9083 186.223 62.9083C186.223 62.9083 185.123 57.1305 182.036 58.7Z" fill="black"/>
<path opacity="0.03" d="M181.578 58.1252C181.578 58.1252 177.994 64.9742 178.414 67.5747C178.834 70.1752 180.014 73.1225 179.441 73.8124C179.245 74.0734 178.992 74.2852 178.701 74.4312C178.41 74.5772 178.09 74.6533 177.764 74.6537C177.192 74.692 175.664 75.7633 175.664 75.8783C175.664 75.9932 174.253 75.9932 172.991 76.5279C171.729 77.0626 169.865 77.3692 169.865 77.3692C169.865 77.3692 166.237 77.2542 165.901 77.5991C165.565 77.9441 165.214 80.0099 165.939 81.6541C166.665 83.2983 167.467 84.5286 168.074 84.7529C168.681 84.9771 172.534 83.6816 175.66 83.3769C178.786 83.0722 182.179 80.5829 182.179 80.5829C182.179 80.5829 185.914 79.2414 186.561 76.9878C187.208 74.7342 185.761 62.3335 185.761 62.3335C185.761 62.3335 184.665 56.5577 181.578 58.1252Z" fill="black"/>
<path d="M181.923 58.3536C181.923 58.3536 178.339 65.2026 178.759 67.8031C179.179 70.4036 180.359 73.3509 179.788 74.0389C179.593 74.3004 179.34 74.5127 179.048 74.6591C178.757 74.8054 178.436 74.8818 178.11 74.882C177.537 74.9204 176.01 75.9916 176.01 76.1047C176.01 76.2177 174.6 76.2197 173.336 76.7562C172.072 77.2928 170.211 77.5975 170.211 77.5975C170.211 77.5975 166.583 77.4825 166.245 77.8275C165.907 78.1724 165.559 80.2382 166.283 81.8825C167.007 83.5267 167.81 84.757 168.418 84.9812C169.025 85.2054 172.878 83.9099 176.004 83.6033C179.13 83.2967 182.523 80.8112 182.523 80.8112C182.523 80.8112 186.259 79.4698 186.914 77.2142C187.569 74.9587 186.124 62.5619 186.124 62.5619C186.124 62.5619 185.009 56.7937 181.923 58.3536Z" fill="white"/>
<path opacity="0.1" d="M181.845 76.7218C181.845 76.7218 178.981 76.1469 179.977 77.1051C180.974 78.0633 180.968 78.9026 182.189 78.8643C183.409 78.826 181.845 76.7218 181.845 76.7218Z" fill="black"/>
<path opacity="0.1" d="M186.685 97.3398C186.685 97.3398 185.391 98.2194 187.867 100.247C190.344 102.274 186.685 97.3398 186.685 97.3398Z" fill="black"/>
<path opacity="0.1" d="M184.214 104.57C184.214 104.685 183.756 108.786 185.471 109.812C187.186 110.837 184.214 104.57 184.214 104.57Z" fill="black"/>
<path d="M156.99 72.4297C155.607 72.4776 152.621 72.9011 154.17 75.8005C155.539 78.3665 157.839 76.6514 159.134 75.3502C158.818 74.137 158.051 73.0917 156.99 72.4297Z" fill="#FFB0B1"/>
<path d="M159.151 75.325L159.209 75.2656L159.151 75.325Z" fill="#FFB0B1"/>
<path opacity="0.1" d="M181.465 54.6888C179.998 55.6948 178.769 56.5438 178.528 56.7201C177.871 57.2087 176.619 60.0775 175.811 61.5416C175.167 62.7202 173.077 63.0229 172.288 63.0977L172.389 62.2219C174.182 61.417 175.555 58.853 175.555 58.853L179.099 52.6172L180.319 53.7306C180.319 53.7306 180.777 54.1139 181.465 54.6888Z" fill="black"/>
<path d="M181.465 54.5716C179.998 55.5777 178.769 56.4266 178.528 56.6048C177.871 57.0916 176.619 59.9603 175.811 61.4244C175.167 62.603 173.077 62.9058 172.288 62.9805L172.389 62.1047C174.182 61.2999 175.555 58.7358 175.555 58.7358L179.099 52.5L180.319 53.6096C180.319 53.6096 180.777 53.989 181.465 54.5716Z" fill="#DCE7FF"/>
<path d="M178.643 49.6907C178.643 50.8411 178.296 51.9645 177.646 52.9121C176.878 54.0325 175.736 54.8396 174.426 55.1869C173.116 55.5343 171.726 55.399 170.507 54.8055C169.288 54.212 168.322 53.1996 167.783 51.9521C167.244 50.7046 167.169 49.3046 167.571 48.0061C167.972 46.7076 168.825 45.5967 169.973 44.8749C171.121 44.1531 172.489 43.8682 173.828 44.072C175.168 44.2758 176.39 44.9548 177.273 45.9857C178.157 47.0165 178.642 48.3311 178.643 49.6907Z" fill="#FFB0B1"/>
<path opacity="0.1" d="M188.526 68.8063C187.751 68.3276 187.119 67.6467 186.699 66.8363C186.38 66.2039 186.168 65.4738 185.624 65.0253C185.133 64.6229 184.478 64.5252 183.867 64.345C181.858 63.749 180.174 61.9094 180.111 59.809C180.081 58.8202 180.388 57.8333 180.249 56.854C180.169 56.2998 179.95 55.7753 179.611 55.3305C179.443 55.1178 179.258 54.9186 179.059 54.7346C178.792 54.4816 178.511 54.2363 178.267 53.968C178.113 53.8019 177.978 53.6187 177.866 53.4219C177.775 53.2608 177.701 53.0906 177.646 52.914C177.264 51.7412 177.612 50.35 177.192 49.1637L177.169 49.0986C177.01 48.677 176.687 48.2554 176.239 48.2228C175.79 48.1902 175.406 48.5639 174.979 48.7306C174.083 49.0794 173.117 48.4854 172.37 47.8798C171.624 47.2742 170.782 46.5824 169.833 46.7166C169.204 46.8066 168.708 47.2359 168.129 47.4582C167.999 47.5089 167.864 47.5481 167.727 47.5751C168.216 46.3496 169.116 45.3335 170.271 44.7014C171.426 44.0692 172.764 43.8605 174.056 44.1111C175.347 44.3616 176.512 45.0558 177.349 46.0744C178.186 47.093 178.643 48.3723 178.643 49.6927C178.643 50.0914 178.602 50.489 178.519 50.8789C178.528 50.9057 178.538 50.9306 178.549 50.9574C178.771 51.5323 179.021 52.1226 179.24 52.6323L180.319 53.6135C180.319 53.6135 180.777 53.9968 181.465 54.5717C182.96 55.8365 185.543 58.0632 186.876 59.4258C188.049 60.6292 188.415 65.2936 188.526 68.8063Z" fill="black"/>
<path d="M168.063 43.9558C168.336 43.3981 168.471 42.7734 168.798 42.2445C169.277 41.4779 170.113 40.9873 170.973 40.6903C173.216 39.9142 177.957 38.7874 179.374 40.6903C179.653 41.0736 179.884 41.499 180.27 41.7635C180.564 41.9647 180.919 42.0509 181.241 42.2023C182.145 42.6277 182.721 43.5552 183.029 44.5019C183.336 45.4486 183.428 46.4643 183.653 47.4397C183.941 48.691 184.447 49.8773 184.952 51.0558C185.545 52.4471 186.175 53.8901 187.321 54.8732C188.885 56.2146 189.231 58.1137 190.682 59.5855C192.4 61.3332 192.345 64.2173 191.459 66.5073C191.342 66.8082 191.211 67.1225 191.256 67.4425C191.302 67.7625 191.539 68.0538 191.762 68.3087L192.702 69.3723C190.479 69.9107 187.965 68.7456 186.93 66.7009C186.611 66.0685 186.399 65.3403 185.853 64.8899C185.364 64.4875 184.707 64.3917 184.098 64.2115C182.089 63.6136 180.405 61.772 180.342 59.6717C180.312 58.6848 180.619 57.6979 180.48 56.7205C180.402 56.1626 180.182 55.6344 179.84 55.1875C179.315 54.4995 178.522 54.0376 178.095 53.2711C177.371 51.9891 177.921 50.3238 177.4 48.9478C177.239 48.5262 176.919 48.1046 176.47 48.0721C176.021 48.0395 175.637 48.4132 175.208 48.5799C174.314 48.9287 173.348 48.3365 172.601 47.729C171.855 47.1216 171.013 46.4317 170.062 46.5677C169.434 46.6559 168.939 47.0851 168.36 47.3094C167.933 47.4742 167.066 47.6217 166.692 47.2595C165.901 46.5294 167.732 44.638 168.063 43.9558Z" fill="#591D4B"/>
<path opacity="0.1" d="M187.461 66.0677C187.14 65.4353 186.93 64.7071 186.384 64.2587C185.895 63.8562 185.238 63.7585 184.627 63.5784C182.62 62.9824 180.936 61.1408 180.871 59.0404C180.841 58.0535 181.148 57.0647 181.01 56.0874C180.93 55.533 180.71 55.0085 180.371 54.5639C179.844 53.8759 179.051 53.4141 178.626 52.6475C177.902 51.3674 178.452 49.7021 177.929 48.3242C177.77 47.9046 177.447 47.483 177.001 47.4485C176.554 47.414 176.166 47.7915 175.739 47.9582C174.845 48.307 173.877 47.7129 173.132 47.1074C172.387 46.5018 171.542 45.81 170.593 45.9441C169.964 46.0342 169.468 46.4635 168.891 46.6858C168.464 46.8506 167.595 47.0001 167.221 46.6379C166.434 45.8713 168.265 43.9837 168.593 43.3053C168.866 42.7458 169.002 42.123 169.33 41.594C169.348 41.5653 169.367 41.5366 169.386 41.5078C169.14 41.7121 168.928 41.9539 168.758 42.2245C168.431 42.7534 168.296 43.3743 168.023 43.9358C167.692 44.6142 165.861 46.5076 166.65 47.2683C167.032 47.6324 167.891 47.483 168.318 47.3182C168.891 47.094 169.392 46.6647 170.02 46.5765C170.974 46.4405 171.815 47.1323 172.559 47.7378C173.304 48.3434 174.278 48.9375 175.168 48.5887C175.595 48.422 175.97 48.0464 176.428 48.0809C176.886 48.1154 177.192 48.535 177.358 48.9566C177.879 50.3326 177.329 51.9979 178.053 53.2799C178.48 54.033 179.273 54.5045 179.798 55.1963C180.14 55.6432 180.36 56.1714 180.438 56.7293C180.577 57.7067 180.27 58.6936 180.3 59.6805C180.363 61.7885 182.047 63.6224 184.056 64.2203C184.661 64.4005 185.322 64.4963 185.811 64.8987C186.359 65.3491 186.575 66.0773 186.888 66.7097C187.923 68.7544 190.437 69.9195 192.66 69.381L192.217 68.879C190.29 68.9077 188.341 67.8077 187.461 66.0677Z" fill="black"/>
<path opacity="0.1" d="M174.297 57.3227C174.047 57.7059 173.331 59.6683 172.733 61.3815C172.173 61.163 171.666 59.7698 171.666 59.7698L174.648 55.5117C174.954 55.9333 174.753 56.6328 174.297 57.3227Z" fill="black"/>
<path d="M174.411 57.2075C174.161 57.5907 173.445 59.5531 172.848 61.2663C172.288 61.0497 171.78 59.6546 171.78 59.6546L174.763 55.3984C175.068 55.8181 174.868 56.5195 174.411 57.2075Z" fill="#DCE7FF"/>
<path d="M157.07 76.785L155.416 71.5515C155.397 71.4902 155.39 71.4257 155.395 71.3616C155.4 71.2974 155.418 71.235 155.448 71.1778C155.477 71.1207 155.517 71.0699 155.567 71.0285C155.616 70.9871 155.672 70.9557 155.733 70.9364C155.856 70.8978 155.99 70.9096 156.104 70.9692C156.219 71.0287 156.305 71.1313 156.344 71.2545L157.998 76.4823L157.834 77.5765L157.07 76.785Z" fill="#BE8B87"/>
<path opacity="0.1" d="M155.573 71.0917C155.696 71.0526 155.83 71.0641 155.945 71.1237C156.06 71.1833 156.146 71.2862 156.186 71.4098L157.839 76.6376L157.715 77.4578L157.836 77.5843L158 76.4901L156.337 71.2623C156.297 71.1391 156.211 71.0366 156.096 70.977C155.982 70.9174 155.849 70.9056 155.726 70.9442C155.622 70.9779 155.533 71.0453 155.472 71.1358C155.504 71.1183 155.538 71.1036 155.573 71.0917Z" fill="white"/>
<path d="M157.07 76.7834L157.998 76.4883L157.862 77.3851L157.834 77.5825L157.563 77.2989L157.07 76.7834Z" fill="#EFC8C4"/>
<path d="M157.563 77.3011C157.579 77.2807 157.599 77.2637 157.622 77.2513C157.635 77.2428 157.651 77.2383 157.667 77.2383C157.683 77.2383 157.698 77.2428 157.712 77.2513C157.725 77.2671 157.735 77.2845 157.744 77.3031C157.757 77.3242 157.774 77.3422 157.794 77.3558C157.815 77.3694 157.838 77.3782 157.862 77.3816L157.834 77.5732L157.563 77.3011Z" fill="#727A9C"/>
<path d="M155.407 73.4102C155.407 73.4102 158.724 73.391 157.943 74.8072C157.162 76.2234 155.942 76.3939 155.942 76.3939L155.407 73.4102Z" fill="#FFB0B1"/>
<path d="M134.779 9.85547H134.636C128.938 9.85547 123.899 12.8814 121.001 17.3465C118.102 12.8814 113.063 9.85547 107.366 9.85547H107.222C102.946 9.89637 98.8591 11.6292 95.849 14.6775C92.8389 17.7258 91.1491 21.8431 91.1468 26.1348C91.1468 31.4642 93.4725 39.0261 98.0074 45.2484C106.648 57.1049 121.001 67.478 121.001 67.478C121.001 67.478 135.354 57.1068 143.992 45.2484C148.529 39.0261 150.853 31.4642 150.853 26.1348C150.851 21.8435 149.161 17.7264 146.151 14.6782C143.142 11.63 139.055 9.89687 134.779 9.85547ZM132.73 46.1606C132.082 46.1581 131.449 45.9588 130.915 45.5888C130.381 45.2187 129.971 44.6953 129.738 44.0871H126.332C126.108 44.0857 125.889 44.0141 125.708 43.8821C125.526 43.7502 125.39 43.5646 125.318 43.3513L124.272 40.1874L120.961 51.7985C120.896 52.022 120.761 52.2185 120.576 52.3585C120.391 52.4984 120.165 52.5743 119.933 52.5746H119.867C119.625 52.5629 119.394 52.4682 119.213 52.3064C119.033 52.1445 118.913 51.9253 118.874 51.6854L115.461 31.0886L112.968 43.2765C112.911 43.5081 112.778 43.7137 112.591 43.8606C112.403 44.0075 112.172 44.0873 111.935 44.0871H107.136C106.993 44.0932 106.849 44.0701 106.714 44.0191C106.58 43.968 106.457 43.8902 106.353 43.7902C106.249 43.6902 106.166 43.5701 106.109 43.4372C106.053 43.3043 106.024 43.1614 106.024 43.0169C106.024 42.8724 106.053 42.7294 106.109 42.5965C106.166 42.4636 106.249 42.3435 106.353 42.2435C106.457 42.1435 106.58 42.0657 106.714 42.0147C106.849 41.9636 106.993 41.9405 107.136 41.9466H111.095L114.627 25.5599C114.685 25.3176 114.825 25.1031 115.023 24.953C115.221 24.8029 115.465 24.7265 115.713 24.7369C115.961 24.7473 116.198 24.8439 116.383 25.0101C116.568 25.1763 116.69 25.4018 116.727 25.6481L120.212 46.6589L123.179 36.2704C123.241 36.0516 123.372 35.8587 123.552 35.7206C123.732 35.5824 123.951 35.5064 124.178 35.5038H124.199C124.423 35.5039 124.642 35.5751 124.824 35.7072C125.006 35.8394 125.141 36.0257 125.211 36.2397L127.103 41.9523H129.696C129.881 41.3902 130.216 40.8901 130.666 40.5073C131.116 40.1244 131.662 39.8737 132.245 39.7828C132.827 39.6919 133.424 39.7643 133.968 39.9921C134.512 40.2199 134.983 40.5942 135.329 41.0736C135.674 41.553 135.881 42.119 135.927 42.7091C135.972 43.2991 135.854 43.8903 135.586 44.4173C135.318 44.9444 134.91 45.3868 134.407 45.6958C133.904 46.0048 133.326 46.1683 132.736 46.1683L132.73 46.1606Z" fill="#00FA96"/>
</g>
<defs>
<linearGradient id="paint0_linear" x1="68.0388" y1="148.491" x2="68.0388" y2="30.5705" gradientUnits="userSpaceOnUse">
<stop stop-color="#808080" stop-opacity="0.25"/>
<stop offset="0.54" stop-color="#808080" stop-opacity="0.12"/>
<stop offset="1" stop-color="#808080" stop-opacity="0.1"/>
</linearGradient>
<linearGradient id="paint1_linear" x1="42621.5" y1="88972.5" x2="42621.5" y2="28442.9" gradientUnits="userSpaceOnUse">
<stop stop-color="#808080" stop-opacity="0.25"/>
<stop offset="0.54" stop-color="#808080" stop-opacity="0.12"/>
<stop offset="1" stop-color="#808080" stop-opacity="0.1"/>
</linearGradient>
<clipPath id="clip0">
<rect width="211" height="150" fill="white"/>
</clipPath>
</defs>
</svg>